<?xml version="1.0" encoding="UTF-8"?>
<svg xmlns="http://www.w3.org/2000/svg" xmlns:xlink="http://www.w3.org/1999/xlink" width="431pt" height="66.06pt" viewBox="0 0 431 66.06" version="1.1">
<defs>
<clipPath id="clip1">
  <path d="M 64 16 L 112 16 L 112 66.058594 L 64 66.058594 Z M 64 16 "/>
</clipPath>
</defs>
<g id="surface1">
<path style=" stroke:none;fill-rule:nonzero;fill:rgb(27.799988%,56.098938%,80.39856%);fill-opacity:1;" d="M 361.449219 46.636719 C 361.539063 52.722656 356.796875 57.644531 350.707031 57.824219 C 350.527344 57.824219 350.351563 57.824219 350.261719 57.824219 C 343.636719 57.824219 339.699219 53.617188 339.699219 46.457031 L 339.699219 17.902344 L 330.925781 17.902344 L 330.925781 46.097656 C 330.925781 58.183594 338.085938 65.96875 349.1875 65.96875 C 353.929688 66.058594 358.40625 64.179688 361.808594 60.867188 L 361.808594 64.894531 L 370.488281 64.894531 L 370.488281 17.902344 L 361.539063 17.902344 L 361.539063 46.636719 L 361.449219 46.636719 "/>
<path style=" stroke:none;fill-rule:nonzero;fill:rgb(27.799988%,56.098938%,80.39856%);fill-opacity:1;" d="M 307.027344 16.738281 C 302.28125 16.648438 297.71875 18.527344 294.40625 21.929688 L 294.40625 17.902344 L 285.8125 17.902344 L 285.8125 64.894531 L 294.671875 64.894531 L 294.671875 36.339844 C 294.492188 30.34375 299.148438 25.242188 305.234375 25.0625 C 305.503906 25.0625 305.773438 25.0625 305.953125 25.0625 C 312.394531 25.0625 316.425781 29.449219 316.425781 36.519531 L 316.425781 40.546875 L 325.195313 40.546875 L 325.195313 36.789063 C 325.285156 24.617188 318.125 16.738281 307.027344 16.738281 "/>
<path style=" stroke:none;fill-rule:nonzero;fill:rgb(27.799988%,56.098938%,80.39856%);fill-opacity:1;" d="M 265.3125 46.636719 C 265.402344 52.722656 260.660156 57.644531 254.570313 57.824219 C 254.394531 57.824219 254.214844 57.824219 254.125 57.824219 C 247.5 57.824219 243.5625 53.617188 243.5625 46.457031 L 243.5625 17.902344 L 234.789063 17.902344 L 234.789063 46.097656 C 234.789063 58.183594 241.949219 65.96875 253.050781 65.96875 C 257.792969 66.058594 262.269531 64.179688 265.671875 60.867188 L 265.671875 64.894531 L 274.265625 64.894531 L 274.265625 17.902344 L 265.402344 17.902344 L 265.402344 46.636719 L 265.3125 46.636719 "/>
<path style=" stroke:none;fill-rule:nonzero;fill:rgb(27.799988%,56.098938%,80.39856%);fill-opacity:1;" d="M 398.238281 35.179688 C 388.929688 33.746094 387.316406 32.582031 387.316406 29.988281 C 387.316406 26.765625 391.613281 24.257813 396.984375 24.257813 C 402.625 24.257813 406.382813 26.765625 407.277344 31.0625 L 407.367188 31.597656 L 416.320313 31.597656 L 416.230469 30.882813 C 415.246094 21.660156 407.816406 16.023438 396.894531 16.023438 C 384.097656 16.023438 378.277344 23.363281 378.277344 30.253906 C 378.277344 39.296875 385.347656 42.160156 396.71875 43.769531 C 407.636719 45.203125 408.53125 47.441406 408.53125 50.214844 C 408.53125 53.617188 404.863281 57.019531 397.789063 57.019531 C 391.347656 57.019531 386.601563 53.886719 385.707031 48.964844 L 385.617188 48.425781 L 376.664063 48.425781 L 376.757813 49.230469 C 378.007813 59.078125 386.242188 65.433594 397.789063 65.433594 C 409.339844 65.433594 417.125 59.167969 417.125 49.859375 C 417.304688 39.027344 408.980469 36.878906 398.238281 35.179688 "/>
<path style=" stroke:none;fill-rule:nonzero;fill:rgb(27.799988%,56.098938%,80.39856%);fill-opacity:1;" d="M 198.804688 21.660156 C 200.734375 21.660156 202.296875 23.226563 202.296875 25.152344 C 202.296875 27.082031 200.734375 28.644531 198.804688 28.644531 C 196.878906 28.644531 195.316406 27.082031 195.316406 25.152344 C 195.316406 23.226563 196.878906 21.660156 198.804688 21.660156 "/>
<path style=" stroke:none;fill-rule:nonzero;fill:rgb(27.799988%,56.098938%,80.39856%);fill-opacity:1;" d="M 212.234375 21.660156 C 214.160156 21.660156 215.722656 23.226563 215.722656 25.152344 C 215.722656 27.082031 214.160156 28.644531 212.234375 28.644531 C 210.304688 28.644531 208.742188 27.082031 208.742188 25.152344 C 208.742188 23.226563 210.304688 21.660156 212.234375 21.660156 "/>
<path style=" stroke:none;fill-rule:nonzero;fill:rgb(27.799988%,56.098938%,80.39856%);fill-opacity:1;" d="M 196.03125 34.105469 L 196.03125 41.890625 L 215.632813 41.890625 L 215.902344 41.535156 C 216.441406 40.28125 216.886719 39.027344 217.066406 37.683594 C 217.335938 36.519531 217.515625 35.269531 217.515625 34.105469 L 196.03125 34.105469 "/>
<path style=" stroke:none;fill-rule:nonzero;fill:rgb(27.799988%,56.098938%,80.39856%);fill-opacity:1;" d="M 221.003906 34.105469 C 220.558594 47.171875 211.160156 57.109375 199.164063 57.109375 C 186.632813 57.109375 176.429688 46.277344 176.429688 33.03125 C 176.429688 19.78125 186.632813 8.953125 199.164063 8.953125 C 207.578125 8.953125 214.828125 13.785156 218.589844 21.839844 L 218.769531 22.199219 L 228.257813 22.199219 L 227.988281 21.304688 C 223.511719 8.414063 212.234375 0 199.164063 0 C 181.710938 0 167.566406 14.769531 167.566406 32.941406 C 167.566406 51.109375 181.710938 65.96875 199.164063 65.96875 C 207.132813 65.96875 214.738281 62.835938 220.378906 57.199219 C 226.375 51.023438 229.6875 42.785156 229.507813 34.195313 L 221.003906 34.105469 "/>
<path style=" stroke:none;fill-rule:nonzero;fill:rgb(93.699646%,23.098755%,22.399902%);fill-opacity:1;" d="M 50.84375 44.488281 C 47.171875 52.542969 39.742188 57.378906 31.152344 57.378906 C 18.796875 57.378906 8.773438 46.546875 8.773438 33.210938 C 8.773438 19.871094 18.796875 9.039063 31.152344 9.039063 C 39.742188 8.863281 47.621094 13.964844 50.84375 21.929688 L 51.023438 22.378906 L 60.332031 22.378906 L 60.0625 21.484375 C 55.945313 8.59375 44.84375 0.539063 31.238281 0.539063 C 13.964844 0.539063 0 15.21875 0 33.210938 C 0 51.199219 13.964844 65.96875 31.152344 65.96875 C 44.578125 65.96875 55.675781 57.914063 59.972656 44.933594 L 60.242188 44.039063 L 51.023438 44.039063 L 50.84375 44.488281 "/>
<g clip-path="url(#clip1)" clip-rule="nonzero">
<path style=" stroke:none;fill-rule:nonzero;fill:rgb(93.699646%,23.098755%,22.399902%);fill-opacity:1;" d="M 87.542969 57.554688 C 79.488281 57.554688 72.863281 50.394531 72.863281 41.535156 C 72.863281 32.582031 79.398438 25.332031 87.542969 25.332031 C 95.6875 25.332031 102.402344 32.761719 102.402344 41.535156 C 102.402344 50.214844 95.597656 57.554688 87.542969 57.554688 Z M 102.671875 23.988281 C 99 19.425781 93.449219 16.828125 87.542969 16.738281 C 74.382813 16.738281 64 27.570313 64 41.445313 C 64 55.316406 74.292969 66.058594 87.542969 66.058594 C 93.449219 65.96875 98.910156 63.285156 102.671875 58.71875 L 102.671875 64.894531 L 111.261719 64.894531 L 111.261719 17.902344 L 102.671875 17.902344 L 102.671875 23.988281 "/>
</g>
<path style=" stroke:none;fill-rule:nonzero;fill:rgb(93.699646%,23.098755%,22.399902%);fill-opacity:1;" d="M 144.113281 16.738281 C 139.371094 16.648438 134.804688 18.527344 131.492188 21.929688 L 131.492188 17.902344 L 122.898438 17.902344 L 122.898438 64.894531 L 131.761719 64.894531 L 131.761719 36.339844 C 131.582031 30.34375 136.238281 25.242188 142.324219 25.0625 C 142.59375 25.0625 142.859375 25.0625 143.039063 25.0625 C 149.484375 25.0625 153.511719 29.449219 153.511719 36.519531 L 153.511719 40.546875 L 162.285156 40.546875 L 162.285156 36.789063 C 162.375 24.617188 155.214844 16.738281 144.113281 16.738281 "/>
<path style=" stroke:none;fill-rule:nonzero;fill:rgb(93.699646%,23.098755%,22.399902%);fill-opacity:1;" d="M 21.304688 25.332031 C 23.132813 25.332031 24.617188 26.816406 24.617188 28.644531 C 24.617188 30.472656 23.132813 31.957031 21.304688 31.957031 C 19.472656 31.957031 17.992188 30.472656 17.992188 28.644531 C 17.992188 26.816406 19.472656 25.332031 21.304688 25.332031 "/>
<path style=" stroke:none;fill-rule:nonzero;fill:rgb(93.699646%,23.098755%,22.399902%);fill-opacity:1;" d="M 42.785156 25.332031 C 44.617188 25.332031 46.097656 26.816406 46.097656 28.644531 C 46.097656 30.472656 44.617188 31.957031 42.785156 31.957031 C 40.957031 31.957031 39.472656 30.472656 39.472656 28.644531 C 39.472656 26.816406 40.957031 25.332031 42.785156 25.332031 "/>
<path style=" stroke:none;fill-rule:nonzero;fill:rgb(93.699646%,23.098755%,22.399902%);fill-opacity:1;" d="M 28.285156 26.046875 L 34.105469 26.046875 L 34.105469 42.964844 L 28.285156 42.964844 L 28.285156 26.046875 "/>
<path style=" stroke:none;fill-rule:nonzero;fill:rgb(27.799988%,56.098938%,80.39856%);fill-opacity:1;" d="M 425.539063 20.050781 L 426.164063 20.050781 C 426.347656 20.050781 426.523438 19.960938 426.703125 19.960938 C 426.882813 19.871094 426.972656 19.78125 427.0625 19.691406 C 427.152344 19.515625 427.238281 19.335938 427.238281 19.15625 C 427.238281 18.976563 427.238281 18.796875 427.152344 18.617188 C 427.0625 18.527344 426.972656 18.441406 426.882813 18.351563 C 426.703125 18.261719 426.613281 18.261719 426.433594 18.171875 C 426.257813 18.171875 426.078125 18.171875 425.988281 18.171875 L 424.734375 18.171875 L 424.734375 20.050781 Z M 425.898438 17.277344 C 426.433594 17.1875 427.0625 17.367188 427.507813 17.722656 C 427.867188 18.082031 428.046875 18.527344 428.046875 19.066406 C 428.046875 19.515625 427.867188 19.960938 427.597656 20.320313 C 427.238281 20.585938 426.882813 20.765625 426.433594 20.765625 L 428.226563 23.542969 L 427.152344 23.542969 L 425.449219 20.855469 L 424.464844 20.855469 L 424.464844 23.542969 L 423.570313 23.542969 L 423.570313 17.277344 Z M 421.511719 22.199219 C 421.691406 22.734375 422.050781 23.183594 422.40625 23.632813 C 424.105469 25.332031 426.792969 25.421875 428.582031 23.722656 L 428.671875 23.632813 C 429.03125 23.183594 429.390625 22.734375 429.566406 22.199219 C 429.835938 21.574219 429.925781 20.945313 429.925781 20.320313 C 429.925781 19.691406 429.835938 19.15625 429.566406 18.527344 C 429.121094 17.453125 428.3125 16.648438 427.238281 16.113281 C 426.703125 15.84375 426.078125 15.753906 425.539063 15.753906 C 423.75 15.753906 422.140625 16.828125 421.511719 18.527344 C 421.242188 19.066406 421.152344 19.691406 421.152344 20.320313 C 421.242188 20.945313 421.332031 21.574219 421.511719 22.199219 Z M 420.707031 18.261719 C 420.976563 17.632813 421.332031 17.097656 421.871094 16.558594 C 422.40625 16.113281 422.945313 15.664063 423.570313 15.484375 C 426.257813 14.320313 429.390625 15.574219 430.554688 18.261719 C 430.820313 18.886719 431 19.601563 431 20.320313 C 431 21.035156 430.820313 21.75 430.554688 22.46875 C 430.285156 23.09375 429.925781 23.722656 429.390625 24.167969 C 428.941406 24.617188 428.3125 25.0625 427.6875 25.242188 C 426.347656 25.78125 424.914063 25.78125 423.570313 25.242188 C 422.945313 24.972656 422.316406 24.617188 421.871094 24.167969 C 421.421875 23.722656 420.976563 23.09375 420.707031 22.46875 C 420.4375 21.839844 420.257813 21.035156 420.257813 20.320313 C 420.257813 19.601563 420.347656 18.886719 420.707031 18.261719 "/>
</g>
</svg>
