<svg xmlns="http://www.w3.org/2000/svg" viewBox="122.37 95.28 1316.31 290.45"><defs><style>.a{fill:#302d2d;}.b{fill:#16597d;}</style></defs><path class="a" d="M858.8141,195.7385a66.2589,66.2589,0,0,0-16.1343-2h-42a1.9588,1.9588,0,0,0-2,2v140a1.9588,1.9588,0,0,0,2,2h42c35.0449,0,68-28,68-72C910.68,228.604,887.2064,202.8664,858.8141,195.7385Zm-16.1343,122h-22a1.9588,1.9588,0,0,1-2-2v-100a1.9588,1.9588,0,0,1,2-2h22c25.79,0,48,24,48,52S865.7677,317.7385,842.68,317.7385Z"/><path class="a" d="M1067.2519,317.4549a1.9936,1.9936,0,0,0-2.3262-1.3209c-2.6165.5829-7.3328,1.6045-8.2459,1.6045-8,0-8-8-8-8v-114h0a1.9588,1.9588,0,0,0-2-2h-16a1.9588,1.9588,0,0,0-2,2h0v114s0,28,28,28c5.2788,0,11.3462-2.1175,14.26-3.2712a1.9931,1.9931,0,0,0,1.153-2.49Z"/><path class="a" d="M1326.68,241.7385h-16a1.9588,1.9588,0,0,0-2,2v92a1.9588,1.9588,0,0,0,2,2h16a1.9588,1.9588,0,0,0,2-2v-92A1.9588,1.9588,0,0,0,1326.68,241.7385Z"/><path class="a" d="M1318.68,213.75a9.9909,9.9909,0,1,0-10-10A10,10,0,0,0,1318.68,213.75Z"/><path class="a" d="M1007.1728,310.7371l-15.823-4.9988a1.9771,1.9771,0,0,0-2.184.6833,26.9047,26.9047,0,0,1-22.4877,11.3169,27.6046,27.6046,0,0,1-25.8376-17.2109,2.0083,2.0083,0,0,1,1.8446-2.7891h69.5995a2.0136,2.0136,0,0,0,1.9888-1.7678,61.8585,61.8585,0,0,0,.4064-6.2435c0-28-22-48-48-48s-48,20-48,48a47.6509,47.6509,0,0,0,47.9991,48.0113c26.0294,0,36.0228-14.0421,41.6471-24.1212A2.0024,2.0024,0,0,0,1007.1728,310.7371Zm-63.3962-30.9986a2.0086,2.0086,0,0,1-1.771-2.9449,27.7581,27.7581,0,0,1,49.3512.0023,2.0087,2.0087,0,0,1-1.7721,2.9426Z"/><path class="a" d="M1135.91,241.754a47.7984,47.7984,0,0,0-29.2306,8.9946v-7.01a2,2,0,0,0-2-2h-16a2,2,0,0,0-2,2v140a2,2,0,0,0,2,2h16a2,2,0,0,0,2-2v-55.01a47.7752,47.7752,0,0,0,28,9.01c27.1272,0,48-20.6231,48-48C1182.68,263.7385,1161.0453,242.383,1135.91,241.754ZM1134.68,317.75a28,28,0,1,1,28-28A28.0051,28.0051,0,0,1,1134.68,317.75Z"/><path class="a" d="M1242.68,241.7385a47.7753,47.7753,0,0,0-28,9.01v-55.01a1.7472,1.7472,0,0,0-2-2h-16a1.7472,1.7472,0,0,0-2,2v140a1.7471,1.7471,0,0,0,2,2h16a1.7472,1.7472,0,0,0,2-2v-46a28,28,0,1,1,56,0v46a1.7471,1.7471,0,0,0,2,2h16a1.7472,1.7472,0,0,0,2-2v-46A48,48,0,0,0,1242.68,241.7385Z"/><path class="a" d="M1404.6822,289.7385l33.5476-44.73a2.0258,2.0258,0,0,0,.45-1.27,2,2,0,0,0-2-2h-19.0019a1.984,1.984,0,0,0-1.53.72.853.853,0,0,0-.12.16l-23.3425,31.1235-23.3425-31.1235c-.04-.05-.08-.11-.12-.16a2.0043,2.0043,0,0,0-1.54-.72h-18.895a2.0707,2.0707,0,0,0-2.06,1.5516,2.0188,2.0188,0,0,0,.2924,1.5684l.12.15,33.5476,44.73-33.5476,44.73-.12.15a2.0191,2.0191,0,0,0-.2924,1.5685,2.0707,2.0707,0,0,0,2.06,1.5516l18.895,0a2.0042,2.0042,0,0,0,1.54-.72c.04-.05.08-.11.12-.16l23.3425-31.1234,23.3425,31.1234a.85.85,0,0,0,.12.16,1.9839,1.9839,0,0,0,1.53.72H1436.68a1.9994,1.9994,0,0,0,2-2,2.0257,2.0257,0,0,0-.45-1.27Z"/><path class="b" d="M484.8916,287.9377l.3218.3054L449.102,240.5114l35.79-47.4264c15.04-20.4941,25.0372-27.8026,43.5021-34.875a83.5783,83.5783,0,0,0-28.4622-4.8349c-28.1643,0-53.9234,13.51-69.2572,34.675l-10.6177,14.3392L384.084,153.4407A145.8378,145.8378,0,0,0,267.5681,95.2842H209.4772a150.7537,150.7537,0,0,1,29.5183,3.0264,144.4471,144.4471,0,0,1,87.4776,55.6408l64.5381,86.56-64.4153,86.5521-.1228.0079a144.448,144.448,0,0,1-87.4776,55.6408,150.7614,150.7614,0,0,1-29.5183,3.0264h58.0909A145.8376,145.8376,0,0,0,384.084,327.582l35.9726-48.9485,10.6177,14.3391c15.3338,21.1651,41.0929,34.6751,69.2572,34.6751a83.5759,83.5759,0,0,0,28.4622-4.835C509.9288,315.74,499.9315,308.4319,484.8916,287.9377Z"/><path class="b" d="M238.502,322.6724a87.1364,87.1364,0,1,1,0-164.3427,87.1624,87.1624,0,0,0,0,164.3427Z"/><path class="b" d="M703.2289,240.5114A145.1973,145.1973,0,0,1,558.0017,385.7386H499.9363a145.6421,145.6421,0,0,0,29.0533-2.91C594.8471,369.422,644.6122,310.392,645.138,240.5114c-.5258-69.8806-50.3527-128.9088-116.21-142.3158a145.2867,145.2867,0,0,0-29.0169-2.9114h58.0908A145.1972,145.1972,0,0,1,703.2289,240.5114Z"/><path class="b" d="M703.2289,371.1164a14.523,14.523,0,1,1-14.48-14.4336A14.3542,14.3542,0,0,1,703.2289,371.1164Zm-25.4253,0c0,6.4256,4.654,11.5294,11.0322,11.5294,6.2049,0,10.773-5.1038,10.773-11.4416,0-6.4256-4.5681-11.6171-10.86-11.6171S677.8036,364.7786,677.8036,371.1164Z"/><path class="b" d="M688.7618,373.354h-2.28v5.2784h-2.9984V363.4286h6.0815a5.0475,5.0475,0,0,1,5.0613,5.039,4.9523,4.9523,0,0,1-2.9316,4.4308l3.366,5.734h-3.2368Zm-2.28-2.6275h3.0831a2.2565,2.2565,0,0,0,0-4.4966h-3.0831Z"/><path class="b" d="M645.1375,240.5788c.0011.0675.0011-.0034,0-.0777,0,.0288,0,.01,0,.01"/><path class="b" d="M644.7341,240.5788c.0011.0675.0011-.0034,0-.0777Z"/><polyline class="b" points="643.827 240.579 644.735 240.501 644.735 240.511"/><path class="b" d="M644.7346,240.5114l.0011-.0881c0-.0471-.0011-.0536-.0011.0778"/><path class="b" d="M644.7346,240.5011l.0011-.0778C644.7352,240.3762,644.7346,240.37,644.7346,240.5011Z"/><polyline class="b" points="644.735 240.423 645.642 240.501 644.735 240.579 644.735 240.501 644.735 240.511"/><polygon class="b" points="644.735 240.423 645.642 240.501 644.735 240.579 644.735 240.501 644.735 240.423"/><path class="b" d="M644.7346,240.5114s0-.0392.0006-.01c0-.0743,0-.1452-.0006-.0777"/></svg>