<svg xmlns="http://www.w3.org/2000/svg" viewBox="-0.5 7.652830123901367 117.83399963378906 33.59726905822754" fill="none"> <path d="M13.6015 8.15283L0 31.6986H27.203L13.6015 8.15283Z" fill="#002F59"/> <path opacity="0.54" d="M20.0233 11.8735L6.42188 35.4191H33.6248L20.0233 11.8735Z" fill="#FFDE17"/> <path d="M52.7498 9.93652C57.9481 9.93652 60.1708 13.1494 60.1708 16.8407C60.1708 19.7118 58.8029 22.7879 55.2805 23.7792L60.6498 33.0077H56.1697L50.9032 24.0868H44.8842C44.5081 24.0868 44.303 24.2577 44.303 24.6678V33.0077H40.2675V23.8817C40.2675 21.2841 41.3618 20.2245 43.8928 20.2245H52.8867C55.1779 20.2245 56.1012 18.6522 56.1012 17.0116C56.1012 15.371 55.1097 13.9696 52.8867 13.9696H40.2334V9.93655L52.7498 9.93652Z" fill="#002F59"/> <path d="M68.7537 9.93652V33.0077H64.7183V9.93652H68.7537Z" fill="#002F59"/> <path d="M92.1438 9.93655V13.9696H80.3112C78.2254 13.9696 77.3018 15.0976 77.3018 16.704C77.3018 18.1053 78.0203 19.4383 80.7217 19.4383H86.1248C92.4176 19.4383 93.8881 22.9247 93.8881 26.2401C93.8881 30.1365 91.802 33.0077 86.5353 33.0077H73.6771V28.9744H86.6722C88.8608 28.9744 89.8526 27.7782 89.8526 26.1034C89.8526 24.5994 89.0659 23.2323 86.2276 23.2323H80.8586C74.7027 23.2323 73.2666 19.7802 73.2666 16.5674C73.2666 12.7393 75.3183 9.93652 80.4481 9.93652L92.1438 9.93655Z" fill="#002F59"/> <path d="M116.799 9.93652V13.9696H105.24C102.812 13.9696 101.752 15.0976 101.752 16.8748C101.752 18.7548 102.949 19.6093 105.275 19.6093H116.628V23.2664H105.172C102.847 23.2664 101.65 24.1893 101.65 26.0692C101.65 27.8807 102.778 28.9744 105.138 28.9744H116.834V33.0077H105.138C99.6664 33.0077 97.4434 30.3075 97.4434 26.7185C97.4434 24.0868 98.6405 22.3095 100.761 21.4208C98.6061 20.5321 97.5115 18.7548 97.5115 16.2255C97.5115 12.5341 99.803 9.93652 105.24 9.93652H116.799Z" fill="#002F59"/> <path d="M42.5639 36.1392C43.3546 36.1392 43.6929 36.628 43.6929 37.1893C43.6929 37.6261 43.4846 38.0939 42.949 38.2449L43.7654 39.6484H43.0842L42.2831 38.2917H41.3676C41.3104 38.2917 41.2792 38.3174 41.2792 38.3797V39.6484H40.6656V38.2602C40.6656 37.8652 40.832 37.7038 41.2168 37.7038H42.585C42.9334 37.7038 43.0738 37.4647 43.0738 37.2153C43.0738 36.9658 42.923 36.7527 42.585 36.7527H40.6602V36.1392H42.5639Z" fill="#002F59"/> <path d="M44.9972 36.1392V39.6484H44.3833V36.1392H44.9972Z" fill="#002F59"/> <path d="M48.5544 36.1392V36.7527H46.7546C46.4374 36.7527 46.2967 36.9239 46.2967 37.1685C46.2967 37.3816 46.4059 37.5843 46.8167 37.5843H47.6389C48.596 37.5843 48.8196 38.1147 48.8196 38.6188C48.8196 39.2116 48.5021 39.6484 47.7013 39.6484H45.7452V39.0349H47.7221C48.0549 39.0349 48.2057 38.853 48.2057 38.598C48.2057 38.3693 48.0861 38.1614 47.6542 38.1614H46.8378C45.9015 38.1614 45.6831 37.6362 45.6831 37.1477C45.6831 36.5653 45.9951 36.1392 46.7751 36.1392H48.5544Z" fill="#002F59"/> <path d="M52.2932 36.1392V36.7527H50.9354C50.2591 36.7527 49.9627 37.0902 49.9627 37.8961C49.9627 38.697 50.2539 39.0349 50.9354 39.0349H52.2932V39.6484H50.9354C49.9107 39.6484 49.3491 39.0712 49.3491 37.8961C49.3491 36.7163 49.9159 36.1392 50.9354 36.1392H52.2932Z" fill="#002F59"/> <path d="M54.4039 37.7354V38.2655H52.5469V37.7354H54.4039Z" fill="#002F59"/> <path d="M55.074 36.1392L56.1405 38.9621C56.1717 39.0453 56.2289 39.0816 56.3121 39.0816C56.3953 39.0816 56.4473 39.0453 56.4837 38.9621L57.602 36.1392H58.2835L57.0456 39.2583C56.9153 39.5858 56.6761 39.7108 56.3121 39.7108C55.9689 39.7108 55.7034 39.6016 55.5734 39.2583L54.3979 36.1392H55.074Z" fill="#002F59"/> <path d="M62.9013 36.1392V36.7527H61.1013C60.7841 36.7527 60.6437 36.9239 60.6437 37.1685C60.6437 37.3816 60.7529 37.5843 61.1637 37.5843H61.9859C62.9427 37.5843 63.1665 38.1147 63.1665 38.6188C63.1665 39.2116 62.8491 39.6484 62.0483 39.6484H60.0922V39.0349H62.0691C62.4019 39.0349 62.5527 38.853 62.5527 38.598C62.5527 38.3693 62.4331 38.1614 62.0015 38.1614H61.1845C60.2482 38.1614 60.0298 37.6362 60.0298 37.1477C60.0298 36.5653 60.3418 36.1392 61.1224 36.1392H62.9013Z" fill="#002F59"/> <path d="M65.4538 36.9033C66.1821 36.9033 66.6449 37.3503 66.6449 38.2757C66.6449 39.2011 66.1821 39.6483 65.4538 39.6483H64.8766C64.1431 39.6483 63.6855 39.2011 63.6855 38.2757C63.6855 37.3503 64.1431 36.9033 64.8766 36.9033H65.4538ZM64.9283 37.4334C64.4499 37.4334 64.2417 37.6829 64.2417 38.2757C64.2417 38.8684 64.4499 39.1127 64.9283 39.1127H65.4018C65.8753 39.1127 66.0885 38.8684 66.0885 38.2757C66.0885 37.6829 65.8753 37.4334 65.4018 37.4334H64.9283Z" fill="#002F59"/> <path d="M67.4032 36.9033V36.6588C67.4032 35.9416 67.6476 35.7129 68.2147 35.7129H68.7087V36.217H68.3291C68.0688 36.217 67.9596 36.321 67.9596 36.6279V36.9033H68.7191V37.4334H67.9596V39.6483H67.4032V37.4334H67.0288V36.9033H67.4032Z" fill="#002F59"/> <path d="M69.4572 36.9034V36.2534H70.0139V36.9034H70.7731V37.4335H70.0139V38.7333C70.0139 39.04 70.1231 39.1439 70.3831 39.1439H70.763V39.6483H70.2687C69.7016 39.6483 69.4572 39.4194 69.4572 38.7022V37.4335H69.0825V36.9034H69.4572Z" fill="#002F59"/> <path d="M71.7713 36.9033L72.016 39.0452C72.0313 39.1647 72.0833 39.2219 72.2133 39.2219C72.3384 39.2219 72.3901 39.1699 72.4161 39.0711L72.8064 37.4075C72.8896 37.0437 73.1236 36.8511 73.5607 36.8511C73.9975 36.8511 74.2107 37.0437 74.2939 37.4075L74.6634 39.0711C74.6842 39.1699 74.7466 39.2219 74.8714 39.2219C74.9962 39.2219 75.043 39.1647 75.0589 39.0452L75.3449 36.9033H75.9429L75.6361 39.0763C75.5841 39.456 75.3654 39.7107 74.8662 39.7107C74.4398 39.7107 74.2107 39.5233 74.1275 39.1439L73.7583 37.475C73.7375 37.3815 73.6595 37.3399 73.5555 37.3399C73.4463 37.3399 73.3735 37.3815 73.3524 37.475L72.9624 39.1439C72.874 39.5233 72.64 39.7107 72.2029 39.7107C71.6933 39.7107 71.511 39.456 71.4593 39.0763L71.1733 36.9033H71.7713Z" fill="#002F59"/> <path d="M78.2512 36.9033C78.9376 36.9033 79.208 37.2879 79.208 37.8079V39.0971C79.208 39.4924 79.1043 39.6483 78.6412 39.6483H77.3565C76.7062 39.6483 76.4355 39.331 76.4355 38.811C76.4355 38.312 76.6854 38.021 77.3614 38.021H78.6672V37.8128C78.6672 37.5997 78.5476 37.4334 78.2457 37.4334H76.6022V36.9033H78.2512ZM78.6672 38.9724V38.4579H77.3721C77.0806 38.4579 76.9766 38.5774 76.9766 38.7801C76.9766 38.9828 77.0858 39.1127 77.3614 39.1127H78.5161C78.6253 39.1127 78.6672 39.0711 78.6672 38.9724Z" fill="#002F59"/> <path d="M81.8542 36.9033V37.4334H80.887C80.6423 37.4334 80.5331 37.5478 80.5331 37.7871V39.6483H79.9819V37.7037C79.9819 37.1528 80.1847 36.9033 80.7255 36.9033H81.8542Z" fill="#002F59"/> <path d="M84.184 36.9033C84.8343 36.9033 85.1099 37.2152 85.1099 37.7456C85.1099 38.2497 84.8551 38.5355 84.1788 38.5355H82.8733V38.7333C82.8733 38.9516 82.9929 39.1127 83.2948 39.1127H84.9747V39.6483H83.2948C82.6081 39.6483 82.3374 39.2634 82.3374 38.7437V37.8079C82.3374 37.2879 82.6081 36.9033 83.2948 36.9033H84.184ZM82.8733 38.1042H84.1632C84.4599 38.1042 84.5691 37.9794 84.5691 37.7764C84.5691 37.5688 84.4495 37.4334 84.1788 37.4334H83.2948C82.9929 37.4334 82.8733 37.5997 82.8733 37.8128V38.1042Z" fill="#002F59"/> <path d="M90.008 36.1392V36.7527H88.2501C87.8807 36.7527 87.7194 36.9239 87.7194 37.1945C87.7194 37.4803 87.9014 37.6102 88.255 37.6102H89.982V38.1666H88.2397C87.8859 38.1666 87.7039 38.307 87.7039 38.5931C87.7039 38.8685 87.8755 39.0349 88.2343 39.0349H90.0132V39.6484H88.2343C87.402 39.6484 87.064 39.2375 87.064 38.6916C87.064 38.2917 87.246 38.0211 87.5684 37.8857C87.2411 37.7509 87.0744 37.4803 87.0744 37.0957C87.0744 36.5344 87.4231 36.1392 88.2501 36.1392H90.008Z" fill="#002F59"/> <path d="M93.2527 36.9033V37.4334H91.8901C91.4114 37.4334 91.2034 37.6829 91.2034 38.2757C91.2034 38.8684 91.4114 39.1127 91.8901 39.1127H93.2527V39.6483H91.8381C91.1049 39.6483 90.647 39.2011 90.647 38.2757C90.647 37.3503 91.1049 36.9033 91.8381 36.9033H93.2527Z" fill="#002F59"/> <path d="M95.5459 36.9033C96.2739 36.9033 96.737 37.3503 96.737 38.2757C96.737 39.2011 96.2739 39.6483 95.5459 39.6483H94.9684C94.2349 39.6483 93.7773 39.2011 93.7773 38.2757C93.7773 37.3503 94.2349 36.9033 94.9684 36.9033H95.5459ZM95.0201 37.4334C94.5417 37.4334 94.3337 37.6829 94.3337 38.2757C94.3337 38.8684 94.5417 39.1127 95.0201 39.1127H95.4936C95.9671 39.1127 96.1803 38.8684 96.1803 38.2757C96.1803 37.6829 95.9671 37.4334 95.4936 37.4334H95.0201Z" fill="#002F59"/> <path d="M99.685 36.9033V37.4334H98.166C97.9112 37.4334 97.8072 37.5374 97.8072 37.7456C97.8072 37.9379 97.8904 38.0418 98.1972 38.0418H98.8423C99.6018 38.0418 99.7942 38.39 99.7942 38.8165C99.7942 39.305 99.5394 39.6483 98.8943 39.6483H97.2973V39.1127H98.8943C99.1491 39.1127 99.2531 39.0244 99.2531 38.811C99.2531 38.593 99.1387 38.5043 98.8631 38.5043H98.2128C97.4533 38.5043 97.2661 38.1249 97.2661 37.7037C97.2661 37.2102 97.5212 36.9033 98.1608 36.9033H99.685Z" fill="#002F59"/> <path d="M103.315 36.9033L101.661 40.7501H101.068L101.583 39.5493C101.271 39.5493 101.162 39.4505 101.068 39.2114L100.147 36.9033H100.73L101.557 38.9464C101.593 39.0451 101.619 39.0607 101.723 39.0607H101.796L102.727 36.9033H103.315Z" fill="#002F59"/> <path d="M106.009 36.9033V37.4334H104.49C104.235 37.4334 104.131 37.5374 104.131 37.7456C104.131 37.9379 104.214 38.0418 104.521 38.0418H105.166C105.925 38.0418 106.117 38.39 106.117 38.8165C106.117 39.305 105.863 39.6483 105.218 39.6483H103.621V39.1127H105.218C105.473 39.1127 105.576 39.0244 105.576 38.811C105.576 38.593 105.462 38.5043 105.187 38.5043H104.536C103.777 38.5043 103.589 38.1249 103.589 37.7037C103.589 37.2102 103.844 36.9033 104.484 36.9033H106.009Z" fill="#002F59"/> <path d="M106.865 36.9034V36.2534H107.422V36.9034H108.181V37.4335H107.422V38.7333C107.422 39.04 107.531 39.1439 107.791 39.1439H108.171V39.6483H107.677C107.11 39.6483 106.865 39.4194 106.865 38.7022V37.4335H106.491V36.9034H106.865Z" fill="#002F59"/> <path d="M110.506 36.9033C111.156 36.9033 111.432 37.2152 111.432 37.7456C111.432 38.2497 111.177 38.5355 110.501 38.5355H109.195V38.7333C109.195 38.9516 109.315 39.1127 109.617 39.1127H111.296V39.6483H109.617C108.93 39.6483 108.659 39.2634 108.659 38.7437V37.8079C108.659 37.2879 108.93 36.9033 109.617 36.9033H110.506ZM109.195 38.1042H110.485C110.782 38.1042 110.891 37.9794 110.891 37.7764C110.891 37.5688 110.771 37.4334 110.501 37.4334H109.617C109.315 37.4334 109.195 37.5997 109.195 37.8128V38.1042Z" fill="#002F59"/> <path d="M115.316 36.9033C116.248 36.9033 116.705 37.3451 116.705 38.1042V39.6483H116.148V38.1042C116.148 37.6725 115.899 37.4334 115.322 37.4334H114.676V39.6483H114.12V37.4334H112.726C112.679 37.4334 112.658 37.4597 112.658 37.5114V39.6483H112.107V37.3298C112.107 37.007 112.216 36.9033 112.492 36.9033H115.316Z" fill="#002F59"/> </svg>