<svg width="240" height="69" viewBox="0 0 240 69" fill="none" xmlns="http://www.w3.org/2000/svg">
<g clip-path="url(#clip0_406_122)">
<path d="M37.5174 4.52679V46.1961C37.5225 47.4511 37.1306 48.6762 36.3968 49.6996C35.6629 50.7229 34.624 51.4931 33.4257 51.9022C29.433 53.2198 25.2551 53.9041 21.0466 53.9297C8.51394 53.9297 0 46.9303 0 34.202C0 21.7933 9.31691 14.0787 20.7277 14.0787C21.7036 14.0787 22.6027 14.113 23.4441 14.189C24.077 14.2466 24.715 14.173 25.3176 13.973C25.9202 13.7729 26.4741 13.4508 26.944 13.027C27.4139 12.6033 27.7895 12.0873 28.0468 11.5119C28.3042 10.9365 28.4376 10.3143 28.4387 9.68506V4.41648C28.4387 3.24648 28.9076 2.12428 29.7424 1.29625C30.5773 0.468215 31.7099 0.00201551 32.8916 0H33.0146C34.2142 0.0209073 35.3577 0.506698 36.1995 1.35306C37.0414 2.19942 37.5146 3.33888 37.5174 4.52679ZM28.4387 41.3726V26.769C28.4378 25.7069 28.0604 24.6788 27.3723 23.8641C26.6842 23.0493 25.7291 22.4995 24.6735 22.3106C23.4751 22.1132 22.2614 22.0215 21.0466 22.0367C14.3 22.0367 9.23623 26.7271 9.23623 34.0461C9.23623 41.4449 13.9773 46.0592 20.8853 46.0592C22.094 46.0981 23.3039 46.0307 24.5006 45.8576C25.5917 45.7031 26.5902 45.1649 27.3133 44.3413C28.0365 43.5177 28.4359 42.4639 28.4387 41.3726V41.3726Z" fill="#1485EA"/>
<path d="M45.5508 33.9663C45.5508 22.2727 54.1454 13.9229 65.879 13.9229C77.6125 13.9229 85.8806 22.1928 85.8806 33.9663C85.8806 45.58 77.2859 53.9336 65.5562 53.9336C53.8265 53.9336 45.5508 45.7398 45.5508 33.9663ZM76.7211 33.9663C76.7211 26.7386 72.5449 21.7173 65.7176 21.7173C58.8903 21.7173 54.7102 26.7272 54.7102 33.9663C54.7102 41.1293 58.8865 46.0593 65.7176 46.0593C72.5487 46.0593 76.7211 41.1331 76.7211 33.9663Z" fill="#1485EA"/>
<path d="M131.274 33.7304C131.274 46.5348 121.715 53.9336 111.107 53.9336C109.955 53.9336 108.871 53.8918 107.857 53.8005C107.231 53.7429 106.6 53.815 106.004 54.0124C105.408 54.2098 104.86 54.528 104.395 54.9468C103.93 55.3656 103.559 55.8757 103.304 56.4447C103.049 57.0137 102.917 57.6289 102.916 58.2512V63.4399C102.915 64.6099 102.445 65.7317 101.61 66.559C100.774 67.3864 99.6411 67.8516 98.4594 67.8526H98.2865C97.1055 67.8496 95.9739 67.3829 95.1398 66.555C94.3058 65.7271 93.8374 64.6055 93.8374 63.4361V22.8737C93.8357 21.8268 94.1093 20.7974 94.6314 19.8869C95.1535 18.9764 95.9061 18.2163 96.815 17.6812C101.049 15.2213 105.868 13.9239 110.777 13.9229C122.438 13.9229 131.274 20.6826 131.274 33.7304ZM122.115 33.8902C122.115 26.5712 117.374 22.1928 110.385 22.1928C109.002 22.1853 107.625 22.3541 106.286 22.6949C105.318 22.9461 104.462 23.5083 103.852 24.2932C103.243 25.0781 102.913 26.0413 102.916 27.0315V41.1635C102.917 42.2133 103.289 43.2296 103.968 44.0363C104.647 44.8429 105.589 45.389 106.631 45.58C107.899 45.8033 109.186 45.9103 110.473 45.8995C117.374 45.8995 122.115 41.3651 122.115 33.9054V33.8902Z" fill="#1485EA"/>
<path d="M139.47 4.46985C139.458 3.57315 139.714 2.69304 140.207 1.9408C140.701 1.18857 141.408 0.597983 142.24 0.243746C143.072 -0.110491 143.991 -0.212476 144.882 -0.0493229C145.773 0.11383 146.595 0.534801 147.244 1.16036C147.892 1.78591 148.34 2.58795 148.528 3.46507C148.717 4.3422 148.639 5.25501 148.303 6.08807C147.968 6.92114 147.391 7.63706 146.644 8.1453C145.898 8.65354 145.016 8.93128 144.111 8.94339C143.509 8.95346 142.911 8.84551 142.351 8.62576C141.792 8.40601 141.281 8.07881 140.85 7.66299C140.418 7.24718 140.074 6.75098 139.838 6.20296C139.601 5.65493 139.476 5.06593 139.47 4.46985V4.46985ZM139.55 48.3988V19.0165C139.545 17.8389 140.01 16.7071 140.844 15.8677C141.679 15.0283 142.814 14.5494 144.003 14.5353H144.176C145.365 14.5484 146.5 15.0264 147.335 15.8652C148.169 16.704 148.634 17.8355 148.629 19.0127V48.4026C148.635 49.5801 148.17 50.7121 147.336 51.5511C146.501 52.3901 145.365 52.8679 144.176 52.8799H144.003C142.814 52.8649 141.679 52.3857 140.846 51.5465C140.012 50.7073 139.546 49.576 139.55 48.3988V48.3988Z" fill="#1485EA"/>
<path d="M194.826 29.5917V48.6537C194.823 49.8364 194.349 50.9703 193.508 51.8097C192.666 52.6492 191.525 53.1266 190.33 53.1387H190.161C188.967 53.1276 187.825 52.6505 186.983 51.8108C186.141 50.9711 185.668 49.8367 185.666 48.6537V31.741C185.666 24.8215 182.293 22.1929 176.445 22.1929C174.701 22.1967 172.966 22.4413 171.289 22.9194C170.344 23.1874 169.513 23.7531 168.921 24.5308C168.33 25.3086 168.011 26.2559 168.012 27.2294V48.6537C168.009 49.837 167.535 50.9715 166.693 51.811C165.851 52.6506 164.708 53.1276 163.513 53.1387H163.386C162.801 53.1407 162.221 53.0285 161.68 52.8086C161.138 52.5887 160.646 52.2653 160.23 51.857C159.815 51.4486 159.485 50.9633 159.259 50.4287C159.033 49.8941 158.916 49.3207 158.914 48.7412V23.0564C158.91 22.0008 159.186 20.9627 159.716 20.0465C160.245 19.1303 161.009 18.3684 161.93 17.8373C166.581 15.2604 171.823 13.9124 177.152 13.9229C189.443 13.9229 194.826 20.9223 194.826 29.5917Z" fill="#1485EA"/>
<path d="M236.796 17.084C232.746 14.9992 228.247 13.9146 223.683 13.9229C212.034 13.9229 202.875 21.6375 202.875 33.4908C202.875 45.2643 211.953 51.9442 222.961 51.9442C224.675 51.9522 226.384 51.749 228.048 51.3393V51.3698C228.048 51.3698 230.795 50.3503 230.837 52.568C230.683 57.4638 227.613 61.0929 220.648 61.0929C216.233 61.0929 213.021 59.8071 210.566 57.8252C209.757 57.1878 208.728 56.8901 207.7 56.9961C206.672 57.1021 205.727 57.6033 205.068 58.392V58.4148C204.728 58.8115 204.472 59.2723 204.316 59.7695C204.16 60.2667 204.108 60.79 204.161 61.3079C204.215 61.8257 204.374 62.3274 204.629 62.7828C204.884 63.2381 205.23 63.6376 205.645 63.9573C209.387 66.8255 214.562 68.5564 220.955 68.5564C232.043 68.5564 239.996 62.0325 239.996 51.1339V22.4021C240.002 21.3112 239.707 20.2395 239.143 19.3024C238.579 18.3653 237.767 17.5983 236.796 17.084V17.084ZM223.764 44.4731C217.017 44.4731 212.115 40.2544 212.115 33.3349C212.115 26.3354 217.109 21.801 223.764 21.801C225.117 21.7915 226.467 21.9539 227.779 22.2842C228.658 22.5091 229.436 23.0167 229.993 23.7272C230.549 24.4377 230.851 25.3109 230.852 26.2099V40.0642C230.857 40.9386 230.573 41.7906 230.045 42.4914C229.517 43.1921 228.772 43.7035 227.925 43.9481C226.57 44.3137 225.171 44.4892 223.767 44.4692L223.764 44.4731Z" fill="#1485EA"/>
<path d="M119.633 60.0051H117.777V67.6436C117.553 67.6953 117.324 67.7183 117.094 67.712C116.864 67.717 116.634 67.694 116.41 67.6436V60.0051H114.554C114.509 59.8051 114.485 59.6012 114.481 59.3964C114.483 59.1878 114.508 58.9799 114.554 58.7764H119.633C119.678 58.9801 119.701 59.1879 119.702 59.3964C119.7 59.6011 119.677 59.805 119.633 60.0051V60.0051Z" fill="#859AAA"/>
<path d="M126.876 67.0235C126.88 67.2323 126.857 67.4407 126.806 67.6436H122.58V58.7764H126.722C126.768 58.9799 126.793 59.1878 126.795 59.3964C126.792 59.6013 126.768 59.8053 126.722 60.0051H123.944V62.4777H126.43C126.47 62.6781 126.489 62.882 126.487 63.0863C126.49 63.2906 126.47 63.4946 126.43 63.695H123.944V66.4149H126.822C126.867 66.6144 126.885 66.8191 126.876 67.0235V67.0235Z" fill="#859AAA"/>
<path d="M129.457 63.1966C129.457 60.724 130.544 58.5252 132.707 58.5252C133.073 58.5195 133.436 58.5878 133.775 58.7258C134.113 58.8638 134.419 59.0687 134.675 59.3279C134.609 59.5329 134.502 59.7228 134.361 59.8862C134.22 60.0496 134.047 60.1832 133.852 60.2789C133.712 60.1288 133.541 60.0096 133.351 59.929C133.161 59.8484 132.956 59.8082 132.75 59.811C131.451 59.811 130.921 61.4696 130.921 63.1966C130.921 64.9236 131.451 66.5936 132.75 66.5936C132.98 66.6089 133.21 66.5693 133.421 66.4779C133.633 66.3865 133.819 66.2462 133.964 66.0686C134.159 66.1637 134.333 66.2975 134.475 66.4617C134.616 66.6259 134.722 66.8171 134.786 67.0234C134.525 67.304 134.205 67.5246 133.848 67.6699C133.492 67.8151 133.108 67.8814 132.723 67.8641C130.475 67.8641 129.457 65.6844 129.457 63.1966Z" fill="#859AAA"/>
<path d="M143.008 58.7759V67.643C142.792 67.6879 142.572 67.7108 142.351 67.7115C142.116 67.7087 141.882 67.6858 141.652 67.643V63.7477H139.001V67.643C138.775 67.6873 138.546 67.7102 138.317 67.7115C138.087 67.7087 137.858 67.6858 137.633 67.643V58.7759C137.853 58.7239 138.079 58.6996 138.305 58.7036C138.539 58.6994 138.773 58.7237 139.001 58.7759V62.5038H141.652V58.7759C141.877 58.7307 142.106 58.7065 142.336 58.7036C142.561 58.7067 142.787 58.7309 143.008 58.7759Z" fill="#859AAA"/>
<path d="M151.925 58.7761V67.5748C151.434 67.6774 150.932 67.7195 150.431 67.7003L148.002 61.8535L147.722 60.9862L147.78 61.9106V67.6433C147.57 67.6942 147.354 67.7172 147.138 67.7117C146.917 67.7157 146.696 67.6927 146.481 67.6433V58.856C146.968 58.7284 147.474 58.6872 147.976 58.7342L150.404 64.5772L150.669 65.338L150.611 64.4707V58.7647C150.822 58.7208 151.037 58.6966 151.253 58.6924C151.479 58.6995 151.704 58.7275 151.925 58.7761V58.7761Z" fill="#859AAA"/>
<path d="M155.022 63.1963C155.022 60.6818 156.082 58.5249 158.315 58.5249C160.547 58.5249 161.607 60.6552 161.607 63.1963C161.607 65.7373 160.547 67.8638 158.315 67.8638C156.082 67.8638 155.022 65.7259 155.022 63.1963ZM160.132 63.1963C160.132 61.4122 159.613 59.7954 158.315 59.7954C157.016 59.7954 156.497 61.4122 156.497 63.1963C156.497 64.9803 157.016 66.5932 158.311 66.5932C159.606 66.5932 160.132 64.9651 160.132 63.1963V63.1963Z" fill="#859AAA"/>
<path d="M168.811 67.023C168.809 67.2314 168.785 67.4391 168.742 67.6431H164.708V58.7759C164.933 58.7312 165.162 58.707 165.392 58.7036C165.622 58.7062 165.851 58.7304 166.076 58.7759V66.4144H168.742C168.787 66.6143 168.81 66.8183 168.811 67.023V67.023Z" fill="#859AAA"/>
<path d="M170.917 63.1963C170.917 60.6818 171.977 58.5249 174.209 58.5249C176.441 58.5249 177.506 60.6552 177.506 63.1963C177.506 65.7373 176.445 67.8638 174.209 67.8638C171.973 67.8638 170.917 65.7259 170.917 63.1963ZM176.026 63.1963C176.026 61.4122 175.508 59.7954 174.209 59.7954C172.91 59.7954 172.396 61.4122 172.396 63.1963C172.396 64.9803 172.914 66.5932 174.209 66.5932C175.504 66.5932 176.026 64.9651 176.026 63.1963V63.1963Z" fill="#859AAA"/>
<path d="M185.792 62.8654V67.1335C185.16 67.6317 184.368 67.8906 183.56 67.8638C181.328 67.8638 180.241 65.7526 180.241 63.2077C180.241 60.6628 181.37 58.525 183.545 58.525C183.923 58.5149 184.298 58.5793 184.651 58.7145C185.003 58.8497 185.324 59.0529 185.597 59.3124C185.537 59.5219 185.434 59.717 185.296 59.8858C185.157 60.0546 184.985 60.1934 184.79 60.2938C184.633 60.133 184.444 60.0069 184.235 59.9236C184.026 59.8404 183.801 59.8019 183.576 59.8107C182.262 59.8107 181.72 61.4541 181.72 63.2077C181.72 64.9614 182.15 66.5933 183.587 66.5933C183.901 66.6047 184.213 66.538 184.494 66.3993V64.1891H183.422C183.345 63.7512 183.345 63.3033 183.422 62.8654H185.792Z" fill="#859AAA"/>
<path d="M191.767 64.3833V67.6434C191.542 67.6877 191.313 67.7106 191.083 67.7119C190.854 67.709 190.625 67.6861 190.399 67.6434V64.3377L188.094 58.799C188.395 58.7293 188.703 58.6923 189.012 58.6887C189.214 58.6875 189.416 58.7015 189.616 58.7306L190.98 62.4471L191.149 62.9721L191.302 62.4471L192.612 58.7306C192.806 58.6959 193.003 58.6818 193.2 58.6887C193.487 58.6924 193.772 58.7295 194.049 58.799L191.767 64.3833Z" fill="#859AAA"/>
</g>
<defs>
<clipPath id="clip0_406_122">
<rect width="240" height="68.5714" fill="white"/>
</clipPath>
</defs>
</svg>
