<?xml version="1.0" encoding="UTF-8" standalone="no"?>
<!DOCTYPE svg PUBLIC "-//W3C//DTD SVG 1.1//EN" "http://www.w3.org/Graphics/SVG/1.1/DTD/svg11.dtd">
<svg width="100%" height="100%" viewBox="0 0 680 100" version="1.1" xmlns="http://www.w3.org/2000/svg" xmlns:xlink="http://www.w3.org/1999/xlink" xml:space="preserve" xmlns:serif="http://www.serif.com/" style="fill-rule:evenodd;clip-rule:evenodd;stroke-linejoin:round;stroke-miterlimit:2;">
    <g transform="matrix(1,0,0,1,-160,-450)">
        <g transform="matrix(1,0,0,1,-0.710949,-0.515178)">
            <g>
                <path d="M350.8,500.1C350.6,514.1 342.1,528.1 323,528.1C303.9,528.1 295.1,514.4 295.1,500.2C295.1,486 304.2,471.6 323,471.6C341.7,471.6 350.9,486 350.8,500.1ZM305.2,500.4C305.4,509.3 310.2,518.8 323,518.8C335.8,518.8 340.6,509.2 340.7,500.3C340.9,491.2 335.7,480.9 323,480.9C310.2,480.9 305,491.2 305.2,500.4Z" style="fill:white;fill-rule:nonzero;"/>
                <path d="M357.6,543L357.6,488.8L366.4,488.8L367,494.1C369.9,489.8 375.1,488 379.4,488C391.2,488 399,496.7 399,508C399,519.1 392,528 379.7,528C375.7,528 369.7,526.8 367,522.6L367,543L357.6,543ZM389.6,507.9C389.6,501.9 385.6,497.1 378.8,497.1C372,497.1 368,502 368,507.9C368,513.9 372.4,518.7 378.8,518.7C385.2,518.7 389.6,513.8 389.6,507.9Z" style="fill:white;fill-rule:nonzero;"/>
                <path d="M414,511.2C414.6,515.9 418.7,519.3 425.4,519.3C428.9,519.3 433.5,518 435.6,515.7L441.6,521.7C437.6,525.9 431,527.9 425.2,527.9C412,527.9 404.2,519.8 404.2,507.5C404.2,495.9 412.1,487.5 424.5,487.5C437.3,487.5 445.2,495.4 443.8,511.1L414,511.1L414,511.2ZM434.8,503.4C434.2,498.4 430.3,496 424.9,496C419.8,496 415.6,498.5 414.2,503.4L434.8,503.4Z" style="fill:white;fill-rule:nonzero;"/>
                <path d="M479.2,527L479.2,506.9C479.2,501.1 476,496.7 470,496.7C464.2,496.7 460.2,501.6 460.2,507.4L460.2,526.9L450.8,526.9L450.8,488.7L459.2,488.7L459.8,493.9C463.7,490.1 467.5,488.2 472.3,488.2C481.3,488.2 488.5,494.9 488.5,506.9L488.5,527L479.2,527Z" style="fill:white;fill-rule:nonzero;"/>
                <path d="M561,507.8C561,496.3 569.7,488.1 580.4,488.1C591.2,488.1 600.8,494.7 599.3,509.6L564.8,509.6C565.6,518.6 572.5,523.8 580.4,523.8C585.4,523.8 591.3,521.8 594.2,518L596.9,520.2C593.2,525.1 586.5,527.6 580.4,527.6C569.7,527.5 561,520 561,507.8ZM596,506.2C595.9,496.8 589.7,491.5 580.5,491.5C572.6,491.5 565.8,496.8 564.9,506.2L596,506.2Z" style="fill:white;fill-rule:nonzero;"/>
                <rect x="547.8" y="472.7" width="3.8" height="54.2" style="fill:white;fill-rule:nonzero;"/>
                <path d="M662.5,527L662.5,504C662.5,496.6 657.5,491.5 650.3,491.5C643,491.5 638,496.9 638,504.3L638,527L634.2,527L634.2,504.3C634.2,496.9 629.2,491.6 621.9,491.6C614.6,491.6 609.7,496.9 609.7,504.3L609.7,527L605.9,527L605.9,488.8L609.5,488.8L609.6,495.1C612.2,490.1 617.1,488 622.1,488C627.9,488 634,490.6 636.3,497.4C638.6,491.1 644.6,488 650.5,488C659.9,488 666.5,494.6 666.5,504.1L666.5,527L662.5,527Z" style="fill:white;fill-rule:nonzero;"/>
                <path d="M674.8,507.8C674.8,496.3 683.5,488.1 694.2,488.1C705,488.1 714.6,494.7 713.1,509.6L678.6,509.6C679.4,518.6 686.3,523.8 694.2,523.8C699.2,523.8 705.1,521.8 708,518L710.7,520.2C707,525.1 700.3,527.6 694.2,527.6C683.5,527.5 674.8,520 674.8,507.8ZM709.7,506.2C709.6,496.8 703.4,491.5 694.2,491.5C686.3,491.5 679.5,496.8 678.6,506.2L709.7,506.2Z" style="fill:white;fill-rule:nonzero;"/>
                <path d="M726.7,488.7L726.7,495.5C729.6,490.2 735,488.1 740.3,488C750.5,488 757.6,494.3 757.6,504.9L757.6,527L753.8,527L753.8,505C753.8,496.3 748.5,491.7 740.2,491.8C732.3,491.9 726.8,497.8 726.8,505.7L726.8,527L723,527L723,488.8L726.7,488.8L726.7,488.7Z" style="fill:white;fill-rule:nonzero;"/>
                <path d="M774.6,477.1L774.6,488.6L787.6,488.6L787.6,491.8L774.6,491.8L774.6,515.1C774.6,520.3 775.7,523.9 781.6,523.9C783.5,523.9 785.5,523.3 787.5,522.4L788.8,525.5C786.4,526.7 784,527.4 781.6,527.4C773.5,527.4 770.8,522.6 770.8,515.1L770.8,491.8L762.7,491.8L762.7,488.6L770.8,488.6L770.8,477.5L774.6,477.1Z" style="fill:white;fill-rule:nonzero;"/>
                <path d="M822.6,495.6C818.7,492.2 814.9,491.6 810.7,491.6C804.7,491.5 799,493.8 799.2,498.6C799.4,503.7 806,504.7 810.8,505.6C817.6,506.8 827,507.9 826.6,516.8C826.4,525.2 817.6,527.5 810.9,527.5C804.2,527.5 797.5,524.9 794.2,519.8L797,517.3C800.2,521.9 805.9,523.8 811,523.8C815.6,523.8 822.7,522.6 822.9,516.5C823.1,511 816.7,509.9 810.4,508.9C803,507.7 795.6,506.3 795.5,498.6C795.4,491.1 802.9,487.8 810.7,487.9C816.3,487.9 821.2,489.4 824.9,493L822.6,495.6Z" style="fill:white;fill-rule:nonzero;"/>
                <g>
                    <path d="M500.5,472.5L500.5,476.5L538.8,476.5L538.8,472.5L500.5,472.5Z" style="fill:white;fill-rule:nonzero;"/>
                    <rect x="500.5" y="522.7" width="38.3" height="4" style="fill:white;fill-rule:nonzero;"/>
                    <rect x="500.5" y="497.5" width="38.3" height="3.8" style="fill:white;fill-rule:nonzero;"/>
                </g>
            </g>
        </g>
        <g transform="matrix(1,0,0,1,-0.710949,-0.515178)">
            <path d="M215.2,522.4L249.7,522.4C252.6,518.1 254.8,513.3 255.9,508L236.8,508C233.3,516.5 224.9,522.4 215.2,522.4Z" style="fill:white;fill-rule:nonzero;"/>
            <path d="M215.2,475.4C224.9,475.4 233.3,481.3 236.8,489.8L255.9,489.8C254.7,484.6 252.6,479.7 249.7,475.4L215.2,475.4Z" style="fill:white;fill-rule:nonzero;"/>
            <path d="M215.2,522.4C202.2,522.4 191.7,511.9 191.7,498.9C191.7,485.9 202.2,475.4 215.2,475.4L213.3,475.4L213.3,457.2C191.2,458.2 173.5,476.5 173.5,498.9C173.5,521.3 191.2,539.6 213.3,540.6L213.3,522.4L215.2,522.4Z" style="fill:white;fill-rule:nonzero;"/>
            <path d="M213.3,457.1L215.2,457.1L213.3,457.1Z" style="fill:white;fill-rule:nonzero;"/>
            <path d="M249.7,475.4L280.8,475.4L280.8,457.1L215.2,457.1C229.5,457.1 242.2,464.4 249.7,475.4Z" style="fill:white;fill-rule:nonzero;"/>
            <path d="M215.2,475.4L249.7,475.4C242.2,464.4 229.5,457.1 215.2,457.1L213.3,457.1L213.3,475.3L215.2,475.3L215.2,475.4Z" style="fill:white;fill-rule:nonzero;"/>
            <path d="M255.9,508L280.7,508L280.7,489.7L255.9,489.7C256.6,492.6 256.9,495.7 256.9,498.8C256.9,502 256.6,505.1 255.9,508Z" style="fill:white;fill-rule:nonzero;"/>
            <path d="M238.7,498.9C238.7,502.1 238,505.2 236.9,508L256,508C256.7,505.1 257,502 257,498.9C257,495.8 256.6,492.7 256,489.8L236.9,489.8C238,492.6 238.7,495.7 238.7,498.9Z" style="fill:white;fill-rule:nonzero;"/>
            <path d="M213.3,540.7L215.2,540.7C214.5,540.7 213.9,540.6 213.3,540.7Z" style="fill:white;fill-rule:nonzero;"/>
            <path d="M215.2,540.7L280.8,540.7L280.8,522.4L249.7,522.4C242.2,533.4 229.5,540.7 215.2,540.7Z" style="fill:white;fill-rule:nonzero;"/>
            <path d="M213.3,522.3L213.3,540.6L215.2,540.6C229.5,540.6 242.2,533.4 249.7,522.3L213.3,522.3Z" style="fill:white;fill-rule:nonzero;"/>
        </g>
    </g>
</svg>
