<svg viewBox="0 0 839.76 300" xmlns="http://www.w3.org/2000/svg"><g fill="#2fc177"><path d="m116.74 0v26h26 54.04 28 165.96 26v-26z"/><path d="m390.74 274h-165.96v26h191.96v-75.62h-26z"/><path d="m142.74 274v-220h-3.89-20.88-1.23v246h80.04v-26z"/><path d="m0 54h53.45q20.34.2 30.55 10.55t10.32 27.63a33.66 33.66 0 0 1 -4.07 16.82 27.2 27.2 0 0 1 -6.25 7.21 44.53 44.53 0 0 1 -10 6.54v.39a27.88 27.88 0 0 1 17.07 12.21 40.88 40.88 0 0 1 5.4 20.65q-.19 18.47-11.17 29.2-10.89 11.23-27.17 11.23h-58.13zm20.88 19.13v40.94h30.2q11.45 0 16.85-6.19a19.8 19.8 0 0 0 5.49-14.33 20.86 20.86 0 0 0 -5.49-14.63q-5.4-5.6-16.85-5.79zm0 60.06v42.89h32.24q11.66-.2 17.06-6.56a22 22 0 0 0 5.41-14.89 22.3 22.3 0 0 0 -5.41-15.08q-5.4-6.17-17.06-6.36z"/><path d="m161.57 125.19q0-24.85 1.42-33.27a40.26 40.26 0 0 1 4.63-13.6q5-9.82 16.08-17.51 10.86-7.79 27.13-8 16.46.2 27.42 8t15.69 17.57q3.49 5.18 4.82 13.58t1.23 33.2q0 24.42-1.23 33t-4.82 13.84q-4.81 9.85-15.69 17.38-11 7.82-27.42 8.2-16.26-.39-27.13-8.2-11.07-7.51-16.08-17.38-1.51-3.22-2.74-6.15a40.63 40.63 0 0 1 -1.88-7.65q-1.43-8.59-1.43-33.01zm20.88 0q0 21 1.52 28.48a24.06 24.06 0 0 0 5.4 12 24.72 24.72 0 0 0 8.71 7.14 24 24 0 0 0 12.7 3.23 25.18 25.18 0 0 0 13-3.23 23.41 23.41 0 0 0 8.34-7.14 25.39 25.39 0 0 0 5.59-12q1.42-7.44 1.42-28.48t-1.42-28.67a25.2 25.2 0 0 0 -5.59-11.84 25.06 25.06 0 0 0 -8.34-7.34 29.54 29.54 0 0 0 -13-3 28.1 28.1 0 0 0 -12.7 3 26.46 26.46 0 0 0 -8.71 7.34 23.83 23.83 0 0 0 -5.37 11.84q-1.54 7.64-1.55 28.67z"/><path d="m376.53 156.6q-4.53 19.8-17.32 30.4-13.14 10.53-31.13 10.53-16.26-.39-27.13-8.2-11.07-7.51-16.08-17.38-1.51-3.22-2.74-6.15a40.63 40.63 0 0 1 -1.89-7.62q-1.42-8.59-1.42-33 0-24.81 1.42-33.2a40.22 40.22 0 0 1 4.63-13.58q5-9.85 16.09-17.57 10.88-7.81 27.14-8 20 .2 32.54 12.19a54.12 54.12 0 0 1 15.89 29.98h-22.16a31.62 31.62 0 0 0 -9.29-14.68 26.8 26.8 0 0 0 -17.05-6 28.1 28.1 0 0 0 -12.7 3 26.46 26.46 0 0 0 -8.71 7.34 23.83 23.83 0 0 0 -5.4 11.84q-1.52 7.64-1.52 28.67t1.52 28.48a24.06 24.06 0 0 0 5.4 12 24.76 24.76 0 0 0 8.72 7.14 24 24 0 0 0 12.7 3.23q17.63 0 26.35-19.48z"/><path d="m449.41 110.15 44.2-56.15h-24.8l-52.07 67.26v-67.26h-5.12-20.88v142.38h26v-48.91l19.12-20.71 37.58 69.62h24.8z"/><path d="m512.72 54h53.45q20.33.2 30.55 10.55t10.28 27.63a33.65 33.65 0 0 1 -4 16.82 27.2 27.2 0 0 1 -6.24 7.23 44.61 44.61 0 0 1 -10 6.54v.39q11.29 3 17.08 12.21a40.87 40.87 0 0 1 5.4 20.6q-.2 18.47-11.17 29.2-10.89 11.23-27.17 11.23h-58.18zm20.88 19.13v40.94h30.19q11.46 0 16.85-6.19a19.8 19.8 0 0 0 5.49-14.33 20.86 20.86 0 0 0 -5.49-14.63q-5.39-5.6-16.85-5.79zm0 60.06v42.89h32.23q11.67-.2 17.07-6.56a22.07 22.07 0 0 0 5.4-14.89 22.34 22.34 0 0 0 -5.4-15.08q-5.42-6.17-17.07-6.36z"/><path d="m701.36 164.54h-52.3l-10.59 31.84h-22.14l50.13-142.38h17.54l50.13 142.38h-22zm-6-19.13-19.91-62.28h-.38l-20 62.28z"/><path d="m786 143.38-30.26 53h-23.58l42.17-72.95-39.53-69.43h23.64l27.56 49.38 27.47-49.38h23.53l-40.72 69.43 43.47 72.95h-23.63z"/></g></svg>