<svg id="T-Systems_Logo" data-name="T-Systems Logo" xmlns="http://www.w3.org/2000/svg" viewBox="0 0 588.36505 130">
  <defs>
    <style>
      .cls-1 {
        fill: #fff;
      }
    </style>
  </defs>
  <path class="cls-1" d="M177.47821,37.17625q-6.31279-30.0408-24.526-30.04071c-9.36032,0-15.02027,6.458-15.02027,15.60094,0,12.55323,11.61,16.544,21.62349,20.09971,15.8185,5.65978,28.66216,12.4082,28.66216,30.83895,0,17.56016-12.48055,31.70968-30.40366,31.70968-11.46493,0-21.11567-6.458-24.96143-9.796L129.51456,103H124V65.69337h5.805c2.10426,9.36049,4.71633,16.47151,7.90924,21.47844,5.00676,7.764,11.53728,11.68249,19.66426,11.68249,11.02947,0,17.19757-7.474,17.19757-18.14066,0-13.932-10.88443-17.92277-22.34936-21.84122-15.52842-5.22448-27.50116-11.90022-27.50116-29.82315,0-16.254,11.17451-28.29922,27.6462-28.29922,9.43336,0,16.54438,4.136,22.34936,8.48975L177.47821,3h5.36987V37.17625Zm44.08585,66.61229-20.898-54.56686c-3.19257-8.34471-4.35356-9.65075-8.63478-9.65075h-2.39469v-5.805h33.45118v5.805h-5.0791c-2.61242,0-3.70072,1.01579-3.70072,3.04753a10.827,10.827,0,0,0,.87057,3.483l14.29474,36.42636,12.04543-33.59639a19.83768,19.83768,0,0,0,1.161-5.297c0-2.75745-1.37872-4.06349-4.57129-4.06349H232.884v-5.805h26.12243v5.805H256.539c-3.04753,0-4.20853,1.66881-6.16776,6.966L227.224,108.50505c-5.58726,15.02044-10.23125,21.26088-20.60787,21.26088-7.90925,0-15.093-5.07944-15.093-13.49667,0-5.44222,3.62838-9.57823,9.21563-9.57823,4.86172,0,8.85252,3.26526,8.85252,8.272,0,3.55568-1.7415,6.24044-5.22449,7.98194a8.14483,8.14483,0,0,0,2.75746.43529c5.73229,0,8.9252-3.91828,12.98869-15.45573Zm79.82871-47.02038c-2.97519-12.69845-8.85252-19.01141-17.56-19.01141-6.02271,0-9.94116,3.483-9.94116,9.57822,0,7.40144,8.70747,9.65092,14.36742,11.53745,12.04509,3.91845,22.63944,9.14294,22.63944,23.21994,0,13.85945-10.37662,22.42172-23.80044,22.42172a30.41734,30.41734,0,0,1-19.37418-7.111L265.90967,103h-5.07945V76.3599h5.07945c3.19291,10.37645,8.4174,22.20415,21.18836,22.20415,6.67557,0,11.02948-4.644,11.02948-11.2472,0-8.78-8.92521-11.755-15.8185-14.14969-10.88444-3.77324-20.75291-8.70748-20.75291-21.62349,0-12.19047,9.65074-19.30166,21.26071-19.30166a31.00888,31.00888,0,0,1,17.56,6.02272l1.45142-4.49878h5.0791V56.76816ZM361.31193,85.8656c0,11.8277-6.821,18.64848-18.576,18.64848-11.75536,0-18.64865-6.82078-18.64865-18.64848V40.58672h-10.6667v-5.9502c6.74825-1.59628,11.2472-4.06349,14.00465-7.47379,2.97519-3.6282,4.86172-10.52166,5.87734-19.15645h5.65994V33.76595h20.09972v6.82077H338.96256V86.73635c0,7.83673,3.19292,10.23125,6.67591,10.23125,5.0791,0,8.63478-3.70073,8.63478-12.33551V77.73862h7.03868Zm22.12095-17.19722c.50781,11.53745,1.016,29.46021,15.96388,29.46021,9.79579,0,14.72985-8.05429,18.21284-15.96371L423.56,85.28511C417.9,96.74987,410.934,105.09457,397.07477,105.09457c-21.18837,0-29.82315-18.14049-29.82315-36.71644,0-17.85042,8.70747-36.71662,28.51677-36.71662,21.33341,0,27.93662,20.46266,28.37208,37.00687Zm24.526-6.38549c-.29008-16.68941-4.35357-24.52614-11.90005-24.52614s-11.97274,8.48974-12.48089,24.52614ZM523.6014,52.26921V90.0743c.07269,5.22449,2.03192,7.25606,7.2564,7.25606H532.817V103H508.72617V53.64794c0-9.72344-2.9025-13.71424-9.1426-13.71424-7.8369,0-11.46493,8.99773-11.46493,21.47845V90.0743c.07269,5.22449,2.03157,7.25606,7.25606,7.25606h2.39469V103h-24.526V53.64794c0-9.72344-2.97518-13.71424-9.21563-13.71424-8.127,0-11.46459,8.99773-11.46459,21.47845V90.0743c.07235,5.22449,2.03158,7.25606,7.25606,7.25606h2.39469V103H427.7468V97.33036h2.68476c5.22449,0,7.25606-2.03157,7.25606-7.25606V46.02894c-.07235-5.22449-2.03157-7.25624-7.25606-7.25624h-1.95923V33.11276h23.21994V40.877A20.05112,20.05112,0,0,1,468.164,32.242c8.70748,0,14.43977,3.991,17.92276,10.59418A20.03193,20.03193,0,0,1,503.57437,32.242C516.34534,32.242,523.6014,39.57093,523.6014,52.26921Zm55.25794,4.499c-2.97518-12.69845-8.85251-19.01141-17.56-19.01141-6.02271,0-9.94117,3.483-9.94117,9.57822,0,7.40144,8.70748,9.65092,14.36743,11.53745,12.04508,3.91845,22.63944,9.14294,22.63944,23.21994,0,13.85945-10.37663,22.42172-23.80044,22.42172a30.41734,30.41734,0,0,1-19.37418-7.111L543.37624,103H538.2968V76.3599h5.07944c3.19292,10.37645,8.4174,22.20415,21.18837,22.20415,6.67556,0,11.02947-4.644,11.02947-11.2472,0-8.78-8.9252-11.755-15.81849-14.14969-10.88444-3.77324-20.75291-8.70748-20.75291-21.62349,0-12.19047,9.65074-19.30166,21.26071-19.30166a31.00891,31.00891,0,0,1,17.56,6.02272l1.45141-4.49865h5.07911V56.76816ZM20,69H0V49H20ZM0,3V37H6V36c0-16,9-26,26-26h1V82c0,10-4,14-14,14H16v7H68V96H65c-10,0-14-4-14-14V10h1c17,0,26,10,26,26v1h6V3ZM64,69H84V49H64Z"/>
</svg>
