<?xml version="1.0" encoding="UTF-8"?>
<svg id="Layer_1" data-name="Layer 1" xmlns="http://www.w3.org/2000/svg" viewBox="0 0 144.95 28.35">
  <defs>
    <style>
      .cls-1 {
        fill: #fff;
      }

      .cls-2 {
        fill: #ed1a3b;
      }

      .cls-3 {
        fill: #231f20;
      }
    </style>
  </defs>
  <g>
    <path class="cls-3" d="m47.21,3.17c-1.52-.65-3.15-1.07-4.6-1.07-2.12,0-3.18.46-3.18,1.27,0,2.34,9.46.46,9.46,5.46,0,2.07-1.94,3.67-5.84,3.67-2.31,0-4.11-.48-6.19-1.6l.85-1.86c1.82,1.01,3.51,1.46,5.35,1.46,2.31,0,3.55-.67,3.55-1.66,0-2.56-9.46-.65-9.46-5.33,0-2.02,1.93-3.41,5.41-3.41,2.09,0,3.84.46,5.52,1.3l-.87,1.78Z"/>
    <path class="cls-3" d="m57.76,12.57c-3.78,0-6.91-2.52-6.91-6.28S53.98,0,57.76,0s6.88,2.56,6.88,6.28-3.08,6.28-6.88,6.28m0-10.53c-2.75,0-4.63,1.86-4.63,4.26s1.8,4.27,4.63,4.27,4.6-1.84,4.6-4.27-1.79-4.26-4.6-4.26"/>
    <path class="cls-3" d="m73.67,12.56c-3.97,0-6.96-2.51-6.96-6.28S69.74,0,73.67,0c2.34,0,4.02.66,5.52,1.77l-1.17,1.74c-1.09-.84-2.46-1.45-4.29-1.45-2.9,0-4.7,1.83-4.7,4.21s1.82,4.23,4.73,4.23c1.82,0,3.26-.59,4.35-1.43l1.17,1.74c-1.51,1.11-3.28,1.74-5.62,1.74"/>
    <rect class="cls-3" x="81.68" y=".37" width="2.2" height="11.86"/>
    <polygon class="cls-3" points="87.14 12.24 87.14 .37 97.94 .37 97.94 2.33 89.34 2.33 89.34 5.22 96.03 5.22 96.03 7.17 89.34 7.17 89.34 10.28 98.32 10.28 98.32 12.24 87.14 12.24"/>
    <polygon class="cls-3" points="106.53 2.32 106.53 12.24 104.33 12.24 104.33 2.32 99.5 2.32 99.5 .37 111.36 .37 111.36 2.32 106.53 2.32"/>
    <polygon class="cls-3" points="113.13 12.24 113.13 .37 123.93 .37 123.93 2.33 115.33 2.33 115.33 5.22 122.02 5.22 122.02 7.17 115.33 7.17 115.33 10.28 124.31 10.28 124.31 12.24 113.13 12.24"/>
    <path class="cls-3" d="m43.65,26.28c1.21,0,2.45-.27,3.39-.72v-3.45h2.14v4.61c-1.5,1.01-3.57,1.63-5.62,1.63-3.97,0-6.96-2.51-6.96-6.28s3.04-6.26,6.96-6.26c2.3,0,4.02.65,5.52,1.75l-1.17,1.74c-1.1-.84-2.47-1.41-4.29-1.41-2.89-.06-4.69,1.81-4.69,4.18s1.82,4.21,4.73,4.21"/>
    <polygon class="cls-3" points="52.07 28.03 52.07 16.17 62.87 16.17 62.87 18.13 54.26 18.13 54.26 21.01 60.96 21.01 60.96 22.97 54.26 22.97 54.26 26.07 63.25 26.07 63.25 28.03 52.07 28.03"/>
    <path class="cls-3" d="m67.56,28.03h-2.15v-11.86h2.25l7.73,8.94.05-.02c-.13-2.25-.15-4.07-.15-5.82v-3.1h2.15v11.86h-2.23l-7.71-8.94-.03.02c.08,1.76.08,4.82.08,5.82v3.1Z"/>
    <polygon class="cls-3" points="80.55 28.03 80.55 16.17 91.35 16.17 91.35 18.13 82.74 18.13 82.74 21.01 89.43 21.01 89.43 22.97 82.74 22.97 82.74 26.07 91.73 26.07 91.73 28.03 80.55 28.03"/>
    <path class="cls-3" d="m99.8,23.66h-3.54v4.36h-2.2v-11.86h7.62c2.53,0,4.1,1.55,4.1,3.78s-1.54,3.38-3.4,3.65l3.53,4.43h-2.75l-3.35-4.36Zm1.64-1.98c1.37,0,2.15-.71,2.15-1.74,0-1.12-.68-1.82-1.92-1.82h-5.42v3.56h5.19Z"/>
    <path class="cls-3" d="m110.41,25.15l-1.36,2.88h-2.38l5.78-11.86h2.31l5.79,11.86h-2.37l-1.36-2.88h-6.4Zm.92-1.93h4.57l-2.28-4.81-2.29,4.81Z"/>
    <polygon class="cls-3" points="122.16 28.03 122.16 16.17 124.36 16.17 124.36 26.07 132.28 26.07 132.28 28.03 122.16 28.03"/>
    <polygon class="cls-3" points="133.76 28.03 133.76 16.17 144.57 16.17 144.57 18.13 135.97 18.13 135.97 21.01 142.66 21.01 142.66 22.97 135.97 22.97 135.97 26.07 144.95 26.07 144.95 28.03 133.76 28.03"/>
  </g>
  <rect class="cls-2" width="28.35" height="14.46"/>
  <rect class="cls-3" y="14.17" width="28.35" height="14.17"/>
  <rect class="cls-1" x="4.95" y="13.31" width="18.44" height="1.72"/>
</svg>