<svg xmlns="http://www.w3.org/2000/svg" xmlns:xlink="http://www.w3.org/1999/xlink" width="348" height="107"><g fill="#fff"><path d="M39.966 62.238L62.13 3.607h19.295l-22.163 58.63zm14.75-58.632H-.14v16.647h14.4v41.985h19.72V20.253h14.445zm30.762.001h25.257a42.87 42.87 0 0 1 8.572.869c2.842.58 5.383 1.602 7.618 3.064s4.044 3.424 5.425 5.88 2.07 5.536 2.07 9.234c0 3.6-.88 6.75-2.644 9.482s-4.294 4.844-7.596 6.335l14.877 23.767h-22.64l-11.23-20.95h-.578v20.95H85.48V3.607zm18.964 24.76h3.862c.658 0 1.384-.054 2.178-.166a6.75 6.75 0 0 0 2.218-.704c.685-.36 1.26-.855 1.726-1.5s.7-1.476.7-2.526-.193-1.876-.576-2.484-.876-1.063-1.48-1.367-1.26-.497-1.972-.58a17.12 17.12 0 0 0-1.972-.124h-4.684v9.44zm127.214 35.528c-2.375 0-4.708-.207-6.998-.617a37.98 37.98 0 0 1-6.625-1.813c-2.125-.795-4.127-1.73-6.004-2.803s-3.562-2.264-5.05-3.584l12.008-13.046c1.38 1.5 3.215 2.816 5.506 3.975s4.65 1.74 7.08 1.74c1.104 0 2.113-.193 3.023-.58s1.366-1.106 1.366-2.157c0-.552-.153-1.022-.455-1.4s-.844-.788-1.614-1.203-1.836-.87-3.188-1.37l-5.093-1.742a43.03 43.03 0 0 1-5.715-2.365c-1.82-.915-3.437-2.032-4.845-3.36s-2.526-2.917-3.354-4.77-1.24-4.08-1.24-6.68c0-3.65.744-6.747 2.234-9.3s3.408-4.633 5.756-6.264 4.982-2.807 7.908-3.526 5.824-1.08 8.694-1.08c3.865 0 7.798.745 11.802 2.236s7.522 3.644 10.56 6.46L245.154 23.15a12.82 12.82 0 0 0-4.887-3.768c-1.933-.856-3.673-1.283-5.218-1.283-1.437 0-2.594.207-3.478.62s-1.325 1.1-1.325 2.028c0 .884.456 1.547 1.366 1.988s2.388.994 4.43 1.657c2.1.662 4.308 1.436 6.625 2.318s4.46 2.03 6.418 3.436a18.09 18.09 0 0 1 4.845 5.177c1.27 2.042 1.905 4.583 1.905 7.618 0 3.534-.705 6.612-2.112 9.234s-3.257 4.804-5.548 6.542-4.872 3.037-7.743 3.893a30.62 30.62 0 0 1-8.777 1.283"/><path d="M325.598 52.88c0-1.5.3-2.884.87-4.182s1.38-2.428 2.4-3.395 2.2-1.74 3.563-2.32 2.773-.87 4.264-.87a9.94 9.94 0 0 1 4.101.869 11.85 11.85 0 0 1 3.438 2.319c.992.967 1.778 2.098 2.358 3.395s.87 2.692.87 4.182-.3 2.9-.87 4.224-1.366 2.457-2.358 3.396a11.49 11.49 0 0 1-3.438 2.236c-1.296.55-2.664.826-4.1.826a11.2 11.2 0 0 1-4.264-.826 11.82 11.82 0 0 1-3.563-2.236 9.94 9.94 0 0 1-2.4-3.396c-.58-1.328-.87-2.733-.87-4.224m-184.497 9.36l22.164-58.63h19.295l-22.165 58.63z"/><path d="M186.863 62.238L164.7 3.607h19.295l22.163 58.63zm68.86 0l22.163-58.63h19.296l-22.164 58.63z"/><path d="M301.484 62.238L279.32 3.607h19.295l22.164 58.63zm-293.38 43.14c-1.76-.496-3.012-1.286-3.757-2.37S3.23 100.613 3.23 99.07v-2.748c0-.938-.214-1.67-.643-2.193s-1.085-.785-1.97-.785v-2.408c.884 0 1.54-.263 1.97-.787s.643-1.263.643-2.22v-2.75c0-1.543.372-2.854 1.117-3.934s1.997-1.865 3.757-2.362l.65 1.896c-.885.3-1.5.826-1.875 1.585S6.33 84.06 6.33 85.18v2.748c0 .938-.194 1.77-.582 2.498s-.974 1.295-1.75 1.7c.785.425 1.372 1 1.76 1.728s.582 1.55.582 2.47v2.748c0 1.12.183 2.058.548 2.814s1 1.287 1.875 1.584l-.65 1.908z"/><use xlink:href="#B"/><path d="M40.126 93.668c0 2.13-.5 3.85-1.502 5.158s-2.396 1.963-4.184 1.963c-.83 0-1.566-.148-2.207-.447a4.55 4.55 0 0 1-1.652-1.313v7.106h-3.3v-20.28h2.775l.325 1.842c.47-.686 1.036-1.2 1.7-1.57s1.433-.54 2.308-.54c1.805 0 3.2.715 4.217 2.145s1.5 3.315 1.5 5.652v.285h.002zm-3.276-.3c0-1.496-.282-2.72-.846-3.672s-1.406-1.426-2.525-1.426c-.686 0-1.268.146-1.747.438a3.24 3.24 0 0 0-1.151 1.224v6.6c.3.515.672.908 1.15 1.185s1.07.412 1.773.412c1.12 0 1.957-.412 2.512-1.236s.833-1.908.833-3.252v-.283zm13.093 7.412c-2.076 0-3.73-.68-4.962-2.038s-1.848-3.103-1.848-5.23v-.543c0-2.13.6-3.896 1.834-5.3s2.755-2.1 4.596-2.1c1.977 0 3.5.598 4.542 1.793s1.577 2.8 1.577 4.813v1.938h-9.138l-.027.066c.054 1.16.395 2.1 1.022 2.85s1.496 1.104 2.606 1.104c.884 0 1.643-.106 2.274-.323a7.48 7.48 0 0 0 1.828-.935l1.056 2.156c-.55.5-1.282.902-2.193 1.238s-1.966.504-3.167.504zm-.38-12.564c-.813 0-1.48.323-2.004.97s-.85 1.466-.975 2.457l.027.068h5.808v-.34c0-.93-.237-1.688-.7-2.273s-1.188-.88-2.145-.88zm12.557-2.36l.2 2.1c.478-.75 1.08-1.333 1.807-1.753s1.546-.63 2.458-.63c1.525 0 2.714.462 3.567 1.388s1.28 2.366 1.28 4.325v9.205h-3.3v-9.178c0-1.103-.228-1.886-.684-2.35s-1.148-.697-2.078-.697c-.64 0-1.214.144-1.72.428s-.92.675-1.246 1.17V100.5h-3.3V85.855H62.1zm29.36 10.668c0-.506-.217-.924-.65-1.258s-1.24-.63-2.423-.882c-1.75-.368-3.076-.896-3.974-1.575s-1.347-1.6-1.347-2.783c0-1.228.52-2.273 1.557-3.142s2.405-1.3 4.102-1.3c1.787 0 3.206.438 4.258 1.32s1.555 1.97 1.5 3.27l-.027.08H91.33a2.04 2.04 0 0 0-.7-1.557c-.47-.434-1.092-.65-1.896-.65-.794 0-1.4.18-1.814.535s-.623.792-.623 1.308a1.46 1.46 0 0 0 .59 1.225c.394.303 1.2.57 2.4.807 1.84.38 3.206.913 4.095 1.604s1.333 1.632 1.333 2.822c0 1.318-.544 2.4-1.63 3.2s-2.52 1.232-4.298 1.232c-1.904 0-3.407-.488-4.508-1.463s-1.625-2.094-1.57-3.357l.027-.08h3.06c.036.848.343 1.467.92 1.854s1.28.582 2.112.582c.848 0 1.503-.162 1.963-.486s.7-.765.7-1.316z"/><use xlink:href="#B" x="87.298"/><path d="M123.63 98.365c-.46.775-1.042 1.373-1.746 1.794s-1.517.63-2.437.63c-1.57 0-2.798-.502-3.682-1.503s-1.327-2.56-1.327-4.67v-8.76h3.276v8.787c0 1.28.208 2.18.623 2.692s1.042.77 1.88.77c.794 0 1.46-.142 1.997-.426a3.09 3.09 0 0 0 1.266-1.238V85.855h3.3v14.647h-2.87l-.27-2.137zm14.6-9.545l-1.408-.055c-.64 0-1.176.137-1.604.406s-.76.654-.995 1.15v10.18h-3.3V85.855h3.005l.217 2.125c.37-.748.846-1.334 1.428-1.76s1.252-.636 2-.636a3.21 3.21 0 0 1 .555.047 3.97 3.97 0 0 1 .474.115l-.392 3.074zm9.018 9.328c.803 0 1.48-.235 2.03-.707s.826-1.062.826-1.77h2.98l.027.08c.045 1.373-.512 2.556-1.672 3.547s-2.557 1.5-4.2 1.5c-2.157 0-3.8-.695-4.962-2.086s-1.726-3.147-1.726-5.28v-.472c0-2.12.575-3.88 1.726-5.273s2.805-2.1 4.962-2.1c1.76 0 3.188.512 4.285 1.536s1.626 2.326 1.6 3.905l-.027.082h-2.992c0-.805-.264-1.484-.792-2.045s-1.216-.84-2.064-.84c-1.237 0-2.112.448-2.626 1.346s-.772 2.02-.772 3.373v.474c0 1.38.257 2.513.772 3.4s1.387 1.332 2.624 1.332zm15.477 2.642c-2.076 0-3.73-.68-4.962-2.038s-1.848-3.103-1.848-5.23v-.543c0-2.13.6-3.896 1.834-5.3s2.755-2.1 4.596-2.1c1.977 0 3.5.598 4.542 1.793s1.577 2.8 1.577 4.813v1.938h-9.138l-.027.066c.054 1.16.395 2.1 1.022 2.85s1.496 1.104 2.606 1.104c.884 0 1.643-.106 2.274-.323a7.48 7.48 0 0 0 1.828-.935l1.056 2.156c-.55.5-1.282.902-2.193 1.238s-1.967.504-3.167.504zm-.38-12.564c-.813 0-1.48.323-2.004.97s-.85 1.466-.975 2.457l.027.068h5.808v-.34c0-.93-.237-1.688-.7-2.273s-1.2-.88-2.145-.88zm23.457 12.574c-2.075 0-3.73-.68-4.962-2.038s-1.848-3.103-1.848-5.23v-.543c0-2.13.6-3.896 1.834-5.3s2.756-2.1 4.597-2.1c1.978 0 3.5.598 4.542 1.793s1.577 2.8 1.577 4.813v1.938h-9.138l-.027.066c.055 1.16.395 2.1 1.02 2.85s1.496 1.104 2.605 1.104c.885 0 1.643-.106 2.273-.323s1.24-.528 1.828-.935l1.057 2.156c-.55.5-1.282.902-2.193 1.238s-1.966.504-3.166.504zm-.38-12.564c-.813 0-1.48.323-2.004.97s-.85 1.466-.976 2.457l.027.068h5.8v-.34c0-.93-.236-1.688-.7-2.273s-1.2-.88-2.145-.88zM199.8 90.88l2.707-5.023h3.777L201.7 93.1l4.738 7.404h-3.736l-2.828-5.145-2.83 5.145h-3.764l4.737-7.404-4.604-7.244h3.738l2.67 5.023zm15 7.268c.803 0 1.48-.235 2.03-.707s.824-1.062.824-1.77h2.98l.026.08c.045 1.373-.512 2.556-1.672 3.547s-2.557 1.5-4.2 1.5c-2.156 0-3.8-.695-4.962-2.086s-1.726-3.147-1.726-5.28v-.472c0-2.12.574-3.88 1.726-5.273s2.806-2.1 4.962-2.1c1.76 0 3.188.512 4.285 1.536s1.626 2.326 1.6 3.905l-.027.082h-3c0-.805-.266-1.484-.792-2.045s-1.218-.84-2.064-.84c-1.235 0-2.112.448-2.627 1.346s-.77 2.02-.77 3.373v.474c0 1.38.258 2.513.77 3.4s1.4 1.332 2.626 1.332zm15.475 2.642c-2.076 0-3.73-.68-4.963-2.038s-1.848-3.103-1.848-5.23v-.543c0-2.13.6-3.896 1.835-5.3s2.755-2.1 4.597-2.1c1.977 0 3.5.598 4.54 1.793s1.578 2.8 1.578 4.813v1.938h-9.14l-.026.066c.055 1.16.396 2.1 1.022 2.85s1.495 1.104 2.604 1.104c.885 0 1.644-.106 2.274-.323s1.24-.528 1.827-.935l1.057 2.156c-.55.5-1.28.902-2.193 1.238s-1.963.504-3.165.504zm-.38-12.564c-.813 0-1.48.323-2.004.97s-.85 1.466-.976 2.457l.026.068h5.8v-.34c0-.93-.236-1.688-.7-2.273s-1.186-.88-2.144-.88zm13 12.278h-3.3v-21.12h3.3v21.12zm7.688 0h-3.3v-21.12h3.3v21.12zm10.52.296c-2.076 0-3.73-.68-4.963-2.038s-1.848-3.103-1.848-5.23v-.543c0-2.13.6-3.896 1.835-5.3s2.755-2.1 4.597-2.1c1.978 0 3.5.598 4.54 1.793s1.578 2.8 1.578 4.813v1.938h-9.14l-.027.066c.055 1.16.395 2.1 1.022 2.85s1.495 1.104 2.606 1.104c.883 0 1.643-.106 2.272-.323a7.49 7.49 0 0 0 1.827-.935l1.058 2.156c-.55.5-1.282.902-2.192 1.238s-1.968.504-3.167.504zm-.38-12.564c-.813 0-1.48.323-2.004.97s-.85 1.466-.975 2.457l.025.068h5.8v-.34c0-.93-.236-1.688-.7-2.273s-1.187-.88-2.144-.88zm12.556-2.37l.188 2.1c.48-.75 1.08-1.333 1.808-1.753s1.547-.63 2.457-.63c1.524 0 2.715.462 3.567 1.388s1.28 2.366 1.28 4.325v9.205h-3.3v-9.178c0-1.103-.23-1.886-.684-2.35s-1.148-.697-2.078-.697c-.643 0-1.215.144-1.72.428s-.92.675-1.244 1.17V100.5h-3.3V85.855h3zm19.443 12.282c.803 0 1.48-.235 2.03-.707s.825-1.062.825-1.77h2.98l.027.08c.045 1.373-.512 2.556-1.672 3.547s-2.557 1.5-4.2 1.5c-2.158 0-3.812-.695-4.963-2.086s-1.726-3.147-1.726-5.28v-.472c0-2.12.575-3.88 1.726-5.273s2.805-2.1 4.963-2.1c1.76 0 3.188.512 4.284 1.536s1.626 2.326 1.6 3.905l-.027.082h-3a2.88 2.88 0 0 0-.79-2.045c-.525-.56-1.218-.84-2.063-.84-1.238 0-2.113.448-2.627 1.346s-.77 2.02-.77 3.373v.474c0 1.38.257 2.513.77 3.4s1.385 1.332 2.624 1.332zM308.2 100.8c-2.076 0-3.73-.68-4.963-2.038s-1.848-3.103-1.848-5.23v-.543c0-2.13.6-3.896 1.836-5.3s2.754-2.1 4.596-2.1c1.977 0 3.5.598 4.54 1.793s1.578 2.8 1.578 4.813v1.938h-9.14l-.026.066c.055 1.16.396 2.1 1.022 2.85s1.495 1.104 2.604 1.104c.886 0 1.644-.106 2.274-.323s1.24-.528 1.827-.935l1.057 2.156c-.55.5-1.28.902-2.192 1.238s-1.967.504-3.166.504zm-.38-12.564c-.813 0-1.48.323-2.004.97s-.85 1.466-.976 2.457l.027.068h5.808v-.34c0-.93-.236-1.688-.7-2.273s-1.187-.88-2.144-.88zm7.6 15.234c.875-.297 1.5-.824 1.875-1.584s.563-1.695.563-2.814v-2.748c0-.948.2-1.782.603-2.506s1.022-1.28 1.86-1.678c-.838-.4-1.46-.945-1.86-1.673s-.603-1.573-.603-2.538v-2.75c0-1.12-.188-2.06-.563-2.816s-1-1.285-1.875-1.584l.648-1.896c1.752.497 3.002 1.284 3.752 2.362s1.123 2.4 1.123 3.934v2.748c0 .957.2 1.697.637 2.22s1.087.785 2 .785v2.4c-.903 0-1.566.263-2 .785s-.637 1.255-.637 2.192v2.748c0 1.545-.375 2.856-1.123 3.94s-2 1.873-3.752 2.37l-.648-1.907z"/></g><defs ><path id="B" d="M10.285 93.045c0-2.176.596-3.962 1.787-5.36 1.21-1.397 2.848-2.098 4.915-2.098 2.103 0 3.75.7 4.94 2.098 1.2 1.392 1.8 3.178 1.8 5.36v.284c0 2.202-.6 4-1.8 5.388-1.19 1.38-2.83 2.072-4.915 2.072-2.094 0-3.74-.695-4.94-2.086-1.19-1.39-1.787-3.182-1.787-5.374v-.284zm3.3.277c0 1.424.28 2.587.84 3.488.55.893 1.417 1.338 2.6 1.338 1.146 0 2.004-.445 2.572-1.338.578-.9.867-2.064.867-3.488v-.284c0-1.397-.29-2.546-.867-3.447-.568-.91-1.435-1.366-2.6-1.366-1.146 0-2.004.457-2.572 1.366-.56.9-.84 2.06-.84 3.447v.284z"/></defs></svg>