<?xml version="1.0" encoding="UTF-8"?><svg id="a" xmlns="http://www.w3.org/2000/svg" viewBox="0 0 8982.346 2662.895"><path d="m8468.528,1245.379c-351.929-72.071-432.462-167.468-432.462-324.348v-4.253c0-154.752,144.139-279.815,362.498-279.815,163.236,0,303.166,46.635,443.074,167.468l69.964-86.913c-150.519-120.834-292.576-180.207-508.785-180.207-275.605,0-476.992,169.594-476.992,390.08v4.252c0,224.695,144.139,345.549,500.3,417.62,337.086,67.838,419.766,159.004,419.766,315.861v4.253c0,169.596-152.645,294.68-375.257,294.68-218.359,0-368.857-69.965-532.093-220.485l-72.092,82.682c178.08,159.005,360.392,237.435,597.849,237.435,286.171,0,491.814-165.364,491.814-404.925v-4.231c0-216.23-144.163-339.191-487.584-409.155Z" style="fill:#17a76a; stroke:#17a76a; stroke-miterlimit:10; stroke-width:52.467px;"/><path d="m7434.036,1425.581c0,358.267-192.902,540.599-493.942,540.599-313.757,0-502.426-201.408-502.426-551.187v-856.483h-110.242v867.071c0,415.516,252.277,640.231,608.436,640.231,360.37,0,608.416-226.842,608.416-652.947v-854.355h-110.243v867.071Z" style="fill:#17a76a; stroke:#17a76a; stroke-miterlimit:10; stroke-width:52.467px;"/><path d="m5186.937,558.512h-493.963v1483.974h493.963c466.382,0,788.624-324.348,788.624-741.985v-4.232c0-417.64-322.242-737.756-788.624-737.756Zm674.127,746.242c0,354.011-260.74,635.976-674.127,635.976h-383.721V660.269h383.721c413.387,0,674.127,288.323,674.127,640.231v4.254Z" style="fill:#17a76a; stroke:#17a76a; stroke-miterlimit:10; stroke-width:52.467px;"/><polygon points="4146.088 1849.568 3122.137 558.517 3018.252 558.517 3018.252 2042.492 3124.264 2042.492 3124.264 723.88 4169.396 2042.492 4252.076 2042.492 4252.076 558.517 4146.088 558.517 4146.088 1849.568" style="fill:#17a76a; stroke:#17a76a; stroke-miterlimit:10; stroke-width:52.467px;"/><rect x="2444.17" y="558.519" width="110.241" height="1483.973" style="fill:#17a76a; stroke:#17a76a; stroke-miterlimit:10; stroke-width:52.467px;"/><polygon points="1996.542 2042.492 1996.542 558.517 1892.657 558.517 1296.937 1436.182 701.238 558.517 597.355 558.517 597.355 2042.492 703.364 2042.492 703.364 753.546 1290.579 1607.902 1299.062 1607.902 1886.299 753.546 1886.299 2042.492 1996.542 2042.492" style="fill:#17a76a; stroke:#17a76a; stroke-miterlimit:10; stroke-width:52.467px;"/><polygon points="26.233 2554.559 2554.559 2554.559 2554.559 2209.21 2444.022 2209.21 2444.022 2447.67 136.75 2447.67 136.75 133.122 2444.022 133.122 2444.022 387.214 2554.559 387.214 2554.559 26.233 26.233 26.233 26.233 2554.559" style="fill:#17a76a; stroke:#17a76a; stroke-miterlimit:10; stroke-width:52.467px;"/><path d="m2992.128,2552.212v-372.83h48.293v166.025h212.644v-166.025h48.293v372.83h-48.293v-166.754h-212.644v166.754h-48.293Z" style="fill:#555;"/><path d="m3522.433,2558.037c-27.003,0-50.663-6.007-70.979-18.022-20.319-12.015-36.156-28.823-47.514-50.427-11.361-21.601-17.039-46.846-17.039-75.731,0-29.127,5.678-54.551,17.039-76.277,11.358-21.723,27.195-38.594,47.514-50.608,20.316-12.015,43.976-18.022,70.979-18.022s50.66,6.008,70.979,18.022c20.316,12.015,36.153,28.886,47.514,50.608,11.358,21.727,17.039,47.15,17.039,76.277,0,28.886-5.681,54.131-17.039,75.731-11.361,21.604-27.198,38.412-47.514,50.427-20.318,12.016-43.978,18.022-70.979,18.022Zm0-38.594c20.51,0,37.388-4.915,50.629-14.745,13.242-9.831,23.042-22.756,29.404-38.776,6.359-16.02,9.542-33.374,9.542-52.065s-3.183-36.104-9.542-52.247c-6.362-16.14-16.163-29.187-29.404-39.14-13.242-9.95-30.119-14.928-50.629-14.928s-37.388,4.978-50.63,14.928c-13.242,9.953-23.045,23-29.404,39.14-6.362,16.143-9.542,33.56-9.542,52.247s3.18,36.046,9.542,52.065c6.359,16.021,16.162,28.945,29.404,38.776,13.242,9.83,30.116,14.745,50.63,14.745Z" style="fill:#555;"/><path d="m3923.308,2437.887v-165.298h45.956v279.623h-45.956v-47.332h-3.116c-7.01,14.199-17.915,26.246-32.714,36.136-14.8,9.894-33.494,14.837-56.082,14.837-18.694,0-35.313-3.852-49.851-11.56-14.541-7.706-25.966-19.356-34.272-34.953-8.31-15.593-12.463-35.285-12.463-59.074v-177.677h45.956v174.765c0,20.389,6.134,36.653,18.402,48.788,12.268,12.138,27.944,18.205,47.027,18.205,11.422,0,23.075-2.731,34.954-8.192,11.879-5.462,21.874-13.836,29.989-25.122,8.111-11.287,12.17-25.669,12.17-43.146Z" style="fill:#555;"/><path d="m4270.406,2335.213l-41.283,10.923c-2.598-6.432-6.395-12.712-11.391-18.842-5-6.127-11.781-11.196-20.35-15.201s-19.541-6.007-32.91-6.007c-18.305,0-33.526,3.913-45.664,11.741-12.14,7.828-18.207,17.75-18.207,29.765,0,10.682,4.153,19.115,12.463,25.305,8.306,6.189,21.289,11.35,38.945,15.474l44.398,10.195c26.742,6.069,46.668,15.322,59.783,27.762,13.109,12.441,19.668,28.431,19.668,47.969,0,16.021-4.902,30.342-14.703,42.963-9.803,12.624-23.465,22.574-40.99,29.855-17.525,7.282-37.908,10.923-61.145,10.923-30.509,0-55.76-6.189-75.75-18.568-19.993-12.379-32.65-30.462-37.972-54.25l43.62-10.194c4.153,15.05,12.04,26.337,23.66,33.86,11.617,7.526,26.84,11.287,45.664,11.287,21.42,0,38.459-4.278,51.115-12.834,12.658-8.557,18.986-18.842,18.986-30.857,0-9.708-3.635-17.869-10.904-24.485-7.271-6.613-18.436-11.56-33.494-14.836l-49.85-10.923c-27.393-6.067-47.484-15.503-60.269-28.309-12.788-12.803-19.181-28.854-19.181-48.151,0-15.775,4.771-29.733,14.312-41.87,9.542-12.135,22.589-21.664,39.141-28.581,16.552-6.918,35.344-10.377,56.374-10.377,29.6,0,52.869,6.07,69.811,18.204,16.941,12.138,28.982,28.158,36.123,48.061Z" style="fill:#555;"/><path d="m4476.78,2558.037c-28.819,0-53.647-5.976-74.483-17.932-20.836-11.952-36.871-28.7-48.099-50.244-11.23-21.541-16.844-46.633-16.844-75.276s5.613-53.914,16.844-75.822c11.228-21.905,26.937-39.018,47.125-51.337,20.185-12.316,43.78-18.478,70.784-18.478,15.578,0,30.962,2.429,46.15,7.281,15.189,4.855,29.015,12.715,41.478,23.575,12.463,10.863,22.394,25.214,29.794,43.054,7.399,17.841,11.1,39.809,11.1,65.901v18.204h-230.56v-37.137h183.824c0-15.775-3.344-29.856-10.028-42.235-6.688-12.379-16.163-22.146-28.431-29.31-12.268-7.159-26.712-10.74-43.327-10.74-18.305,0-34.111,4.218-47.417,12.652-13.309,8.437-23.531,19.388-30.67,32.859-7.141,13.471-10.71,27.915-10.71,43.327v24.758c0,21.117,3.925,38.989,11.781,53.612,7.853,14.627,18.791,25.731,32.812,33.314,14.021,7.587,30.312,11.378,48.877,11.378,12.073,0,23.009-1.606,32.812-4.824,9.8-3.214,18.271-8.069,25.412-14.563,7.138-6.491,12.657-14.592,16.552-24.303l44.398,11.65c-4.674,14.08-12.529,26.428-23.562,37.047-11.035,10.621-24.667,18.873-40.893,24.758-16.229,5.886-34.468,8.829-54.72,8.829Z" style="fill:#555;"/><path d="m4984.85,2558.037c-27.003,0-50.663-6.007-70.979-18.022-20.318-12.015-36.155-28.823-47.514-50.427-11.361-21.601-17.039-46.846-17.039-75.731,0-29.127,5.678-54.551,17.039-76.277,11.358-21.723,27.195-38.594,47.514-50.608,20.315-12.015,43.976-18.022,70.979-18.022s50.66,6.008,70.979,18.022c20.315,12.015,36.152,28.886,47.514,50.608,11.358,21.727,17.039,47.15,17.039,76.277,0,28.886-5.681,54.131-17.039,75.731-11.361,21.604-27.198,38.412-47.514,50.427-20.319,12.016-43.979,18.022-70.979,18.022Zm0-38.594c20.511,0,37.389-4.915,50.63-14.745,13.241-9.831,23.042-22.756,29.404-38.776,6.359-16.02,9.542-33.374,9.542-52.065s-3.183-36.104-9.542-52.247c-6.362-16.14-16.163-29.187-29.404-39.14-13.241-9.95-30.119-14.928-50.63-14.928s-37.388,4.978-50.629,14.928c-13.242,9.953-23.045,23-29.404,39.14-6.362,16.143-9.542,33.56-9.542,52.247s3.18,36.046,9.542,52.065c6.359,16.021,16.162,28.945,29.404,38.776,13.241,9.83,30.116,14.745,50.629,14.745Z" style="fill:#555;"/><path d="m5322.691,2272.589v36.409h-161.236v-36.409h161.236Zm-112.943,279.623v-318.217c0-16.02,4.022-29.369,12.073-40.05,8.048-10.679,18.499-18.688,31.352-24.03,12.852-5.339,26.416-8.01,40.698-8.01,11.294,0,20.511.851,27.651,2.548,7.138,1.701,12.463,3.277,15.968,4.733l-13.241,37.138c-2.337-.729-5.55-1.639-9.64-2.73-4.089-1.093-9.444-1.639-16.064-1.639-15.189,0-26.128,3.581-32.812,10.741-6.688,7.162-10.028,17.658-10.028,31.493v308.022h-45.956Z" style="fill:#555;"/><path d="m5858.804,2295.89c-4.284-12.257-9.901-23.271-16.844-33.041-6.947-9.768-15.189-18.113-24.731-25.031-9.541-6.918-20.349-12.197-32.422-15.838-12.073-3.642-25.315-5.462-39.725-5.462-23.63,0-45.113,5.706-64.456,17.112-19.345,11.409-34.729,28.218-46.15,50.427-11.426,22.21-17.137,49.457-17.137,81.739s5.775,59.529,17.331,81.738c11.553,22.21,27.195,39.021,46.93,50.427,19.731,11.409,41.931,17.112,66.598,17.112,22.848,0,43.002-4.579,60.464-13.744,17.458-9.162,31.09-22.147,40.893-38.958,9.801-16.808,14.702-36.62,14.702-59.438l14.8,2.913h-119.953v-40.05h151.889v40.05c0,30.706-6.98,57.407-20.934,80.101-13.957,22.696-33.171,40.264-57.64,52.702-24.473,12.441-52.547,18.66-84.221,18.66-35.312,0-66.306-7.766-92.983-23.303-26.678-15.533-47.45-37.62-62.313-66.265-14.866-28.641-22.296-62.624-22.296-101.945,0-29.492,4.25-56.039,12.755-79.646,8.501-23.604,20.544-43.72,36.122-60.349,15.578-16.626,34.011-29.369,55.303-38.229,21.29-8.857,44.721-13.289,70.298-13.289,21.03,0,40.665,2.944,58.905,8.829,18.237,5.888,34.531,14.199,48.877,24.94,14.343,10.74,26.319,23.547,35.928,38.412,9.605,14.867,16.227,31.343,19.862,49.425h-49.851Z" style="fill:#555;"/><path d="m5998.726,2552.212v-279.623h44.398v42.234h3.115c5.453-13.835,15.317-25.06,29.6-33.678,14.278-8.616,30.377-12.926,48.292-12.926,3.375,0,7.595.062,12.658.183,5.062.122,8.891.304,11.488.546v43.69c-1.558-.363-5.096-.938-10.612-1.729-5.52-.788-11.328-1.184-17.429-1.184-14.54,0-27.49,2.821-38.848,8.465-11.361,5.644-20.319,13.412-26.873,23.302-6.557,9.894-9.834,21.149-9.834,33.77v176.949h-45.956Z" style="fill:#555;"/><path d="m6330.066,2558.037c-28.819,0-53.647-5.976-74.483-17.932-20.836-11.952-36.871-28.7-48.099-50.244-11.23-21.541-16.844-46.633-16.844-75.276s5.613-53.914,16.844-75.822c11.228-21.905,26.937-39.018,47.125-51.337,20.185-12.316,43.78-18.478,70.784-18.478,15.578,0,30.962,2.429,46.15,7.281,15.189,4.855,29.015,12.715,41.478,23.575,12.463,10.863,22.394,25.214,29.794,43.054,7.399,17.841,11.1,39.809,11.1,65.901v18.204h-230.56v-37.137h183.824c0-15.775-3.344-29.856-10.028-42.235-6.688-12.379-16.163-22.146-28.431-29.31-12.268-7.159-26.712-10.74-43.327-10.74-18.305,0-34.111,4.218-47.417,12.652-13.309,8.437-23.531,19.388-30.67,32.859-7.141,13.471-10.71,27.915-10.71,43.327v24.758c0,21.117,3.925,38.989,11.781,53.612,7.853,14.627,18.791,25.731,32.812,33.314,14.021,7.587,30.312,11.378,48.877,11.378,12.073,0,23.009-1.606,32.812-4.824,9.8-3.214,18.271-8.069,25.412-14.563,7.138-6.491,12.657-14.592,16.552-24.303l44.398,11.65c-4.674,14.08-12.529,26.428-23.562,37.047-11.035,10.621-24.667,18.873-40.893,24.758-16.229,5.886-34.468,8.829-54.72,8.829Z" style="fill:#555;"/><path d="m6657.534,2558.037c-28.819,0-53.647-5.976-74.483-17.932-20.836-11.952-36.871-28.7-48.099-50.244-11.23-21.541-16.844-46.633-16.844-75.276s5.613-53.914,16.844-75.822c11.228-21.905,26.937-39.018,47.125-51.337,20.185-12.316,43.78-18.478,70.784-18.478,15.578,0,30.962,2.429,46.15,7.281,15.189,4.855,29.015,12.715,41.478,23.575,12.463,10.863,22.394,25.214,29.794,43.054,7.399,17.841,11.1,39.809,11.1,65.901v18.204h-230.56v-37.137h183.824c0-15.775-3.344-29.856-10.028-42.235-6.688-12.379-16.163-22.146-28.431-29.31-12.268-7.159-26.712-10.74-43.327-10.74-18.305,0-34.111,4.218-47.417,12.652-13.309,8.437-23.531,19.388-30.67,32.859-7.141,13.471-10.71,27.915-10.71,43.327v24.758c0,21.117,3.925,38.989,11.781,53.612,7.853,14.627,18.791,25.731,32.812,33.314,14.021,7.587,30.312,11.378,48.877,11.378,12.073,0,23.009-1.606,32.812-4.824,9.8-3.214,18.271-8.069,25.412-14.563,7.138-6.491,12.657-14.592,16.552-24.303l44.398,11.65c-4.674,14.08-12.529,26.428-23.562,37.047-11.035,10.621-24.667,18.873-40.893,24.758-16.229,5.886-34.468,8.829-54.72,8.829Z" style="fill:#555;"/><path d="m6906.268,2384.001v168.211h-45.956v-279.623h44.398v43.691h3.895c7.01-14.2,17.653-25.638,31.936-34.316,14.279-8.675,32.715-13.016,55.303-13.016,20.252,0,37.973,3.854,53.161,11.56,15.189,7.709,27.001,19.359,35.441,34.953,8.437,15.596,12.657,35.288,12.657,59.074v177.677h-45.956v-174.765c0-21.965-6.104-39.108-18.305-51.428-12.204-12.316-28.951-18.478-50.24-18.478-14.672,0-27.749,2.976-39.238,8.92-11.488,5.948-20.544,14.627-27.164,26.033-6.621,11.409-9.932,25.244-9.932,41.506Z" style="fill:#555;"/><path d="m7503.132,2552.212h-123.068v-372.83h128.521c38.684,0,71.788,7.435,99.312,22.3,27.521,14.868,48.615,36.168,63.287,63.898,14.669,27.733,22.005,60.895,22.005,99.488,0,38.839-7.4,72.244-22.199,100.217-14.8,27.975-36.351,49.456-64.65,64.444-28.303,14.99-62.703,22.482-103.207,22.482Zm-74.775-40.05h71.66c32.974,0,60.299-5.945,81.981-17.841,21.679-11.893,37.841-28.823,48.487-50.791,10.644-21.965,15.968-48.12,15.968-78.462,0-30.098-5.258-56.039-15.773-77.824-10.515-21.783-26.225-38.531-47.124-50.245-20.903-11.711-46.93-17.567-78.087-17.567h-77.112v292.73Z" style="fill:#555;"/><path d="m7800.105,2225.985c-8.957,0-16.649-2.851-23.075-8.557-6.426-5.703-9.639-12.561-9.639-20.571s3.213-14.865,9.639-20.571c6.426-5.703,14.118-8.556,23.075-8.556s16.649,2.853,23.076,8.556c6.426,5.706,9.639,12.562,9.639,20.571s-3.213,14.868-9.639,20.571c-6.427,5.706-14.118,8.557-23.076,8.557Zm-23.367,326.227v-279.623h45.956v279.623h-45.956Z" style="fill:#555;"/><path d="m8034.677,2662.895c-22.199,0-41.283-2.64-57.251-7.919s-29.242-12.196-39.822-20.753c-10.582-8.556-18.985-17.689-25.217-27.397l36.609-24.03c4.152,5.097,9.41,10.951,15.772,17.567,6.359,6.613,15.092,12.379,26.191,17.294,11.1,4.916,25.671,7.373,43.717,7.373,24.146,0,44.072-5.461,59.781-16.384,15.707-10.923,23.562-28.035,23.562-51.337v-56.799h-3.895c-3.377,5.098-8.148,11.378-14.312,18.842-6.167,7.464-14.994,14.08-26.483,19.843-11.489,5.766-26.97,8.647-46.442,8.647-24.146,0-45.795-5.339-64.942-16.021-19.15-10.678-34.272-26.214-45.372-46.604-11.1-20.389-16.649-45.147-16.649-74.274,0-28.642,5.386-53.613,16.162-74.912,10.774-21.3,25.769-37.803,44.982-49.517,19.212-11.711,41.411-17.567,66.598-17.567,19.474,0,34.954,3.004,46.443,9.011,11.489,6.008,20.315,12.807,26.483,20.39,6.164,7.586,10.935,13.807,14.312,18.659h4.673v-44.419h44.398v287.633c0,24.03-5.812,43.601-17.428,58.71-11.62,15.11-27.198,26.215-46.735,33.314-19.54,7.1-41.252,10.649-65.137,10.649Zm-1.558-153.646c18.432,0,34.01-3.942,46.734-11.833,12.722-7.888,22.395-19.234,29.015-34.043,6.621-14.805,9.932-32.523,9.932-53.157,0-20.145-3.247-37.925-9.736-53.34-6.493-15.411-16.099-27.488-28.82-36.227-12.725-8.738-28.431-13.107-47.124-13.107-19.474,0-35.669,4.613-48.585,13.835-12.92,9.225-22.589,21.604-29.015,37.138-6.427,15.537-9.64,32.769-9.64,51.701,0,19.419,3.277,36.562,9.834,51.428,6.554,14.868,16.29,26.52,29.209,34.953,12.916,8.437,28.981,12.652,48.196,12.652Z" style="fill:#555;"/><path d="m8280.186,2225.985c-8.957,0-16.649-2.851-23.075-8.557-6.426-5.703-9.639-12.561-9.639-20.571s3.213-14.865,9.639-20.571c6.426-5.703,14.118-8.556,23.075-8.556s16.649,2.853,23.076,8.556c6.426,5.706,9.639,12.562,9.639,20.571s-3.213,14.868-9.639,20.571c-6.427,5.706-14.118,8.557-23.076,8.557Zm-23.367,326.227v-279.623h45.956v279.623h-45.956Z" style="fill:#555;"/><path d="m8523.337,2272.589v36.409h-155.005v-36.409h155.005Zm-109.827-66.993h45.956v266.516c0,12.138,1.914,21.209,5.744,27.216,3.828,6.008,8.763,10.013,14.8,12.016,6.036,2.002,12.429,3.004,19.181,3.004,5.063,0,9.217-.273,12.463-.819,3.243-.546,5.842-1.002,7.789-1.365l9.347,38.594c-3.115,1.092-7.466,2.213-13.047,3.367-5.583,1.152-12.657,1.729-21.226,1.729-12.982,0-25.674-2.611-38.069-7.828-12.398-5.217-22.655-13.167-30.767-23.848-8.115-10.678-12.171-24.149-12.171-40.414v-278.167Z" style="fill:#555;"/><path d="m8684.186,2558.765c-18.956,0-36.155-3.368-51.604-10.104-15.45-6.735-27.718-16.504-36.804-29.31-9.088-12.803-13.631-28.309-13.631-46.513,0-16.021,3.374-29.036,10.126-39.049,6.749-10.013,15.773-17.869,27.067-23.575,11.294-5.703,23.787-9.981,37.485-12.834,13.695-2.851,27.487-5.126,41.38-6.827,18.174-2.185,32.939-3.852,44.301-5.006,11.358-1.152,19.668-3.123,24.926-5.917,5.258-2.79,7.887-7.646,7.887-14.563v-1.456c0-17.96-5.228-31.918-15.676-41.871-10.452-9.95-26.259-14.928-47.417-14.928-21.94,0-39.141,4.491-51.604,13.472-12.462,8.982-21.226,18.568-26.288,28.764l-43.619-14.564c7.789-16.989,18.207-30.248,31.254-39.776,13.047-9.526,27.326-16.202,42.841-20.025,15.511-3.823,30.797-5.734,45.858-5.734,9.605,0,20.672,1.063,33.201,3.186,12.526,2.125,24.664,6.463,36.414,13.017,11.748,6.554,21.518,16.446,29.308,29.673,7.789,13.23,11.684,30.948,11.684,53.158v184.23h-45.956v-37.865h-2.337c-3.116,6.069-8.31,12.561-15.578,19.479-7.272,6.918-16.941,12.806-29.015,17.658s-26.81,7.282-44.204,7.282Zm7.011-38.594c18.173,0,33.523-3.337,46.053-10.013,12.527-6.673,22.005-15.292,28.431-25.851s9.64-21.663,9.64-33.314v-39.322c-1.947,2.185-6.201,4.159-12.755,5.917-6.558,1.761-14.088,3.276-22.589,4.551-8.504,1.274-16.747,2.367-24.73,3.277-7.984.91-14.443,1.67-19.376,2.275-11.945,1.456-23.075,3.795-33.396,7.009-10.321,3.217-18.631,8.01-24.926,14.382-6.298,6.371-9.444,15.019-9.444,25.941,0,14.928,5.939,26.187,17.817,33.77,11.879,7.586,26.971,11.378,45.275,11.378Z" style="fill:#555;"/><path d="m8959.798,2179.382v372.83h-45.956v-372.83h45.956Z" style="fill:#555;"/></svg>