<svg id="Layer_1" data-name="Layer 1" xmlns="http://www.w3.org/2000/svg" viewBox="0 0 780 400"><defs><style>.cls-1{isolation:isolate;}</style></defs><title>GoCD_Black_Logo</title><g class="cls-1"><path d="M521.55,270.2a107,107,0,0,1-6.33,37.63,83.88,83.88,0,0,1-18,29.14,80.33,80.33,0,0,1-28,18.81,94.32,94.32,0,0,1-36,6.66q-30.65,0-52.45-15.15t-28.47-41.46H382a44.31,44.31,0,0,0,11,15.49,49.45,49.45,0,0,0,14.15,8.82,63.36,63.36,0,0,0,14.49,4,86,86,0,0,0,11.66,1q16.31,0,27.8-5.83a54.62,54.62,0,0,0,18.65-15,58.21,58.21,0,0,0,10.32-20.81,88.6,88.6,0,0,0,3.16-23.31v-18a79.48,79.48,0,0,1-24.47,21.48,66,66,0,0,1-33.8,8.82,82.4,82.4,0,0,1-61.44-26.31,90.64,90.64,0,0,1-18-28.63,93.67,93.67,0,0,1-6.49-35,95,95,0,0,1,6.49-35.13,88.39,88.39,0,0,1,18-28.64,86.31,86.31,0,0,1,27.14-19.31,81.48,81.48,0,0,1,34.3-7.16,66.47,66.47,0,0,1,34.63,9.32Q485.24,121,494.24,134V106.7h27.31V270.2Zm-28.31-77.26a66.59,66.59,0,0,0-4.66-25,67.55,67.55,0,0,0-12.65-20.48,59,59,0,0,0-18.48-13.82,51.65,51.65,0,0,0-22.48-5,52.67,52.67,0,0,0-22.64,5A54.78,54.78,0,0,0,394,147.49a70.16,70.16,0,0,0-12.15,70.1A66.11,66.11,0,0,0,394,237.9a55.79,55.79,0,0,0,18.32,13.65,52.68,52.68,0,0,0,22.64,5,51.66,51.66,0,0,0,22.48-5,60.22,60.22,0,0,0,18.48-13.65,66.58,66.58,0,0,0,17.31-45Z"/></g><g class="cls-1"><path d="M627.78,102.37a81.88,81.88,0,0,1,34.13,7.16A84.54,84.54,0,0,1,689.21,129,93.62,93.62,0,0,1,714,192.94a90.33,90.33,0,0,1-6.66,34.8,91.56,91.56,0,0,1-18.15,28.31,83.9,83.9,0,0,1-61.43,26.14,82.15,82.15,0,0,1-34-7,86,86,0,0,1-27.31-19.14,90.36,90.36,0,0,1-25-63.11,92.89,92.89,0,0,1,6.66-35.13A91,91,0,0,1,566.5,129a87,87,0,0,1,27.31-19.48A80.69,80.69,0,0,1,627.78,102.37Zm-.17,153.84a51.88,51.88,0,0,0,22.54-5,61,61,0,0,0,31.06-33.63,67.86,67.86,0,0,0,4.51-24.65,70.14,70.14,0,0,0-4.51-25.14,62.23,62.23,0,0,0-31.06-34.3,51.83,51.83,0,0,0-45.09,0,60.75,60.75,0,0,0-18.36,13.82,64.34,64.34,0,0,0-12.36,20.48,69.92,69.92,0,0,0-4.51,25.14,67.65,67.65,0,0,0,4.51,24.65,62.49,62.49,0,0,0,12.36,20.14,59.57,59.57,0,0,0,18.36,13.49A51.92,51.92,0,0,0,627.61,256.21Z"/></g><path d="M94.35,321A28.36,28.36,0,0,1,66,292.68V179.29a28.35,28.35,0,0,1,56.7,0v60.42l90.63-60.42L78.62,89.49a28.35,28.35,0,0,1,31.45-47.17L280.15,155.71a28.35,28.35,0,0,1,0,47.17L110.07,316.27A28.32,28.32,0,0,1,94.35,321Z"/><g class="cls-1"><path d="M718.82,66.08a14.24,14.24,0,0,1-1.13,5.64,14.48,14.48,0,0,1-7.71,7.7,14,14,0,0,1-5.63,1.14,14.16,14.16,0,0,1-5.65-1.14,14.47,14.47,0,0,1-4.59-3.1,14.63,14.63,0,0,1-3.1-4.6,14.36,14.36,0,0,1,0-11.26,14.65,14.65,0,0,1,3.1-4.58,14.47,14.47,0,0,1,4.59-3.1,14.16,14.16,0,0,1,5.65-1.14A14,14,0,0,1,710,52.78a14.67,14.67,0,0,1,4.61,3.1,14.82,14.82,0,0,1,3.1,4.58A14.11,14.11,0,0,1,718.82,66.08Zm-2.88,0A11.36,11.36,0,0,0,715,61.5a12.12,12.12,0,0,0-2.47-3.74,11.46,11.46,0,0,0-16.4,0,12.36,12.36,0,0,0-2.49,3.74,11.53,11.53,0,0,0-.92,4.58,11.66,11.66,0,0,0,.92,4.6,12.15,12.15,0,0,0,2.49,3.76,11.49,11.49,0,0,0,16.4,0A12.1,12.1,0,0,0,715,70.68,11.49,11.49,0,0,0,715.94,66.08Zm-4.28,7.64h-3.43l-2.88-5.56h-3.88v5.52h-3V57.76h7.63a5.59,5.59,0,0,1,4,1.4,5,5,0,0,1,1.49,3.8,5.07,5.07,0,0,1-.91,3,4.93,4.93,0,0,1-2.41,1.84ZM701.47,65.4h4.68a3,3,0,0,0,1.7-.54,2.17,2.17,0,0,0,.77-1.9,2.37,2.37,0,0,0-.65-1.9,2.82,2.82,0,0,0-1.82-.54h-4.68Z"/></g></svg>