<?xml version="1.0" encoding="UTF-8" standalone="no"?>
<!-- Generator: Adobe Illustrator 27.2.0, SVG Export Plug-In . SVG Version: 6.00 Build 0)  -->

<svg
   version="1.1"
   id="svg7778"
   x="0px"
   y="0px"
   viewBox="0 0 253.2 80.699997"
   xml:space="preserve"
   sodipodi:docname="FaktorZehn_blau.svg"
   width="253.2"
   height="80.699997"
   inkscape:version="1.1.2 (0a00cf5339, 2022-02-04)"
   inkscape:export-filename="/exchange/git/logos/FaktorZehn_blau.png"
   inkscape:export-xdpi="95.924171"
   inkscape:export-ydpi="95.924171"
   xmlns:inkscape="http://www.inkscape.org/namespaces/inkscape"
   xmlns:sodipodi="http://sodipodi.sourceforge.net/DTD/sodipodi-0.dtd"
   xmlns="http://www.w3.org/2000/svg"
   xmlns:svg="http://www.w3.org/2000/svg"><defs
   id="defs179" />
<style
   type="text/css"
   id="style2">
	.st0{fill:#E6E8ED;}
	.st1{fill-rule:evenodd;clip-rule:evenodd;fill:url(#path4183_00000158722894388936465010000014621130356638646686_);}
	.st2{enable-background:new    ;}
	.st3{fill:#009FE3;}
	
		.st4{fill-rule:evenodd;clip-rule:evenodd;fill:#FFFFFF;stroke:#009FE3;stroke-width:4.4817;stroke-linejoin:round;stroke-miterlimit:15.1181;}
	.st5{fill:none;stroke:#009FE3;stroke-width:5.9756;stroke-linecap:round;stroke-miterlimit:15.1181;}
	.st6{fill-rule:evenodd;clip-rule:evenodd;fill:#009FE3;}
	.st7{fill:#FFFFFF;}
	.st8{fill:#1D1D1B;}
	.st9{font-family:'Montserrat-Bold';}
	.st10{font-size:34.4423px;}
	.st11{fill:#79CDF4;}
</style>
<sodipodi:namedview
   bordercolor="#666666"
   borderopacity="1.0"
   id="base"
   inkscape:current-layer="svg7778"
   inkscape:cx="371.42857"
   inkscape:cy="156.07143"
   inkscape:document-units="mm"
   inkscape:pageopacity="0.0"
   inkscape:pageshadow="2"
   inkscape:window-height="1376"
   inkscape:window-maximized="1"
   inkscape:window-width="2502"
   inkscape:window-x="1978"
   inkscape:window-y="27"
   inkscape:zoom="1.4"
   pagecolor="#ffffff"
   showgrid="false"
   units="px"
   inkscape:pagecheckerboard="0"
   lock-margins="true"
   fit-margin-top="26.9"
   fit-margin-left="26.9"
   fit-margin-right="26.9"
   fit-margin-bottom="26.9">
	</sodipodi:namedview>
<g
   id="layer1"
   transform="translate(0,-220.27083)"
   inkscape:groupmode="layer"
   inkscape:label="Layer 1">
	
		
	
		<linearGradient
   id="path4183_00000070115224704539194360000008523273875692193981_"
   gradientUnits="userSpaceOnUse"
   x1="59.9557"
   y1="191.4809"
   x2="464.4776"
   y2="191.4809"
   gradientTransform="matrix(1.349,0,0,1.3018,-80.8803,149.6922)">
		<stop
   offset="0"
   style="stop-color:#FFFFFF;stop-opacity:0.2427"
   id="stop6" />
		<stop
   offset="1"
   style="stop-color:#F0F0F0"
   id="stop8" />
	</linearGradient>
	
		
	
	
	
	
	
	
	
	
	
</g>





<g
   id="FakorZehn_x5F_Logo_x5F_blau_00000041980699345322068770000008479020993047042957_"
   transform="translate(-272.8,-113.7)">
	<g
   id="g169">
		<g
   id="g135">
			<polygon
   class="st3"
   points="320.1,140.8 318,145.4 304.6,145.4 304.6,151.7 315.1,151.7 313.1,156.2 304.6,156.2 304.6,167 299.7,167 299.7,140.8 "
   id="polygon133" />
		</g>
		<g
   id="g139">
			<path
   class="st3"
   d="m 327.2,145.4 h -5 l -9.7,21.6 h 5.4 l 1.7,-4.1 h 10.1 l 1.7,4.1 h 5.4 z m -5.8,13.3 3.3,-7.7 3.3,7.7 z"
   id="path137" />
		</g>
		<g
   id="g143">
			<polygon
   class="st3"
   points="350.1,145.4 356.5,145.4 347,156 357.4,167 350.8,167 343.1,158.8 343.1,167 338.2,167 338.2,145.4 343.1,145.4 343.1,153.3 "
   id="polygon141" />
		</g>
		<g
   id="g147">
			<polygon
   class="st3"
   points="375.9,145.4 375.9,149.9 369.3,149.9 369.3,167 364.3,167 364.3,149.9 357.3,149.9 361.3,145.4 "
   id="polygon145" />
		</g>
		<g
   id="g151">
			<path
   class="st11"
   d="m 387.6,144.9 c -6.8,0 -11.4,4.6 -11.4,11.3 0,6.7 4.6,11.3 11.4,11.3 6.8,0 11.3,-4.5 11.3,-11.3 0,-6.7 -4.5,-11.3 -11.3,-11.3 z m 0,18.1 c -3.8,0 -6.4,-2.7 -6.4,-6.7 0,-4 2.6,-6.7 6.4,-6.7 3.8,0 6.3,2.7 6.3,6.7 0.1,3.9 -2.5,6.7 -6.3,6.7 z"
   id="path149" />
		</g>
		<g
   id="g155">
			<polygon
   class="st3"
   points="433.4,143.5 419.4,162.6 433.5,162.6 433.5,167 411.5,167 411.5,164.3 425.7,145.3 412,145.3 414.1,140.6 433.4,140.6 "
   id="polygon153" />
		</g>
		<g
   id="g159">
			<polygon
   class="st3"
   points="453.1,154 453.1,158.2 442.1,158.2 442.1,162.6 453.6,162.6 453.6,167 437.3,167 437.3,145.4 453.6,145.4 453.6,149.9 442.1,149.9 442.1,154 "
   id="polygon157" />
		</g>
		<g
   id="g163">
			<polygon
   class="st3"
   points="462.4,145.4 462.4,153.7 471.4,153.7 471.4,145.4 476.4,145.4 476.4,167 471.4,167 471.4,158.4 462.4,158.4 462.4,167 457.5,167 457.5,145.4 "
   id="polygon161" />
		</g>
		<g
   id="g167">
			<polygon
   class="st3"
   points="484.4,145.4 494.2,158.6 494.2,145.4 499.1,145.4 499.1,167 494.7,167 485,154 485,158.9 485,167 480.1,167 480.1,145.4 "
   id="polygon165" />
		</g>
	</g>
	<g
   id="g175">
		<g
   id="g173">
			<polygon
   class="st11"
   points="406,167 401.1,167 401.1,145.4 411.3,145.4 409.3,149.9 406,149.9 "
   id="polygon171" />
		</g>
	</g>
</g>
</svg>
