<?xml version="1.0" encoding="UTF-8"?>
<svg id="Layer_1" data-name="Layer 1" xmlns="http://www.w3.org/2000/svg" viewBox="0 0 653.15 85.73">
  <defs>
    <style>
      .cls-1 {
        fill: #fd0177;
      }
      .cls-2 {
        fill: #01bd9c;
      }
      .cls-3 {
        fill: #010149;
      }
      .cls-4 {
        fill: #f4e301;
      }
      .cls-5 {
        fill: #0fbbfb;
      }
    </style>
  </defs>
  <g>
    <path class="cls-3" d="M177.37,43c-.16,14.01-8.75,28.03-27.79,28.03s-27.87-13.7-27.87-27.95,9.14-28.57,27.87-28.57,27.95,14.32,27.79,28.49Zm-45.6,.23c.23,8.9,5.03,18.43,17.81,18.43s17.57-9.6,17.73-18.5c.16-9.14-4.95-19.35-17.73-19.35s-18.04,10.3-17.81,19.43Z"/>
    <path class="cls-3" d="M184.17,85.73V31.62h8.83l.62,5.27c2.94-4.26,8.05-6.12,12.39-6.12,11.77,0,19.59,8.75,19.59,19.97s-7.05,19.97-19.28,19.97c-4.03,0-9.99-1.24-12.7-5.42v20.44h-9.44Zm31.97-34.99c0-5.96-4.03-10.84-10.84-10.84s-10.84,4.88-10.84,10.84,4.41,10.84,10.84,10.84,10.84-4.88,10.84-10.84Z"/>
    <path class="cls-3" d="M240.61,54.07c.62,4.72,4.72,8.13,11.38,8.13,3.48,0,8.05-1.32,10.22-3.56l6.04,5.96c-4.03,4.18-10.61,6.19-16.41,6.19-13.16,0-20.98-8.13-20.98-20.36s7.9-19.97,20.28-19.97,20.75,7.9,19.28,23.61h-29.81Zm20.75-7.82c-.62-4.95-4.49-7.43-9.91-7.43-5.11,0-9.29,2.48-10.68,7.43h20.59Z"/>
    <path class="cls-3" d="M305.79,69.78v-19.97c0-5.81-3.17-10.22-9.21-10.22s-9.75,4.88-9.75,10.68v19.51h-9.37V31.54h8.44l.62,5.19c3.87-3.79,7.74-5.73,12.54-5.73,8.98,0,16.18,6.74,16.18,18.74v20.05h-9.45Z"/>
    <path class="cls-3" d="M387.62,50.66c0-11.46,8.67-19.74,19.43-19.74s20.36,6.58,18.89,21.52h-34.45c.77,8.98,7.66,14.17,15.56,14.17,5.03,0,10.92-2.01,13.78-5.81l2.71,2.17c-3.72,4.88-10.37,7.36-16.49,7.36-10.76,0-19.43-7.51-19.43-19.67Zm34.92-1.55c-.08-9.44-6.27-14.71-15.48-14.71-7.9,0-14.71,5.34-15.56,14.71h31.05Z"/>
    <path class="cls-3" d="M378.17,15.59v54.19h-3.79V15.59h3.79Z"/>
    <path class="cls-3" d="M489.1,69.78v-22.92c0-7.35-4.95-12.54-12.23-12.54s-12.31,5.42-12.31,12.77v22.68h-3.79v-22.68c0-7.36-5.03-12.7-12.31-12.7s-12.23,5.34-12.23,12.7v22.68h-3.79V31.54h3.56l.08,6.35c2.63-5.03,7.51-7.12,12.46-7.12,5.81,0,11.92,2.63,14.17,9.44,2.32-6.27,8.28-9.44,14.17-9.44,9.37,0,16.03,6.58,16.03,16.1v22.92h-3.79Z"/>
    <path class="cls-3" d="M501.41,50.66c0-11.46,8.67-19.74,19.43-19.74s20.36,6.58,18.89,21.52h-34.45c.77,8.98,7.66,14.17,15.56,14.17,5.03,0,10.92-2.01,13.78-5.81l2.71,2.17c-3.72,4.88-10.37,7.36-16.49,7.36-10.76,0-19.43-7.51-19.43-19.67Zm34.92-1.55c-.08-9.44-6.27-14.71-15.48-14.71-7.9,0-14.71,5.34-15.56,14.71h31.05Z"/>
    <path class="cls-3" d="M553.27,31.54v6.81c2.94-5.26,8.28-7.43,13.63-7.51,10.22,0,17.26,6.27,17.26,16.88v22.06h-3.79v-21.99c0-8.67-5.34-13.32-13.63-13.24-7.9,.08-13.39,6.04-13.39,13.94v21.29h-3.79V31.54h3.72Z"/>
    <path class="cls-3" d="M601.19,20v11.54h13.01v3.17h-13.01v23.3c0,5.19,1.08,8.83,7.05,8.83,1.86,0,3.95-.62,5.88-1.55l1.32,3.1c-2.4,1.16-4.8,1.94-7.2,1.94-8.13,0-10.76-4.8-10.76-12.31v-23.3h-8.13v-3.17h8.13v-11.15l3.72-.39Z"/>
    <path class="cls-3" d="M649.19,38.51c-3.87-3.41-7.66-4.03-11.92-4.03-5.96-.08-11.69,2.17-11.54,7.04,.15,5.11,6.81,6.12,11.61,6.97,6.81,1.16,16.18,2.32,15.79,11.23-.23,8.44-8.98,10.68-15.72,10.68s-13.39-2.56-16.72-7.66l2.79-2.48c3.17,4.57,8.9,6.5,14.01,6.5,4.65,0,11.69-1.24,11.92-7.28,.15-5.5-6.19-6.58-12.46-7.59-7.43-1.24-14.79-2.63-14.86-10.3-.08-7.51,7.43-10.76,15.17-10.68,5.57,0,10.45,1.55,14.25,5.11l-2.32,2.48Z"/>
    <g>
      <polygon class="cls-3" points="327.04 15.41 327.04 19.36 331.14 19.36 343.83 19.36 365.36 19.36 365.36 15.41 327.04 15.41"/>
      <polygon class="cls-3" points="331.14 65.55 327.04 65.55 327.04 69.6 365.36 69.6 365.36 65.58 331.14 65.58 331.14 65.55"/>
      <polygon class="cls-3" points="331.14 40.37 327.04 40.37 327.04 44.19 345.52 44.19 345.52 44.21 365.36 44.21 365.36 40.41 331.14 40.41 331.14 40.37"/>
    </g>
  </g>
  <g>
    <path class="cls-2" d="M41.76,65.25h34.5c2.93-4.28,5.07-9.14,6.24-14.36h-19.09c-3.57,8.43-11.93,14.36-21.65,14.36Z"/>
    <path class="cls-2" d="M41.76,18.26c9.72,0,18.08,5.93,21.65,14.36h19.09c-1.17-5.22-3.31-10.08-6.24-14.36H41.76Z"/>
    <path class="cls-2" d="M41.76,65.25c-12.96,0-23.5-10.54-23.5-23.5s10.54-23.5,23.5-23.5h-1.93V.05C17.69,1.06,0,19.38,0,41.76s17.69,40.69,39.82,41.71v-18.21h1.93Z"/>
    <path class="cls-1" d="M39.82,0V.05c.64-.03,1.28-.05,1.93-.05h-1.93Z"/>
    <path class="cls-1" d="M76.26,18.26h31.08V0H41.76c14.32,0,26.97,7.25,34.5,18.26Z"/>
    <path class="cls-2" d="M41.76,18.26h34.5C68.73,7.25,56.08,0,41.76,0c-.65,0-1.29,.02-1.93,.05V18.26h1.93Z"/>
    <path class="cls-5" d="M82.5,50.89h24.84v-18.26h-24.84c.66,2.94,1.02,5.99,1.02,9.13s-.36,6.19-1.02,9.13Z"/>
    <path class="cls-2" d="M65.25,41.76c0,3.24-.66,6.32-1.85,9.13h19.09c.66-2.94,1.02-5.99,1.02-9.13s-.36-6.19-1.02-9.13h-19.09c1.19,2.81,1.85,5.89,1.85,9.13Z"/>
    <path class="cls-4" d="M39.82,83.52h1.93c-.65,0-1.29-.02-1.93-.05v.05Z"/>
    <path class="cls-4" d="M41.76,83.52H107.34v-18.26h-31.08c-7.53,11.02-20.18,18.26-34.5,18.26Z"/>
    <path class="cls-2" d="M39.82,65.25v18.21c.64,.03,1.28,.05,1.93,.05,14.32,0,26.97-7.25,34.5-18.26H39.82Z"/>
  </g>
</svg>