<svg width="436" height="400" viewBox="0 0 436 400" fill="none" xmlns="http://www.w3.org/2000/svg">
  <defs>
    <linearGradient id="gaugeGradient" x1="54" y1="200" x2="381" y2="200" gradientUnits="userSpaceOnUse">
      <stop stop-color="#91499D"/>
      <stop offset="0.681928" stop-color="#D31455"/>
      <stop offset="1" stop-color="#FF1464"/>
    </linearGradient>
    <radialGradient id="centerGradient" cx="0" cy="0" r="1" gradientUnits="userSpaceOnUse" gradientTransform="translate(217.5 250) scale(150 150)">
      <stop stop-color="#D478F4"/>
      <stop offset="1" stop-color="#FF1464"/>
    </radialGradient>
    <filter id="glow">
      <feGaussianBlur stdDeviation="3" result="coloredBlur"/>
      <feMerge> 
        <feMergeNode in="coloredBlur"/>
        <feMergeNode in="SourceGraphic"/>
      </feMerge>
    </filter>
  </defs>
  
  <!-- Background gauge arc -->
  <g filter="url(#blur)">
    <path d="M 80 280 A 120 120 0 0 1 355 280" stroke="url(#gaugeGradient)" stroke-width="24" fill="none" opacity="0.3"/>
  </g>
  
  <!-- Main gauge background -->
  <circle cx="217.5" cy="280" r="130" fill="none" stroke="#E4E8F3" stroke-width="2" opacity="0.2"/>
  
  <!-- Layered gauge arcs (similar to original layered design) -->
  <g filter="url(#glow)">
    <!-- Outer arc -->
    <path d="M 90 290 A 110 110 0 0 1 345 290" stroke="url(#gaugeGradient)" stroke-width="16" fill="none" opacity="0.8"/>
    
    <!-- Middle arc -->
    <path d="M 105 295 A 95 95 0 0 1 330 295" stroke="url(#centerGradient)" stroke-width="12" fill="none" opacity="0.6"/>
    
    <!-- Inner arc -->
    <path d="M 120 300 A 80 80 0 0 1 315 300" stroke="#E4E8F3" stroke-width="8" fill="none" opacity="0.4"/>
  </g>
  
  <!-- Gauge markings -->
  <g stroke="#E4E8F3" stroke-width="2" opacity="0.6">
    <!-- Major ticks -->
    <line x1="90" y1="290" x2="85" y2="285"/>
    <line x1="130" y1="210" x2="125" y2="205"/>
    <line x1="217.5" y1="160" x2="217.5" y2="155"/>
    <line x1="305" y1="210" x2="310" y2="205"/>
    <line x1="345" y1="290" x2="350" y2="285"/>
    
    <!-- Minor ticks -->
    <line x1="110" y1="245" x2="107" y2="242"/>
    <line x1="155" y1="185" x2="152" y2="182"/>
    <line x1="280" y1="185" x2="283" y2="182"/>
    <line x1="325" y1="245" x2="328" y2="242"/>
  </g>
  
  <!-- Performance indicators -->
  <text x="120" y="240" fill="#91499D" font-size="12" font-weight="bold">SLOW</text>
  <text x="300" y="240" fill="#FF1464" font-size="12" font-weight="bold">FAST</text>
  
  <!-- Center hub -->
  <circle cx="217.5" cy="280" r="15" fill="url(#centerGradient)" filter="url(#glow)"/>
  <circle cx="217.5" cy="280" r="8" fill="#E4E8F3"/>
  
  <!-- Performance needle pointing to high performance -->
  <g filter="url(#glow)">
    <line x1="217.5" y1="280" x2="285" y2="220" stroke="url(#needleGradient)" stroke-width="4" stroke-linecap="round"/>
    <circle cx="285" cy="220" r="3" fill="#FF1464"/>
  </g>
  
  <!-- Reliability shield in top right -->
  <g transform="translate(320, 80)">
    <path d="M 0 0 L 15 -10 L 30 0 L 25 25 L 5 25 Z" fill="url(#gaugeGradient)" opacity="0.8"/>
    <path d="M 7 8 L 12 13 L 22 3" stroke="#E4E8F3" stroke-width="2" fill="none" stroke-linecap="round"/>
  </g>
  
  <!-- Performance text -->
  <text x="217.5" y="340" text-anchor="middle" fill="url(#gaugeGradient)" font-size="16" font-weight="bold">HIGH PERFORMANCE</text>
</svg>
