<svg width="436" height="400" viewBox="0 0 436 400" fill="none" xmlns="http://www.w3.org/2000/svg">
<g filter="url(#filter0_i_2354_11992)">
<path d="M243.121 339.413L371.754 273.424C377.91 270.346 380.992 264.418 381 258.486V250.123H54.3777V258.486C54.3853 264.418 57.4673 270.346 63.6236 273.424L192.257 339.413C208.267 347.418 227.111 347.418 243.121 339.413Z" fill="url(#paint0_linear_2354_11992)"/>
</g>
<g filter="url(#filter1_i_2354_11992)">
<path d="M192.257 170.846C208.267 162.841 227.111 162.841 243.121 170.846L371.754 235.163C384.082 241.327 384.082 258.919 371.754 265.083L243.121 329.4C227.111 337.405 208.267 337.405 192.257 329.4L63.6236 265.083C51.2957 258.919 51.2957 241.327 63.6236 235.163L192.257 170.846Z" fill="url(#paint1_radial_2354_11992)"/>
</g>
<g filter="url(#filter2_f_2354_11992)">
<path d="M243.121 329.4L371.754 265.083C377.366 262.277 380.423 257.104 380.926 251.718C377.24 260.153 375.712 260.663 371.051 263.435L242.723 326.927C239.069 328.564 229.137 332.818 217.049 332.818C204.96 332.818 195.723 328.564 192.496 326.927C151.272 306.276 67.5944 265.425 63.6237 263.309C59.653 261.194 56.151 256.425 54.8963 254.304C56.0104 258.715 58.9195 262.731 63.6237 265.083L192.257 329.4C208.267 337.405 227.111 337.405 243.121 329.4Z" fill="url(#paint2_linear_2354_11992)"/>
</g>
<g filter="url(#filter3_bi_2354_11992)">
<path d="M192.257 115.717C208.267 107.712 227.111 107.712 243.121 115.717L371.754 180.033C384.082 186.197 384.082 203.789 371.754 209.953L243.121 274.27C227.111 282.275 208.267 282.275 192.257 274.27L63.6236 209.953C51.2957 203.789 51.2957 186.197 63.6236 180.033L192.257 115.717Z" fill="#E4E8F3" fill-opacity="0.4"/>
</g>
<g filter="url(#filter4_bi_2354_11992)">
<path d="M54.3777 194.993V203.356C54.3853 209.288 57.4673 215.216 63.6236 218.294L192.257 284.284C208.267 292.288 227.111 292.288 243.121 284.284L371.754 218.294C377.91 215.216 380.992 209.288 381 203.356V195.03C380.987 200.957 377.906 206.878 371.754 209.953L243.121 274.27C227.111 282.275 208.267 282.275 192.257 274.27L63.6236 209.953C57.4597 206.871 54.3777 200.932 54.3777 194.993Z" fill="#E4E8F3" fill-opacity="0.4"/>
</g>
<g filter="url(#filter5_f_2354_11992)">
<path d="M243.121 274.27L371.754 209.953C377.366 207.148 380.423 201.974 380.926 196.588C377.24 205.024 375.712 205.533 371.051 208.306L242.723 271.797C239.069 273.434 229.137 277.688 217.049 277.688C204.96 277.688 195.723 273.434 192.496 271.797C151.272 251.146 67.5944 210.295 63.6237 208.18C59.653 206.064 56.151 201.295 54.8963 199.175C56.0104 203.585 58.9195 207.601 63.6237 209.953L192.257 274.27C208.267 282.275 227.111 282.275 243.121 274.27Z" fill="url(#paint3_linear_2354_11992)"/>
</g>
<g filter="url(#filter6_bi_2354_11992)">
<path d="M192.257 60.5869C208.267 52.5819 227.111 52.5819 243.121 60.5869L371.754 124.903C384.082 131.067 384.082 148.66 371.754 154.824L243.121 219.14C227.111 227.145 208.267 227.145 192.257 219.14L63.6236 154.824C51.2957 148.66 51.2957 131.067 63.6236 124.903L192.257 60.5869Z" fill="#E4E8F3" fill-opacity="0.4"/>
</g>
<g filter="url(#filter7_bi_2354_11992)">
<path d="M54.3777 139.864V148.227C54.3853 154.158 57.4673 160.087 63.6236 163.165L192.257 229.154C208.267 237.159 227.111 237.159 243.121 229.154L371.754 163.165C377.91 160.086 380.992 154.158 381 148.227V139.9C380.987 145.827 377.906 151.748 371.754 154.824L243.121 219.14C227.111 227.145 208.267 227.145 192.257 219.14L63.6236 154.824C57.4597 151.742 54.3777 145.803 54.3777 139.864Z" fill="#E4E8F3" fill-opacity="0.4"/>
</g>
<g filter="url(#filter8_f_2354_11992)">
<path d="M243.121 219.14L371.754 154.824C377.366 152.018 380.423 146.844 380.926 141.458C377.24 149.894 375.712 150.403 371.051 153.176L242.723 216.667C239.069 218.304 229.137 222.559 217.049 222.559C204.96 222.559 195.723 218.304 192.496 216.667C151.272 196.016 67.5944 155.165 63.6237 153.05C59.653 150.935 56.151 146.165 54.8963 144.045C56.0104 148.455 58.9195 152.472 63.6237 154.824L192.257 219.14C208.267 227.145 227.111 227.145 243.121 219.14Z" fill="url(#paint4_linear_2354_11992)"/>
</g>
<defs>
<filter id="filter0_i_2354_11992" x="54.3777" y="249.741" width="326.622" height="95.6756" filterUnits="userSpaceOnUse" color-interpolation-filters="sRGB">
<feFlood flood-opacity="0" result="BackgroundImageFix"/>
<feBlend mode="normal" in="SourceGraphic" in2="BackgroundImageFix" result="shape"/>
<feColorMatrix in="SourceAlpha" type="matrix" values="0 0 0 0 0 0 0 0 0 0 0 0 0 0 0 0 0 0 127 0" result="hardAlpha"/>
<feOffset dy="-0.38169"/>
<feGaussianBlur stdDeviation="0.38169"/>
<feComposite in2="hardAlpha" operator="arithmetic" k2="-1" k3="1"/>
<feColorMatrix type="matrix" values="0 0 0 0 0 0 0 0 0 0 0 0 0 0 0 0 0 0 0.15 0"/>
<feBlend mode="darken" in2="shape" result="effect1_innerShadow_2354_11992"/>
</filter>
<filter id="filter1_i_2354_11992" x="54.3777" y="164.843" width="326.622" height="170.942" filterUnits="userSpaceOnUse" color-interpolation-filters="sRGB">
<feFlood flood-opacity="0" result="BackgroundImageFix"/>
<feBlend mode="normal" in="SourceGraphic" in2="BackgroundImageFix" result="shape"/>
<feColorMatrix in="SourceAlpha" type="matrix" values="0 0 0 0 0 0 0 0 0 0 0 0 0 0 0 0 0 0 127 0" result="hardAlpha"/>
<feOffset dy="0.38169"/>
<feGaussianBlur stdDeviation="0.38169"/>
<feComposite in2="hardAlpha" operator="arithmetic" k2="-1" k3="1"/>
<feColorMatrix type="matrix" values="0 0 0 0 0 0 0 0 0 0 0 0 0 0 0 0 0 0 0.1 0"/>
<feBlend mode="darken" in2="shape" result="effect1_innerShadow_2354_11992"/>
</filter>
<filter id="filter2_f_2354_11992" x="54.133" y="250.954" width="327.556" height="85.2123" filterUnits="userSpaceOnUse" color-interpolation-filters="sRGB">
<feFlood flood-opacity="0" result="BackgroundImageFix"/>
<feBlend mode="normal" in="SourceGraphic" in2="BackgroundImageFix" result="shape"/>
<feGaussianBlur stdDeviation="0.38169" result="effect1_foregroundBlur_2354_11992"/>
</filter>
<filter id="filter3_bi_2354_11992" x="39.1101" y="94.4452" width="357.158" height="201.096" filterUnits="userSpaceOnUse" color-interpolation-filters="sRGB">
<feFlood flood-opacity="0" result="BackgroundImageFix"/>
<feGaussianBlur in="BackgroundImageFix" stdDeviation="7.6338"/>
<feComposite in2="SourceAlpha" operator="in" result="effect1_backgroundBlur_2354_11992"/>
<feBlend mode="normal" in="SourceGraphic" in2="effect1_backgroundBlur_2354_11992" result="shape"/>
<feColorMatrix in="SourceAlpha" type="matrix" values="0 0 0 0 0 0 0 0 0 0 0 0 0 0 0 0 0 0 127 0" result="hardAlpha"/>
<feOffset dy="0.38169"/>
<feGaussianBlur stdDeviation="0.38169"/>
<feComposite in2="hardAlpha" operator="arithmetic" k2="-1" k3="1"/>
<feColorMatrix type="matrix" values="0 0 0 0 0.342674 0 0 0 0 0.352133 0 0 0 0 0.579167 0 0 0 0.1 0"/>
<feBlend mode="darken" in2="shape" result="effect2_innerShadow_2354_11992"/>
</filter>
<filter id="filter4_bi_2354_11992" x="39.1101" y="179.726" width="357.157" height="125.829" filterUnits="userSpaceOnUse" color-interpolation-filters="sRGB">
<feFlood flood-opacity="0" result="BackgroundImageFix"/>
<feGaussianBlur in="BackgroundImageFix" stdDeviation="7.6338"/>
<feComposite in2="SourceAlpha" operator="in" result="effect1_backgroundBlur_2354_11992"/>
<feBlend mode="normal" in="SourceGraphic" in2="effect1_backgroundBlur_2354_11992" result="shape"/>
<feColorMatrix in="SourceAlpha" type="matrix" values="0 0 0 0 0 0 0 0 0 0 0 0 0 0 0 0 0 0 127 0" result="hardAlpha"/>
<feOffset dy="-0.38169"/>
<feGaussianBlur stdDeviation="0.38169"/>
<feComposite in2="hardAlpha" operator="arithmetic" k2="-1" k3="1"/>
<feColorMatrix type="matrix" values="0 0 0 0 0.341176 0 0 0 0 0.352941 0 0 0 0 0.580392 0 0 0 0.25 0"/>
<feBlend mode="darken" in2="shape" result="effect2_innerShadow_2354_11992"/>
</filter>
<filter id="filter5_f_2354_11992" x="54.133" y="195.825" width="327.556" height="85.2123" filterUnits="userSpaceOnUse" color-interpolation-filters="sRGB">
<feFlood flood-opacity="0" result="BackgroundImageFix"/>
<feBlend mode="normal" in="SourceGraphic" in2="BackgroundImageFix" result="shape"/>
<feGaussianBlur stdDeviation="0.38169" result="effect1_foregroundBlur_2354_11992"/>
</filter>
<filter id="filter6_bi_2354_11992" x="39.1101" y="39.3155" width="357.158" height="201.096" filterUnits="userSpaceOnUse" color-interpolation-filters="sRGB">
<feFlood flood-opacity="0" result="BackgroundImageFix"/>
<feGaussianBlur in="BackgroundImageFix" stdDeviation="7.6338"/>
<feComposite in2="SourceAlpha" operator="in" result="effect1_backgroundBlur_2354_11992"/>
<feBlend mode="normal" in="SourceGraphic" in2="effect1_backgroundBlur_2354_11992" result="shape"/>
<feColorMatrix in="SourceAlpha" type="matrix" values="0 0 0 0 0 0 0 0 0 0 0 0 0 0 0 0 0 0 127 0" result="hardAlpha"/>
<feOffset dy="0.38169"/>
<feGaussianBlur stdDeviation="0.38169"/>
<feComposite in2="hardAlpha" operator="arithmetic" k2="-1" k3="1"/>
<feColorMatrix type="matrix" values="0 0 0 0 0.342674 0 0 0 0 0.352133 0 0 0 0 0.579167 0 0 0 0.1 0"/>
<feBlend mode="darken" in2="shape" result="effect2_innerShadow_2354_11992"/>
</filter>
<filter id="filter7_bi_2354_11992" x="39.1101" y="124.596" width="357.157" height="125.829" filterUnits="userSpaceOnUse" color-interpolation-filters="sRGB">
<feFlood flood-opacity="0" result="BackgroundImageFix"/>
<feGaussianBlur in="BackgroundImageFix" stdDeviation="7.6338"/>
<feComposite in2="SourceAlpha" operator="in" result="effect1_backgroundBlur_2354_11992"/>
<feBlend mode="normal" in="SourceGraphic" in2="effect1_backgroundBlur_2354_11992" result="shape"/>
<feColorMatrix in="SourceAlpha" type="matrix" values="0 0 0 0 0 0 0 0 0 0 0 0 0 0 0 0 0 0 127 0" result="hardAlpha"/>
<feOffset dy="-0.38169"/>
<feGaussianBlur stdDeviation="0.38169"/>
<feComposite in2="hardAlpha" operator="arithmetic" k2="-1" k3="1"/>
<feColorMatrix type="matrix" values="0 0 0 0 0.341176 0 0 0 0 0.352941 0 0 0 0 0.580392 0 0 0 0.25 0"/>
<feBlend mode="darken" in2="shape" result="effect2_innerShadow_2354_11992"/>
</filter>
<filter id="filter8_f_2354_11992" x="54.133" y="140.695" width="327.556" height="85.2123" filterUnits="userSpaceOnUse" color-interpolation-filters="sRGB">
<feFlood flood-opacity="0" result="BackgroundImageFix"/>
<feBlend mode="normal" in="SourceGraphic" in2="BackgroundImageFix" result="shape"/>
<feGaussianBlur stdDeviation="0.38169" result="effect1_foregroundBlur_2354_11992"/>
</filter>
<linearGradient id="paint0_linear_2354_11992" x1="54.3777" y1="297.77" x2="381" y2="297.77" gradientUnits="userSpaceOnUse">
<stop stop-color="#91499D"/>
<stop offset="0.681928" stop-color="#D31455"/>
<stop offset="1" stop-color="#FF1464"/>
<stop offset="1" stop-color="#C25588"/>
</linearGradient>
<radialGradient id="paint1_radial_2354_11992" cx="0" cy="0" r="1" gradientUnits="userSpaceOnUse" gradientTransform="translate(104.789 250.123) scale(210.747 210.747)">
<stop stop-color="#D478F4"/>
<stop offset="1" stop-color="#FF1464"/>
</radialGradient>
<linearGradient id="paint2_linear_2354_11992" x1="54.8963" y1="251.718" x2="380.926" y2="251.718" gradientUnits="userSpaceOnUse">
<stop stop-color="white" stop-opacity="0.24"/>
<stop offset="0.130208" stop-color="white" stop-opacity="0.865636"/>
<stop offset="0.489583" stop-color="white" stop-opacity="0.494792"/>
<stop offset="1" stop-color="white" stop-opacity="0"/>
</linearGradient>
<linearGradient id="paint3_linear_2354_11992" x1="54.8963" y1="196.588" x2="380.926" y2="196.588" gradientUnits="userSpaceOnUse">
<stop stop-color="white" stop-opacity="0.24"/>
<stop offset="0.130208" stop-color="white" stop-opacity="0.865636"/>
<stop offset="0.489583" stop-color="white" stop-opacity="0.494792"/>
<stop offset="1" stop-color="white" stop-opacity="0"/>
</linearGradient>
<linearGradient id="paint4_linear_2354_11992" x1="54.8963" y1="141.458" x2="380.926" y2="141.458" gradientUnits="userSpaceOnUse">
<stop stop-color="white" stop-opacity="0.24"/>
<stop offset="0.130208" stop-color="white" stop-opacity="0.865636"/>
<stop offset="0.489583" stop-color="white" stop-opacity="0.494792"/>
<stop offset="1" stop-color="white" stop-opacity="0"/>
</linearGradient>
</defs>
</svg>
