<svg width="192" height="177" viewBox="0 0 192 177" fill="none" xmlns="http://www.w3.org/2000/svg">
<g filter="url(#filter0_i_2124_108)">
<path d="M105.573 159.628L153.993 134.649C156.311 133.484 157.471 131.24 157.474 128.995V125.829H34.5264V128.995C34.5292 131.24 35.6894 133.484 38.0067 134.649L86.427 159.628C92.4535 162.658 99.5467 162.658 105.573 159.628Z" fill="url(#paint0_linear_2124_108)"/>
</g>
<g filter="url(#filter1_i_2124_108)">
<path d="M86.427 95.3874C92.4535 92.3559 99.5468 92.3559 105.573 95.3874L153.993 119.745C158.634 122.079 158.634 128.741 153.993 131.075L105.573 155.433C99.5468 158.464 92.4535 158.464 86.427 155.433L38.0067 131.075C33.3662 128.741 33.3662 122.079 38.0067 119.745L86.427 95.3874Z" fill="url(#paint1_radial_2124_108)"/>
</g>
<g filter="url(#filter2_f_2124_108)">
<path d="M105.507 155.479L154.015 131.625C156.131 130.584 157.284 128.666 157.474 126.668C156.084 129.797 155.508 129.986 153.75 131.014L105.357 154.562C103.979 155.169 100.233 156.747 95.6749 156.747C91.1161 156.747 87.6328 155.169 86.4159 154.562C70.8701 146.903 39.3149 131.752 37.8175 130.967C36.3201 130.183 34.9995 128.414 34.5264 127.627C34.9465 129.263 36.0435 130.753 37.8175 131.625L86.3257 155.479C92.3632 158.448 99.4694 158.448 105.507 155.479Z" fill="url(#paint2_linear_2124_108)"/>
</g>
<g filter="url(#filter3_i_2124_108)">
<path d="M86.427 75.2546C92.4535 72.2231 99.5468 72.2231 105.573 75.2546L153.993 99.6115C158.634 101.946 158.634 108.608 153.993 110.942L105.573 135.3C99.5468 138.331 92.4535 138.331 86.427 135.3L38.0067 110.942C33.3662 108.608 33.3662 101.946 38.0067 99.6115L86.427 75.2546Z" fill="#E4E8F3" fill-opacity="0.4"/>
</g>
<g filter="url(#filter4_i_2124_108)">
<path d="M34.5264 104.858V108.024C34.5292 110.269 35.6894 112.513 38.0067 113.678L86.427 138.657C92.4535 141.686 99.5467 141.686 105.573 138.657L153.993 113.678C156.311 112.513 157.471 110.269 157.474 108.024V104.872C157.469 107.115 156.309 109.357 153.993 110.521L105.573 134.866C99.5467 137.896 92.4535 137.896 86.427 134.866L38.0067 110.521C35.6865 109.354 34.5264 107.106 34.5264 104.858Z" fill="#E4E8F3" fill-opacity="0.4"/>
</g>
<g filter="url(#filter5_f_2124_108)">
<path d="M105.507 135.287L154.015 110.788C156.131 109.719 157.284 107.748 157.474 105.697C156.084 108.91 155.508 109.104 153.75 110.16L105.357 134.345C103.979 134.968 100.233 136.589 95.6749 136.589C91.1161 136.589 87.6328 134.968 86.4159 134.345C70.8701 126.478 39.3149 110.918 37.8175 110.112C36.3201 109.306 34.9995 107.49 34.5264 106.682C34.9465 108.362 36.0435 109.892 37.8175 110.788L86.3257 135.287C92.3632 138.336 99.4694 138.336 105.507 135.287Z" fill="url(#paint3_linear_2124_108)"/>
</g>
<g filter="url(#filter6_i_2124_108)">
<path d="M86.427 53.4443C92.4535 50.4128 99.5468 50.4128 105.573 53.4443L153.993 77.8012C158.634 80.1356 158.634 86.7982 153.993 89.1325L105.573 113.489C99.5468 116.521 92.4535 116.521 86.427 113.489L38.0067 89.1325C33.3662 86.7982 33.3662 80.1356 38.0067 77.8012L86.427 53.4443Z" fill="#E4E8F3" fill-opacity="0.4"/>
</g>
<g filter="url(#filter7_i_2124_108)">
<path d="M34.5264 83.0474V86.213C34.5292 88.458 35.6894 90.7023 38.0067 91.8674L86.427 116.846C92.4535 119.876 99.5467 119.876 105.573 116.846L153.993 91.8674C156.311 90.7019 157.471 88.458 157.474 86.213V83.061C157.469 85.3045 156.309 87.5458 153.993 88.7101L105.573 113.055C99.5467 116.085 92.4535 116.085 86.427 113.055L38.0067 88.7101C35.6865 87.5435 34.5264 85.2954 34.5264 83.0474Z" fill="#E4E8F3" fill-opacity="0.4"/>
</g>
<g filter="url(#filter8_f_2124_108)">
<path d="M105.507 113.476L154.015 88.9775C156.131 87.9086 157.284 85.9378 157.474 83.8862C156.084 87.0996 155.508 87.2935 153.75 88.3497L105.357 112.534C103.979 113.158 100.233 114.778 95.6749 114.778C91.1161 114.778 87.6328 113.158 86.4159 112.534C70.8701 104.668 39.3149 89.1074 37.8175 88.3017C36.3201 87.4961 34.9995 85.6792 34.5264 84.8716C34.9465 86.5515 36.0435 88.0816 37.8175 88.9775L86.3257 113.476C92.3632 116.525 99.4694 116.525 105.507 113.476Z" fill="url(#paint4_linear_2124_108)"/>
</g>
<defs>
<filter id="filter0_i_2124_108" x="34.5264" y="125.025" width="122.947" height="36.8753" filterUnits="userSpaceOnUse" color-interpolation-filters="sRGB">
<feFlood flood-opacity="0" result="BackgroundImageFix"/>
<feBlend mode="normal" in="SourceGraphic" in2="BackgroundImageFix" result="shape"/>
<feColorMatrix in="SourceAlpha" type="matrix" values="0 0 0 0 0 0 0 0 0 0 0 0 0 0 0 0 0 0 127 0" result="hardAlpha"/>
<feOffset dy="-0.804275"/>
<feGaussianBlur stdDeviation="0.804275"/>
<feComposite in2="hardAlpha" operator="arithmetic" k2="-1" k3="1"/>
<feColorMatrix type="matrix" values="0 0 0 0 0 0 0 0 0 0 0 0 0 0 0 0 0 0 0.15 0"/>
<feBlend mode="darken" in2="shape" result="effect1_innerShadow_2124_108"/>
</filter>
<filter id="filter1_i_2124_108" x="34.5264" y="93.1138" width="122.947" height="65.3968" filterUnits="userSpaceOnUse" color-interpolation-filters="sRGB">
<feFlood flood-opacity="0" result="BackgroundImageFix"/>
<feBlend mode="normal" in="SourceGraphic" in2="BackgroundImageFix" result="shape"/>
<feColorMatrix in="SourceAlpha" type="matrix" values="0 0 0 0 0 0 0 0 0 0 0 0 0 0 0 0 0 0 127 0" result="hardAlpha"/>
<feOffset dy="0.804275"/>
<feGaussianBlur stdDeviation="0.804275"/>
<feComposite in2="hardAlpha" operator="arithmetic" k2="-1" k3="1"/>
<feColorMatrix type="matrix" values="0 0 0 0 0 0 0 0 0 0 0 0 0 0 0 0 0 0 0.1 0"/>
<feBlend mode="darken" in2="shape" result="effect1_innerShadow_2124_108"/>
</filter>
<filter id="filter2_f_2124_108" x="32.9178" y="125.06" width="126.164" height="34.2549" filterUnits="userSpaceOnUse" color-interpolation-filters="sRGB">
<feFlood flood-opacity="0" result="BackgroundImageFix"/>
<feBlend mode="normal" in="SourceGraphic" in2="BackgroundImageFix" result="shape"/>
<feGaussianBlur stdDeviation="0.804275" result="effect1_foregroundBlur_2124_108"/>
</filter>
<filter id="filter3_i_2124_108" x="34.5264" y="72.981" width="122.947" height="65.3968" filterUnits="userSpaceOnUse" color-interpolation-filters="sRGB">
<feFlood flood-opacity="0" result="BackgroundImageFix"/>
<feBlend mode="normal" in="SourceGraphic" in2="BackgroundImageFix" result="shape"/>
<feColorMatrix in="SourceAlpha" type="matrix" values="0 0 0 0 0 0 0 0 0 0 0 0 0 0 0 0 0 0 127 0" result="hardAlpha"/>
<feOffset dy="0.804275"/>
<feGaussianBlur stdDeviation="0.804275"/>
<feComposite in2="hardAlpha" operator="arithmetic" k2="-1" k3="1"/>
<feColorMatrix type="matrix" values="0 0 0 0 0.342674 0 0 0 0 0.352133 0 0 0 0 0.579167 0 0 0 0.1 0"/>
<feBlend mode="darken" in2="shape" result="effect1_innerShadow_2124_108"/>
</filter>
<filter id="filter4_i_2124_108" x="34.5264" y="104.054" width="122.947" height="36.8753" filterUnits="userSpaceOnUse" color-interpolation-filters="sRGB">
<feFlood flood-opacity="0" result="BackgroundImageFix"/>
<feBlend mode="normal" in="SourceGraphic" in2="BackgroundImageFix" result="shape"/>
<feColorMatrix in="SourceAlpha" type="matrix" values="0 0 0 0 0 0 0 0 0 0 0 0 0 0 0 0 0 0 127 0" result="hardAlpha"/>
<feOffset dy="-0.804275"/>
<feGaussianBlur stdDeviation="0.804275"/>
<feComposite in2="hardAlpha" operator="arithmetic" k2="-1" k3="1"/>
<feColorMatrix type="matrix" values="0 0 0 0 0.341176 0 0 0 0 0.352941 0 0 0 0 0.580392 0 0 0 0.25 0"/>
<feBlend mode="darken" in2="shape" result="effect1_innerShadow_2124_108"/>
</filter>
<filter id="filter5_f_2124_108" x="32.9178" y="104.088" width="126.164" height="35.0938" filterUnits="userSpaceOnUse" color-interpolation-filters="sRGB">
<feFlood flood-opacity="0" result="BackgroundImageFix"/>
<feBlend mode="normal" in="SourceGraphic" in2="BackgroundImageFix" result="shape"/>
<feGaussianBlur stdDeviation="0.804275" result="effect1_foregroundBlur_2124_108"/>
</filter>
<filter id="filter6_i_2124_108" x="34.5264" y="51.1707" width="122.947" height="65.3968" filterUnits="userSpaceOnUse" color-interpolation-filters="sRGB">
<feFlood flood-opacity="0" result="BackgroundImageFix"/>
<feBlend mode="normal" in="SourceGraphic" in2="BackgroundImageFix" result="shape"/>
<feColorMatrix in="SourceAlpha" type="matrix" values="0 0 0 0 0 0 0 0 0 0 0 0 0 0 0 0 0 0 127 0" result="hardAlpha"/>
<feOffset dy="0.804275"/>
<feGaussianBlur stdDeviation="0.804275"/>
<feComposite in2="hardAlpha" operator="arithmetic" k2="-1" k3="1"/>
<feColorMatrix type="matrix" values="0 0 0 0 0.342674 0 0 0 0 0.352133 0 0 0 0 0.579167 0 0 0 0.1 0"/>
<feBlend mode="darken" in2="shape" result="effect1_innerShadow_2124_108"/>
</filter>
<filter id="filter7_i_2124_108" x="34.5264" y="82.2431" width="122.947" height="36.8753" filterUnits="userSpaceOnUse" color-interpolation-filters="sRGB">
<feFlood flood-opacity="0" result="BackgroundImageFix"/>
<feBlend mode="normal" in="SourceGraphic" in2="BackgroundImageFix" result="shape"/>
<feColorMatrix in="SourceAlpha" type="matrix" values="0 0 0 0 0 0 0 0 0 0 0 0 0 0 0 0 0 0 127 0" result="hardAlpha"/>
<feOffset dy="-0.804275"/>
<feGaussianBlur stdDeviation="0.804275"/>
<feComposite in2="hardAlpha" operator="arithmetic" k2="-1" k3="1"/>
<feColorMatrix type="matrix" values="0 0 0 0 0.341176 0 0 0 0 0.352941 0 0 0 0 0.580392 0 0 0 0.25 0"/>
<feBlend mode="darken" in2="shape" result="effect1_innerShadow_2124_108"/>
</filter>
<filter id="filter8_f_2124_108" x="32.9178" y="82.2777" width="126.164" height="35.0938" filterUnits="userSpaceOnUse" color-interpolation-filters="sRGB">
<feFlood flood-opacity="0" result="BackgroundImageFix"/>
<feBlend mode="normal" in="SourceGraphic" in2="BackgroundImageFix" result="shape"/>
<feGaussianBlur stdDeviation="0.804275" result="effect1_foregroundBlur_2124_108"/>
</filter>
<linearGradient id="paint0_linear_2124_108" x1="34.5264" y1="143.865" x2="157.474" y2="143.865" gradientUnits="userSpaceOnUse">
<stop stop-color="#91499D"/>
<stop offset="0.681928" stop-color="#D31455"/>
<stop offset="1" stop-color="#C25588"/>
</linearGradient>
<radialGradient id="paint1_radial_2124_108" cx="0" cy="0" r="1" gradientUnits="userSpaceOnUse" gradientTransform="translate(53.5022 125.41) scale(79.3295 79.8108)">
<stop stop-color="#D478F4"/>
<stop offset="1" stop-color="#FF1464"/>
</radialGradient>
<linearGradient id="paint2_linear_2124_108" x1="34.5264" y1="126.668" x2="157.474" y2="126.668" gradientUnits="userSpaceOnUse">
<stop stop-color="white" stop-opacity="0.24"/>
<stop offset="0.130208" stop-color="white" stop-opacity="0.865636"/>
<stop offset="0.489583" stop-color="white" stop-opacity="0.494792"/>
<stop offset="1" stop-color="white" stop-opacity="0"/>
</linearGradient>
<linearGradient id="paint3_linear_2124_108" x1="34.5264" y1="105.697" x2="157.474" y2="105.697" gradientUnits="userSpaceOnUse">
<stop stop-color="white" stop-opacity="0.24"/>
<stop offset="0.130208" stop-color="white" stop-opacity="0.865636"/>
<stop offset="0.489583" stop-color="white" stop-opacity="0.494792"/>
<stop offset="1" stop-color="white" stop-opacity="0"/>
</linearGradient>
<linearGradient id="paint4_linear_2124_108" x1="34.5264" y1="83.8862" x2="157.474" y2="83.8862" gradientUnits="userSpaceOnUse">
<stop stop-color="white" stop-opacity="0.24"/>
<stop offset="0.130208" stop-color="white" stop-opacity="0.865636"/>
<stop offset="0.489583" stop-color="white" stop-opacity="0.494792"/>
<stop offset="1" stop-color="white" stop-opacity="0"/>
</linearGradient>
</defs>
</svg>
