<?xml version="1.0" encoding="UTF-8" standalone="no"?>
<!-- Created with Inkscape (http://www.inkscape.org/) -->

<svg
   xmlns:svg="http://www.w3.org/2000/svg"
   xmlns="http://www.w3.org/2000/svg"
   version="1.1"
   width="220"
   height="108"
   id="svg31446">
  <defs
     id="defs31448" />
  <g
     transform="translate(-439.49909,-787.69642)"
     id="layer1">
    <path
       d="m 611.13384,894.53455 8.2075,0 0,-40.55 -8.2075,0 0,40.55 z"
       id="path194"
       style="fill:#5c809b;fill-opacity:1;fill-rule:nonzero;stroke:none" />
    <path
       d="m 451.89834,895.26529 c -4.4875,0 -8.3925,-1.1375 -11.9725,-3.095 l 0.8075,-4.475 c 4.405,1.06 7.0925,1.5475 9.695,1.5475 5.8675,0 8.225,-2.525 8.225,-5.375 0,-3.175 -1.3875,-4.72 -7.8125,-7.165 -7.9025,-2.935 -10.7575,-6.02 -10.7575,-11.645 0,-6.995 5.54,-11.805 14.0125,-11.805 3.4175,0 6.6775,0.65 10.4225,2.6075 l -0.9775,4.4775 c -3.0975,-0.89 -5.5475,-1.22 -7.8225,-1.22 -4.635,0 -6.9175,2.1975 -6.9175,5.055 0,2.8425 1.6275,4.395 8.0625,6.6725 7.655,2.7625 10.6675,6.2675 10.6675,12.0475 0,7.1575 -5.775,12.3725 -15.6325,12.3725"
       id="path196"
       style="fill:#5c809b;fill-opacity:1;fill-rule:nonzero;stroke:none" />
    <path
       d="m 490.45008,859.44755 c -5.7,0 -9.2025,4.075 -9.2025,13.835 0,11.9725 3.09,15.8 9.44,15.8 5.6175,0 9.2,-4.0675 9.2,-13.9225 0,-11.8875 -3.1675,-15.7125 -9.4375,-15.7125 m -0.7325,35.9025 c -10.5125,0 -17.1025,-5.4575 -17.1025,-20.28 0,-14.895 7.33,-21.8975 18.8075,-21.8975 10.4225,0 17.105,5.4525 17.105,20.11 0,14.9875 -7.42,22.0675 -18.81,22.0675"
       id="path198"
       style="fill:#5c809b;fill-opacity:1;fill-rule:nonzero;stroke:none" />
    <path
       d="m 533.16308,888.80105 0.8925,4.845 c -1.6325,0.7725 -5.30002,1.455 -10.35,1.455 -4.97002,0 -7.40502,-1.4675 -7.40502,-8.0575 l 0,-33.355 8.38502,0 0,30.0925 c 0,4.7425 0.73,5.35 2.93498,5.4625 0.82002,0.04 5.54252,-0.4425 5.54252,-0.4425"
       id="path200"
       style="fill:#5c809b;fill-opacity:1;fill-rule:nonzero;stroke:none" />
    <path
       d="m 562.67984,875.56229 -3.505,0 c -9.4475,0 -11.8025,3.0925 -11.8025,7.3325 0,3.905 2.1825,6.3475 6.26248,6.3475 2.85002,0 6.03002,-1.46746 9.04502,-4.0675 l 0,-9.6125 z m 1.78498,18.9725 -0.65498,-4.3975 c -3.575,3.1 -7.40502,5.2125 -12.535,5.2125 -7.9775,0 -12.21,-4.075 -12.21,-11.2375 0,-8.3025 6.4325,-13.8475 20.67498,-13.8475 l 2.94002,0 0,-3.6625 c 0,-4.88 -2.5275,-7.2375 -8.39002,-7.2375 -4.235,0 -8.55498,1.1325 -11.88998,2.3575 l -1.2225,-5.125 c 4.23,-1.8775 9.445,-3.345 15.3875,-3.345 10.1825,0 14.42,4.89 14.42,12.295 l 0,28.9875 -6.52002,0"
       id="path202"
       style="fill:#5c809b;fill-opacity:1;fill-rule:nonzero;stroke:none" />
    <path
       d="m 602.89758,861.64455 c -1.545,-0.415 -2.605,-0.5725 -3.42,-0.5725 -2.36,0 -4.55502,1.7875 -8.54502,6.7575 l 0,26.705 -8.38998,0 0,-40.55 6.92998,0 0.7275,6.8425 c 4.39002,-5.7 7.16002,-7.575 10.09252,-7.575 1.06,0 2.28,0.2475 3.5825,0.8975 l -0.9775,7.495"
       id="path204"
       style="fill:#5c809b;fill-opacity:1;fill-rule:nonzero;stroke:none" />
    <path
       d="m 639.61358,895.26529 c -4.4725,0 -8.3875,-1.1375 -11.96,-3.095 l 0.805,-4.475 c 4.4025,1.06 7.08,1.5475 9.6925,1.5475 5.8625,0 8.225,-2.525 8.225,-5.375 0,-3.175 -1.3875,-4.72 -7.81,-7.165 -7.9075,-2.935 -10.7525,-6.02 -10.7525,-11.645 0,-6.995 5.535,-11.805 14.0025,-11.805 3.42,0 6.6775,0.65 10.41752,2.6075 l -0.97002,4.4775 c -3.0975,-0.89 -5.53998,-1.22 -7.82,-1.22 -4.64,0 -6.915,2.1975 -6.915,5.055 0,2.8425 1.6225,4.395 8.0525,6.6725 7.65252,2.7625 10.6675,6.2675 10.6675,12.0475 0,7.1575 -5.7825,12.3725 -15.635,12.3725"
       id="path206"
       style="fill:#5c809b;fill-opacity:1;fill-rule:nonzero;stroke:none" />
    <path
       d="m 659.07234,857.76929 0,-3.5225 -0.855,0 -0.8,2.4925 -0.81,-2.4925 -0.8625,0 0,3.5225 0.5825,0 0,-2.7775 0.012,0 0.87,2.7775 0.405,0 0.8775,-2.7775 0.012,0 0,2.7775 0.5675,0 z"
       id="path208"
       style="fill:#5c809b;fill-opacity:1;fill-rule:nonzero;stroke:none" />
    <path
       d="m 654.36708,857.76929 0,-2.935 0.875,0 0,-0.5875 -2.3775,0 0,0.5875 0.8875,0 0,2.935 0.615,0 z"
       id="path210"
       style="fill:#5c809b;fill-opacity:1;fill-rule:nonzero;stroke:none" />
    <path
       d="m 607.24884,810.88855 c 0.1226,-0.66998 1.745,-4.69998 1.745,-4.69998 2.01,-4.52752 0.7325,-7.7725 0.7325,-7.7725 -1.185,-4.39752 -4.5875,-7.83502 -4.5875,-7.83502 0.165,0.1226 1.2,2.875 1.2,2.875 2.385,6.58752 -4.01,10.36752 -4.01,10.36752 -1.6475,1.08748 -4.3375,3.68 -4.3375,3.68 -3.7725,3.6875 -2.63248,8.20748 -2.63248,8.20748 l 0.15,0.0674 c 4.4875,1.10252 8.7025,2.89 12.5325,5.23752 -2.5375,-4.93752 -0.7925,-10.12752 -0.7925,-10.12752"
       id="path212"
       style="fill:#ee7314;fill-opacity:1;fill-rule:nonzero;stroke:none" />
    <path
       d="m 620.36534,832.24129 c -0.42,-5.43 3.055,-9.5025 3.055,-9.5025 0.3575,-0.57996 3.36,-3.70746 3.36,-3.70746 3.5575,-3.45504 3.59,-6.94254 3.59,-6.94254 0.545,-4.5225 -1.3325,-8.98 -1.3325,-8.98 0.1026,0.1726 0.0376,3.11504 0.0376,3.11754 -0.2425,6.99746 -7.585,8.1225 -7.585,8.1225 -1.94,0.39746 -5.405,1.8 -5.405,1.8 -4.5175,1.86996 -5.385,5.97246 -5.4825,6.55996 3.7225,2.66 7.0125,5.8775 9.7625,9.5325"
       id="path214"
       style="fill:#ee7314;fill-opacity:1;fill-rule:nonzero;stroke:none" />
    <path
       d="m 646.64508,823.24453 c 0.035,0.205 -1.13,2.915 -1.13,2.915 -2.82248,6.405 -10.0525,4.71502 -10.0525,4.71502 -1.9475,-0.345 -5.685,-0.33502 -5.685,-0.33252 -5.275,0.06 -7.5725,4.1125 -7.5725,4.1125 l 0.2775,0.6725 c 2.295,3.67252 4.065,7.6975 5.21,11.9825 1.56,-5.3525 6.445,-7.92498 6.45,-7.92498 0.5475,-0.39252 4.495,-2.19752 4.495,-2.19752 4.58502,-1.88248 5.90752,-5.1025 5.90752,-5.1025 2.18,-4.00248 2.1,-8.84 2.1,-8.84"
       id="path216"
       style="fill:#ee7314;fill-opacity:1;fill-rule:nonzero;stroke:none" />
    <path
       d="m 592.01934,815.07779 c -4,-3.6475 -4.2925,-8.955 -4.2925,-8.955 -0.15,-0.665 -0.1324,-5 -0.1276,-5 0.1874,-4.95 -2.2025,-7.495 -2.2025,-7.495 -2.72,-3.6525 -7.1625,-5.585 -7.1625,-5.585 0.2025,0.055 2.1875,2.235 2.1875,2.235 4.6475,5.225 0.1124,11.11 0.1124,11.11 -1.1275,1.625 -2.665,5.0275 -2.665,5.0275 -2.0175,4.555 0.31,8.1725 0.5675,8.5625 2.265,-0.335 4.595,-0.495 6.9525,-0.47 2.2625,0.0226 4.475,0.215 6.63,0.57"
       id="path218"
       style="fill:#ee7314;fill-opacity:1;fill-rule:nonzero;stroke:none" />
    <path
       d="m 567.80908,808.83357 c -0.3675,-0.565 -1.9825,-4.59 -1.9825,-4.59 -1.6625,-4.66752 -4.8225,-6.14 -4.8225,-6.14 -3.8975,-2.37 -8.73,-2.51752 -8.73,-2.51752 0.2075,-0.02 2.8575,1.26252 2.8575,1.26252 6.27,3.1225 4.2475,10.27 4.2475,10.27 -0.44,1.92498 -0.6025,5.6625 -0.6025,5.6625 -0.1924,5.26248 3.755,7.75498 3.755,7.75498 l 0.1874,-0.065 c 3.8325,-2.23248 8.0425,-3.90498 12.4975,-4.895 -5.1325,-1.875 -7.4075,-6.74248 -7.4075,-6.74248"
       id="path220"
       style="fill:#ee7314;fill-opacity:1;fill-rule:nonzero;stroke:none" />
    <path
       d="m 559.86434,822.27679 c -5.4375,0.14 -9.3325,-3.52 -9.3325,-3.52 -0.555,-0.3875 -3.535,-3.535 -3.535,-3.535 -3.2725,-3.72 -6.765,-3.915 -6.765,-3.915 -4.49,-0.765 -9.025,0.89 -9.025,0.89 0.18,-0.0926 3.1125,0.1126 3.1175,0.1126 6.975,0.585 7.7375,7.97 7.7375,7.97 0.3,1.955 1.53748,5.485 1.53748,5.485 1.77252,4.9625 6.35502,5.815 6.35502,5.815 l 0.0924,-0.0774 c 2.79,-3.5525 6.1025,-6.6675 9.8175,-9.225"
       id="path222"
       style="fill:#ee7314;fill-opacity:1;fill-rule:nonzero;stroke:none" />
    <path
       d="m 538.07558,834.53355 c -0.6625,-0.1526 -4.6,-1.97 -4.6,-1.97 -4.415,-2.2575 -7.7275,-1.1475 -7.7275,-1.1475 -4.455,0.9475 -8.065,4.17 -8.065,4.17 0.135,-0.1574 2.9425,-1.05 2.9425,-1.05 6.7,-2.0375 10.1375,4.5475 10.1375,4.5475 0.9975,1.7025 3.455,4.5275 3.455,4.5225 3.4775,3.9575 8.06,3.06 8.06,3.06 l 0.115,-0.2275 c 1.2475,-4.3275 3.1475,-8.3725 5.5725,-12.05 -4.9725,2.0925 -9.89,0.145 -9.89,0.145"
       id="path224"
       style="fill:#ee7314;fill-opacity:1;fill-rule:nonzero;stroke:none" />
  </g>
</svg>
