<svg width="77" height="80" viewBox="0 0 77 80" fill="none" xmlns="http://www.w3.org/2000/svg">
<g clip-path="url(#clip0_2106_934)">
<path d="M28.5801 33.51C33.1801 33.51 37.1701 31.86 40.4301 28.6C43.6901 25.34 45.3401 21.36 45.3401 16.75C45.3401 12.14 43.6901 8.15999 40.4301 4.89999C37.1701 1.63999 33.1901 -0.0100098 28.5801 -0.0100098C23.9701 -0.0100098 19.9901 1.63999 16.7301 4.89999C13.4701 8.15999 11.8201 12.14 11.8201 16.75C11.8201 21.36 13.4701 25.34 16.7301 28.6C19.9901 31.86 23.9701 33.51 28.5801 33.51Z" fill="url(#paint0_linear_2106_934)"/>
<path d="M57.9 53.5C57.81 52.14 57.62 50.67 57.34 49.1C57.06 47.53 56.69 46.04 56.26 44.68C55.81 43.28 55.2 41.89 54.44 40.56C53.66 39.18 52.73 37.98 51.7 36.99C50.62 35.96 49.29 35.12 47.76 34.52C46.23 33.92 44.54 33.61 42.74 33.61C42.03 33.61 41.34 33.9 40.02 34.77C39.2 35.3 38.25 35.92 37.18 36.6C36.27 37.18 35.03 37.72 33.51 38.22C32.02 38.7 30.51 38.95 29.02 38.95C27.53 38.95 26.02 38.71 24.53 38.22C23.01 37.73 21.77 37.18 20.86 36.6C19.8 35.93 18.85 35.31 18.02 34.77C16.7 33.91 16.01 33.61 15.3 33.61C13.49 33.61 11.8 33.92 10.28 34.52C8.75 35.13 7.43 35.96 6.34 36.99C5.31 37.98 4.38 39.18 3.6 40.56C2.85 41.89 2.23 43.28 1.78 44.68C1.34 46.04 0.98 47.53 0.7 49.1C0.42 50.66 0.23 52.14 0.14 53.5C0.05 54.83 0 56.21 0 57.61C0 61.24 1.15 64.18 3.43 66.35C5.68 68.49 8.65 69.57 12.27 69.57H45.77C49.39 69.57 52.36 68.49 54.61 66.35C56.89 64.18 58.04 61.24 58.04 57.61C58.04 56.21 57.99 54.83 57.9 53.5Z" fill="url(#paint1_linear_2106_934)"/>
<g opacity="0.64">
<path d="M47.3599 42.99C51.9599 42.99 55.3199 41.34 58.5799 38.08C61.8399 34.82 63.5499 30.9 63.5499 26.3C63.5499 21.7 61.8999 17.71 58.6399 14.45C55.3799 11.19 51.3999 9.54004 46.7899 9.54004C42.1799 9.54004 38.1999 11.19 34.9399 14.45C31.6799 17.71 30.5999 21.63 30.5999 26.23C30.5999 30.83 32.2499 34.82 35.5099 38.08C38.7699 41.34 42.1899 43.05 46.7899 43.05L47.3599 42.99Z" fill="#E197DF"/>
<path d="M76.11 63.04C76.02 61.68 75.83 60.21 75.55 58.64C75.27 57.07 74.9 55.58 74.47 54.22C74.02 52.82 73.41 51.43 72.65 50.1C71.87 48.72 70.94 47.52 69.91 46.53C68.83 45.5 67.5 44.66 65.97 44.06C64.44 43.46 62.75 43.15 60.95 43.15C60.24 43.15 59.55 43.44 58.23 44.31C57.41 44.84 56.46 45.46 55.39 46.14C54.48 46.72 53.24 47.26 51.72 47.76C50.23 48.24 48.72 48.49 47.23 48.49C45.74 48.49 44.23 48.25 42.74 47.76C41.22 47.27 39.98 46.72 39.07 46.14C38.01 45.47 37.06 44.85 36.23 44.31C34.91 43.45 34.22 43.15 33.51 43.15C31.7 43.15 30.01 43.46 28.49 44.06C26.96 44.67 25.64 45.5 24.55 46.53C23.52 47.52 22.59 48.72 21.81 50.1C21.06 51.43 20.44 52.82 19.99 54.22C19.55 55.58 19.19 57.07 18.91 58.64C18.63 60.2 18.44 61.68 18.35 63.04C18.26 64.37 18.21 65.75 18.21 67.15C18.21 70.78 19.36 73.72 21.64 75.89C23.89 78.03 26.86 79.11 30.48 79.11H63.98C67.6 79.11 70.57 78.03 72.82 75.89C75.1 73.72 76.25 70.78 76.25 67.15C76.25 65.75 76.2 64.37 76.11 63.04Z" fill="#E197DF"/>
</g>
<path d="M58.81 14.71C55.55 11.45 51.57 9.80005 46.96 9.80005C42.35 9.80005 38.37 11.45 35.11 14.71C31.85 17.97 30.77 21.89 30.77 26.49C30.77 31.09 32.42 35.08 35.68 38.34C37.11 39.77 38.58 40.91 40.16 41.73" stroke="url(#paint2_linear_2106_934)" stroke-width="0.58" stroke-miterlimit="10"/>
<path opacity="0.93" d="M30.7299 79.62C27.0399 79.62 23.9999 78.51 21.6899 76.32C19.3499 74.09 18.1699 71.08 18.1699 67.37C18.1699 65.96 18.2199 64.57 18.3099 63.24C18.3999 61.87 18.5999 60.38 18.8799 58.81C19.1699 57.22 19.5299 55.72 19.9699 54.35C20.4299 52.93 21.0399 51.52 21.8099 50.17C22.6099 48.77 23.5499 47.54 24.5999 46.54C25.7099 45.48 27.0599 44.63 28.6299 44.01C30.1899 43.39 31.9099 43.08 33.7599 43.08C34.5299 43.08 35.2599 43.38 36.6399 44.28C37.4699 44.82 38.4199 45.44 39.4799 46.11C40.3699 46.68 41.5799 47.21 43.0799 47.7C45.9999 48.64 48.9699 48.64 51.8799 47.7C53.3799 47.21 54.5999 46.68 55.4799 46.11C56.5499 45.43 57.4999 44.81 58.3099 44.28C59.6899 43.38 60.4199 43.08 61.1899 43.08C63.0299 43.08 64.7599 43.39 66.3199 44.01L66.1099 44.55C64.6199 43.96 62.9599 43.66 61.1899 43.66C60.5399 43.66 59.8999 43.94 58.6199 44.77C57.7999 45.3 56.8499 45.92 55.7799 46.6C54.8499 47.19 53.5899 47.75 52.0399 48.25C49.0099 49.23 45.9199 49.23 42.8799 48.25C41.3299 47.75 40.0799 47.2 39.1399 46.6C38.0799 45.92 37.1299 45.31 36.2999 44.77C35.0299 43.94 34.3799 43.66 33.7299 43.66C31.9599 43.66 30.2999 43.96 28.8099 44.55C27.3099 45.14 26.0199 45.95 24.9699 46.96C23.9599 47.93 23.0499 49.11 22.2799 50.46C21.5299 51.78 20.9299 53.15 20.4899 54.53C20.0599 55.87 19.6999 57.35 19.4199 58.91C19.1399 60.46 18.9499 61.93 18.8599 63.28C18.7699 64.6 18.7199 65.97 18.7199 67.37C18.7199 70.92 19.8399 73.79 22.0599 75.9C24.2499 77.99 27.1599 79.05 30.6999 79.05V79.63L30.7299 79.62Z" fill="url(#paint3_radial_2106_934)"/>
</g>
<defs>
<linearGradient id="paint0_linear_2106_934" x1="11.8301" y1="16.76" x2="45.3401" y2="16.76" gradientUnits="userSpaceOnUse">
<stop stop-color="#FF2F76"/>
<stop offset="1" stop-color="#FF1464"/>
</linearGradient>
<linearGradient id="paint1_linear_2106_934" x1="0" y1="51.59" x2="58.04" y2="51.59" gradientUnits="userSpaceOnUse">
<stop stop-color="#FF2F76"/>
<stop offset="1" stop-color="#FF1464"/>
</linearGradient>
<linearGradient id="paint2_linear_2106_934" x1="31.5" y1="35.32" x2="53.16" y2="9.50005" gradientUnits="userSpaceOnUse">
<stop stop-color="white" stop-opacity="0"/>
<stop offset="0.02" stop-color="white" stop-opacity="0.09"/>
<stop offset="0.07" stop-color="white" stop-opacity="0.3"/>
<stop offset="0.13" stop-color="white" stop-opacity="0.49"/>
<stop offset="0.19" stop-color="white" stop-opacity="0.65"/>
<stop offset="0.25" stop-color="white" stop-opacity="0.77"/>
<stop offset="0.31" stop-color="white" stop-opacity="0.87"/>
<stop offset="0.37" stop-color="white" stop-opacity="0.94"/>
<stop offset="0.43" stop-color="white" stop-opacity="0.99"/>
<stop offset="0.51" stop-color="white"/>
<stop offset="0.56" stop-color="white" stop-opacity="0.98"/>
<stop offset="0.63" stop-color="white" stop-opacity="0.93"/>
<stop offset="0.69" stop-color="white" stop-opacity="0.85"/>
<stop offset="0.75" stop-color="white" stop-opacity="0.74"/>
<stop offset="0.82" stop-color="white" stop-opacity="0.59"/>
<stop offset="0.88" stop-color="white" stop-opacity="0.41"/>
<stop offset="0.95" stop-color="white" stop-opacity="0.2"/>
<stop offset="1" stop-color="white" stop-opacity="0"/>
</linearGradient>
<radialGradient id="paint3_radial_2106_934" cx="0" cy="0" r="1" gradientUnits="userSpaceOnUse" gradientTransform="translate(18.8499 43.96) scale(35.1 35.1)">
<stop stop-color="white" stop-opacity="0"/>
<stop offset="0.02" stop-color="white" stop-opacity="0.09"/>
<stop offset="0.07" stop-color="white" stop-opacity="0.3"/>
<stop offset="0.13" stop-color="white" stop-opacity="0.49"/>
<stop offset="0.19" stop-color="white" stop-opacity="0.65"/>
<stop offset="0.25" stop-color="white" stop-opacity="0.77"/>
<stop offset="0.31" stop-color="white" stop-opacity="0.87"/>
<stop offset="0.37" stop-color="white" stop-opacity="0.94"/>
<stop offset="0.43" stop-color="white" stop-opacity="0.99"/>
<stop offset="0.51" stop-color="white"/>
<stop offset="0.56" stop-color="white" stop-opacity="0.98"/>
<stop offset="0.63" stop-color="white" stop-opacity="0.93"/>
<stop offset="0.69" stop-color="white" stop-opacity="0.85"/>
<stop offset="0.75" stop-color="white" stop-opacity="0.74"/>
<stop offset="0.82" stop-color="white" stop-opacity="0.59"/>
<stop offset="0.88" stop-color="white" stop-opacity="0.41"/>
<stop offset="0.95" stop-color="white" stop-opacity="0.2"/>
<stop offset="1" stop-color="white" stop-opacity="0"/>
</radialGradient>
<clipPath id="clip0_2106_934">
<rect width="76.25" height="79.62" fill="white"/>
</clipPath>
</defs>
</svg>
