<svg width="75" height="74" viewBox="0 0 75 74" fill="none" xmlns="http://www.w3.org/2000/svg">
<g clip-path="url(#clip0_2124_345)">
<path d="M73.9902 1.00994C73.9202 0.709941 73.6902 0.479941 73.4102 0.389941C63.6802 -1.98006 41.2102 6.47994 29.0402 18.6499C26.8702 20.8099 24.8902 23.1499 23.1302 25.6399C19.3802 25.3099 15.6202 25.5899 12.4202 26.9899C3.39019 30.9699 0.770187 41.3499 0.0201873 45.7999C-0.129813 46.6599 0.450187 47.4899 1.33019 47.6399C1.48019 47.6599 1.63019 47.6699 1.78019 47.6599L16.2802 46.0699C16.3002 47.1699 16.3602 48.2599 16.4802 49.3399C16.5502 50.0899 16.9002 50.7999 17.4302 51.3299L23.0402 56.9299C23.5702 57.4599 24.2902 57.8099 25.0302 57.8799C26.1102 57.9999 28.0002 58.2599 29.1002 58.2799L26.9102 73.3399C26.8102 74.2199 27.4102 73.9199 28.1502 73.9599C28.3002 73.9599 29.5002 73.8099 29.6402 73.7899C40.7002 72.6799 43.4002 70.9699 47.3502 61.9399C48.7402 58.7399 49.0302 54.9999 48.7102 51.2599C51.2202 49.4999 53.5602 47.5099 55.7202 45.3499C67.9202 33.2099 76.3402 11.2499 74.0002 1.02994L73.9902 1.00994Z" fill="url(#paint0_linear_2124_345)"/>
<path d="M37.84 53.87L36.54 39.73C31.4 34.11 20.74 35.64 20.74 35.64C16.92 36.1 13.35 37.85 10.65 40.56C3.85998 47.34 3.22998 72.44 3.22998 72.44C3.22998 72.44 28.36 71.81 35.11 65.02C37.84 62.29 39.57 58.75 40.03 54.9C40.03 54.9 41.69 45.34 36.54 39.72L37.84 53.87Z" fill="#E197DF" fill-opacity="0.7"/>
<path d="M34.5301 37.76C29.7401 34.46 21.1601 35.56 21.1601 35.56C17.3401 36.02 13.7401 38.05 11.0401 40.75C4.25012 47.53 3.12012 72.63 3.12012 72.63C3.12012 72.63 7.30012 72.3 10.7101 71.97" stroke="url(#paint1_linear_2124_345)" stroke-width="0.5" stroke-miterlimit="10"/>
</g>
<defs>
<linearGradient id="paint0_linear_2124_345" x1="0.000187334" y1="36.9799" x2="74.3902" y2="36.9799" gradientUnits="userSpaceOnUse">
<stop stop-color="#FF2F76"/>
<stop offset="1" stop-color="#FF1464"/>
</linearGradient>
<linearGradient id="paint1_linear_2124_345" x1="6.12012" y1="48.47" x2="23.8501" y2="57.9" gradientUnits="userSpaceOnUse">
<stop stop-color="white"/>
<stop offset="1" stop-color="white" stop-opacity="0"/>
</linearGradient>
<clipPath id="clip0_2124_345">
<rect width="74.39" height="73.96" fill="white"/>
</clipPath>
</defs>
</svg>
