<svg width="80" height="76" viewBox="0 0 80 76" fill="none" xmlns="http://www.w3.org/2000/svg">
<circle cx="22.6536" cy="22.6536" r="22.6536" fill="#FF226D"/>
<g clip-path="url(#clip0_2546_3164)">
<path d="M78.4916 19.1641C78.3746 18.321 77.7666 17.6288 76.9445 17.4009L50.6151 10.0918C50.2383 9.98641 49.8444 9.98641 49.4676 10.0918L23.1381 17.4009C22.316 17.6288 21.708 18.321 21.591 19.1641C21.4397 20.2607 17.9544 46.1502 26.8917 59.0309C35.8176 71.8945 48.9852 75.193 49.5389 75.3269C49.7045 75.3667 49.8729 75.3867 50.0413 75.3867C50.2097 75.3867 50.3781 75.3667 50.5437 75.3269C51.1003 75.193 64.2679 71.8973 73.1909 59.0309C82.1253 46.1502 78.6429 20.2607 78.4916 19.1641Z" fill="#E197DF" fill-opacity="0.6"/>
</g>
<path d="M73.1935 59.0441C82.1279 46.1606 78.6455 20.2655 78.4942 19.1686C78.3772 18.3253 77.7692 17.6329 76.9471 17.405L50.6149 10.0943C50.2381 9.9889 49.8442 9.9889 49.4674 10.0943L23.1381 17.405C22.316 17.6329 21.708 18.3253 21.591 19.1686C21.4397 20.2655 17.9544 46.1606 26.8917 59.0441" stroke="url(#paint0_linear_2546_3164)" stroke-miterlimit="10"/>
<defs>
<linearGradient id="paint0_linear_2546_3164" x1="50.0421" y1="10.0153" x2="50.0421" y2="59.0441" gradientUnits="userSpaceOnUse">
<stop stop-color="white"/>
<stop offset="1" stop-color="white" stop-opacity="0"/>
</linearGradient>
<clipPath id="clip0_2546_3164">
<rect width="58.4905" height="65.3718" fill="white" transform="translate(20.7969 10.0153)"/>
</clipPath>
</defs>
</svg>
