<svg width="60" height="82" viewBox="0 0 60 82" fill="none" xmlns="http://www.w3.org/2000/svg">
<g clip-path="url(#clip0_2106_912)">
<path d="M30 9.87967e-05C13.4584 -0.0210352 0 13.4836 0 30.1055C0 38.1153 3.13574 45.396 8.26026 50.7957C11.6485 54.3674 13.7636 58.9746 13.7636 63.9094V66.7202C13.7636 68.7491 15.4051 70.387 17.4149 70.387H42.5851C44.6054 70.387 46.2364 68.7385 46.2364 66.7202V63.9094C46.2364 58.9746 48.3515 54.3674 51.7397 50.7957C56.8643 45.4065 60 38.1364 60 30.1055C60 13.4836 46.5521 -0.0421692 30 9.87967e-05Z" fill="url(#paint0_linear_2106_912)"/>
<path d="M40.6174 21.7363H18.099C16.5182 21.7363 15.2368 23.0232 15.2368 24.6106C15.2368 26.1979 16.5182 27.4848 18.099 27.4848H40.6174C42.1981 27.4848 43.4795 26.1979 43.4795 24.6106C43.4795 23.0232 42.1981 21.7363 40.6174 21.7363Z" fill="url(#paint1_linear_2106_912)" fill-opacity="0.9"/>
<path d="M40.628 21.99H18.0991C16.6637 21.99 15.5 23.1586 15.5 24.6V24.6106C15.5 26.0521 16.6637 27.2207 18.0991 27.2207H40.628C42.0635 27.2207 43.2271 26.0521 43.2271 24.6106V24.6C43.2271 23.1586 42.0635 21.99 40.628 21.99Z" stroke="url(#paint2_linear_2106_912)" stroke-width="0.49"/>
<path d="M32.1046 35.3361H18.099C16.5182 35.3361 15.2368 36.6229 15.2368 38.2103C15.2368 39.7977 16.5182 41.0845 18.099 41.0845H32.1046C33.6853 41.0845 34.9667 39.7977 34.9667 38.2103C34.9667 36.6229 33.6853 35.3361 32.1046 35.3361Z" fill="url(#paint3_linear_2106_912)" fill-opacity="0.9"/>
<path d="M32.1152 35.5897H18.0991C16.6637 35.5897 15.5 36.7583 15.5 38.1998V38.2103C15.5 39.6518 16.6637 40.8204 18.0991 40.8204H32.1152C33.5507 40.8204 34.7143 39.6518 34.7143 38.2103V38.1998C34.7143 36.7583 33.5507 35.5897 32.1152 35.5897Z" stroke="url(#paint4_linear_2106_912)" stroke-width="0.49"/>
<path d="M44.1951 61.7748H16.4364C13.5133 61.7748 11.1436 64.1545 11.1436 67.09V76.6848C11.1436 79.6203 13.5133 82 16.4364 82H44.1951C47.1183 82 49.488 79.6203 49.488 76.6848V67.09C49.488 64.1545 47.1183 61.7748 44.1951 61.7748Z" fill="#E197DF" fill-opacity="0.7"/>
<path d="M11.3435 77.0335V67.4281C11.3435 64.4905 13.7111 62.1129 16.6364 62.1129H44.4056" stroke="url(#paint5_linear_2106_912)" stroke-width="0.62"/>
</g>
<defs>
<linearGradient id="paint0_linear_2106_912" x1="0" y1="35.1988" x2="60" y2="35.1988" gradientUnits="userSpaceOnUse">
<stop stop-color="#FF2F76"/>
<stop offset="1" stop-color="#FF1464"/>
</linearGradient>
<linearGradient id="paint1_linear_2106_912" x1="47.2466" y1="28.6577" x2="20.3714" y2="22.6092" gradientUnits="userSpaceOnUse">
<stop stop-color="white" stop-opacity="0"/>
<stop offset="0.98" stop-color="white"/>
</linearGradient>
<linearGradient id="paint2_linear_2106_912" x1="43.4797" y1="24.6" x2="15.2369" y2="24.6" gradientUnits="userSpaceOnUse">
<stop stop-color="white" stop-opacity="0"/>
<stop offset="1" stop-color="white"/>
</linearGradient>
<linearGradient id="paint3_linear_2106_912" x1="37.629" y1="41.0422" x2="18.8068" y2="36.8072" gradientUnits="userSpaceOnUse">
<stop stop-color="white" stop-opacity="0"/>
<stop offset="0.98" stop-color="white"/>
</linearGradient>
<linearGradient id="paint4_linear_2106_912" x1="34.9669" y1="38.1998" x2="-305.377" y2="38.1998" gradientUnits="userSpaceOnUse">
<stop stop-color="white" stop-opacity="0"/>
<stop offset="1" stop-color="white"/>
</linearGradient>
<linearGradient id="paint5_linear_2106_912" x1="9.27055" y1="74.0008" x2="40.9469" y2="55.7931" gradientUnits="userSpaceOnUse">
<stop stop-color="white" stop-opacity="0"/>
<stop offset="0.43" stop-color="white"/>
<stop offset="1" stop-color="white" stop-opacity="0"/>
</linearGradient>
<clipPath id="clip0_2106_912">
<rect width="60" height="82" fill="white"/>
</clipPath>
</defs>
</svg>
