<svg width="80" height="70" viewBox="0 0 80 70" fill="none" xmlns="http://www.w3.org/2000/svg">
<path d="M20.5803 3.64462L44.7662 30.1821C47.1639 32.8111 47.1639 36.1992 44.7662 38.8281L20.6845 65.2457C14.6277 71.8861 0.12656 68.8576 0.105713 60.9467C0.0535889 44.7413 -0.00896454 24.141 -0.00896454 7.95966C-0.00896454 0.0407711 14.513 -3.00373 20.5699 3.64462H20.5803Z" fill="url(#paint0_linear_2546_3151)"/>
<path opacity="0.6" d="M54.1049 66.1621L77.7916 39.2488C80.1393 36.5817 80.1393 33.149 77.7916 30.4819L54.2194 3.69752C48.2929 -3.03885 34.0924 0.0311963 34.0637 8.05683C34.0065 24.4868 33.9492 45.3728 33.9492 61.7867C33.9492 69.8204 48.1689 72.9065 54.1049 66.1621Z" fill="#E197DF"/>
<defs>
<linearGradient id="paint0_linear_2546_3151" x1="23.106" y1="68.8975" x2="23.106" y2="0.0008131" gradientUnits="userSpaceOnUse">
<stop stop-color="#FF2F76"/>
<stop offset="1" stop-color="#FF1464"/>
</linearGradient>
</defs>
</svg>
