<svg width="93" height="74" viewBox="0 0 93 74" fill="none" xmlns="http://www.w3.org/2000/svg">
<g clip-path="url(#clip0_2546_3193)">
<path d="M90.9173 7.75782C92.9904 11.3555 92.9904 16.1945 92.9904 25.853C92.9904 35.5115 92.9904 40.3504 90.9173 43.9481C89.561 46.3045 87.6041 48.2634 85.2404 49.6307C81.6463 51.7059 76.8123 51.7059 67.1635 51.7059H56.8366C53.9304 51.7059 51.4504 51.7059 49.3191 51.6477L38.7791 57.9122C37.6941 58.5619 36.3282 57.6989 36.4445 56.4382L37.1516 48.5543C35.5048 47.3034 34.1195 45.7421 33.0829 43.9384C31.0098 40.3407 31.0098 35.5018 31.0098 25.8433C31.0098 16.1848 31.0098 11.3458 33.0829 7.74813C34.4391 5.39169 36.396 3.43283 38.7598 2.06552C42.3538 -0.00970459 47.1879 -0.00970459 56.8366 -0.00970459H67.1635C76.822 -0.00970459 81.6463 -0.00970459 85.2404 2.06552C87.5945 3.42314 89.5513 5.38199 90.9173 7.74813V7.75782Z" fill="url(#paint0_linear_2546_3193)"/>
<g opacity="0.64">
<path d="M28.2773 38.4788C32.7335 38.4788 35.9885 36.8788 39.1466 33.7174C42.3048 30.5561 43.9613 26.7548 43.9613 22.294C43.9613 17.8333 42.3629 13.9641 39.2048 10.8028C36.0466 7.64143 32.191 6.04138 27.7251 6.04138C23.2591 6.04138 19.4035 7.64143 16.2454 10.8028C13.0873 13.9641 12.041 17.7654 12.041 22.2262C12.041 26.6869 13.6395 30.5561 16.7976 33.7174C19.9557 36.8788 23.2688 38.537 27.7251 38.537L28.2773 38.4788Z" fill="#E197DF"/>
<path d="M56.1297 57.9219C56.0425 56.603 55.8584 55.1775 55.5872 53.6551C55.3159 52.1326 54.9575 50.6877 54.5409 49.3689C54.105 48.0112 53.5141 46.6633 52.7778 45.3736C52.0222 44.0354 51.1213 42.8717 50.1234 41.9117C49.0772 40.9128 47.7887 40.0983 46.3066 39.5164C44.8244 38.9346 43.1872 38.634 41.4434 38.634C40.7556 38.634 40.0872 38.9152 38.8084 39.7589C38.0141 40.2728 37.0938 40.874 36.0572 41.5335C35.1756 42.0959 33.9744 42.6196 32.5019 43.1044C31.0584 43.5699 29.5956 43.8123 28.1522 43.8123C26.7087 43.8123 25.2459 43.5796 23.8025 43.1044C22.33 42.6293 21.1287 42.0959 20.2472 41.5335C19.2203 40.8837 18.3 40.2825 17.4959 39.7589C16.2172 38.9249 15.5488 38.634 14.8609 38.634C13.1075 38.634 11.4703 38.9346 9.99781 39.5164C8.51562 40.108 7.23688 40.9128 6.18094 41.9117C5.18313 42.8717 4.28219 44.0354 3.52656 45.3736C2.8 46.6633 2.19938 48.0112 1.76344 49.3689C1.33719 50.6877 0.988438 52.1326 0.717188 53.6551C0.445938 55.1678 0.261875 56.603 0.174688 57.9219C0.0875 59.2116 0.0390625 60.5498 0.0390625 61.9075C0.0390625 65.4276 1.15313 68.2786 3.36188 70.3829C5.54156 72.4581 8.41875 73.5054 11.9256 73.5054H44.3788C47.8856 73.5054 50.7628 72.4581 52.9425 70.3829C55.1513 68.2786 56.2653 65.4276 56.2653 61.9075C56.2653 60.5498 56.2169 59.2116 56.1297 57.9219Z" fill="#E197DF"/>
</g>
<path d="M39.3688 11.0549C36.2107 7.89357 32.3551 6.29352 27.8891 6.29352C23.4232 6.29352 19.5676 7.89357 16.4095 11.0549C13.2513 14.2162 12.2051 18.0175 12.2051 22.4783C12.2051 26.939 13.8035 30.8083 16.9616 33.9696C18.347 35.3563 19.771 36.4618 21.3016 37.257" stroke="url(#paint1_linear_2546_3193)" stroke-width="0.58" stroke-miterlimit="10"/>
<path opacity="0.93" d="M12.1675 74C8.59281 74 5.64781 72.9236 3.41 70.7999C1.14313 68.6374 0 65.7185 0 62.1208C0 60.7535 0.0484375 59.4056 0.135625 58.1158C0.222813 56.7873 0.416562 55.3424 0.687813 53.8199C0.96875 52.2781 1.3175 50.8235 1.74375 49.4949C2.18937 48.1179 2.78031 46.7506 3.52625 45.4415C4.30125 44.0839 5.21187 42.8911 6.22906 41.9214C7.30437 40.8934 8.61219 40.0692 10.1331 39.4679C11.6444 38.8667 13.3106 38.5661 15.1028 38.5661C15.8488 38.5661 16.5559 38.857 17.8928 39.7298C18.6969 40.2534 19.6172 40.8547 20.6441 41.5044C21.5063 42.0571 22.6784 42.5711 24.1316 43.0462C26.9603 43.9578 29.8375 43.9578 32.6566 43.0462C34.1097 42.5711 35.2916 42.0571 36.1441 41.5044C37.1806 40.845 38.1009 40.2437 38.8856 39.7298C40.2225 38.857 40.9297 38.5661 41.6756 38.5661C43.4581 38.5661 45.1341 38.8667 46.6453 39.4679L46.4419 39.9916C44.9984 39.4195 43.3903 39.1285 41.6756 39.1285C41.0459 39.1285 40.4259 39.4001 39.1859 40.2049C38.3916 40.7189 37.4713 41.3201 36.4347 41.9795C35.5338 42.5517 34.3131 43.0947 32.8116 43.5796C29.8762 44.5299 26.8828 44.5299 23.9378 43.5796C22.4362 43.0947 21.2253 42.5614 20.3147 41.9795C19.2878 41.3201 18.3675 40.7286 17.5634 40.2049C16.3331 39.4001 15.7034 39.1285 15.0738 39.1285C13.3591 39.1285 11.7509 39.4195 10.3075 39.9916C8.85437 40.5637 7.60469 41.3492 6.5875 42.3286C5.60906 43.2693 4.7275 44.4136 3.98156 45.7227C3.255 47.0027 2.67375 48.3313 2.2475 49.6695C1.83094 50.9689 1.48219 52.4041 1.21094 53.9169C0.939687 55.42 0.755625 56.8455 0.668437 58.1546C0.58125 59.4347 0.532813 60.7632 0.532813 62.1208C0.532813 65.5633 1.61781 68.3465 3.76844 70.3926C5.89 72.4193 8.70906 73.4472 12.1384 73.4472V74.0097L12.1675 74Z" fill="url(#paint2_radial_2546_3193)"/>
</g>
<defs>
<linearGradient id="paint0_linear_2546_3193" x1="41.637" y1="24.6893" x2="118.478" y2="44.8022" gradientUnits="userSpaceOnUse">
<stop stop-color="#FF2F76"/>
<stop offset="1" stop-color="#FF1464"/>
</linearGradient>
<linearGradient id="paint1_linear_2546_3193" x1="12.9026" y1="31.041" x2="33.9203" y2="6.0235" gradientUnits="userSpaceOnUse">
<stop stop-color="white" stop-opacity="0"/>
<stop offset="0.02" stop-color="white" stop-opacity="0.09"/>
<stop offset="0.07" stop-color="white" stop-opacity="0.3"/>
<stop offset="0.13" stop-color="white" stop-opacity="0.49"/>
<stop offset="0.19" stop-color="white" stop-opacity="0.65"/>
<stop offset="0.25" stop-color="white" stop-opacity="0.77"/>
<stop offset="0.31" stop-color="white" stop-opacity="0.87"/>
<stop offset="0.37" stop-color="white" stop-opacity="0.94"/>
<stop offset="0.43" stop-color="white" stop-opacity="0.99"/>
<stop offset="0.51" stop-color="white"/>
<stop offset="0.56" stop-color="white" stop-opacity="0.98"/>
<stop offset="0.63" stop-color="white" stop-opacity="0.93"/>
<stop offset="0.69" stop-color="white" stop-opacity="0.85"/>
<stop offset="0.75" stop-color="white" stop-opacity="0.74"/>
<stop offset="0.82" stop-color="white" stop-opacity="0.59"/>
<stop offset="0.88" stop-color="white" stop-opacity="0.41"/>
<stop offset="0.95" stop-color="white" stop-opacity="0.2"/>
<stop offset="1" stop-color="white" stop-opacity="0"/>
</linearGradient>
<radialGradient id="paint2_radial_2546_3193" cx="0" cy="0" r="1" gradientUnits="userSpaceOnUse" gradientTransform="translate(0.649063 39.4098) scale(34.0031 34.0375)">
<stop stop-color="white" stop-opacity="0"/>
<stop offset="0.02" stop-color="white" stop-opacity="0.09"/>
<stop offset="0.07" stop-color="white" stop-opacity="0.3"/>
<stop offset="0.13" stop-color="white" stop-opacity="0.49"/>
<stop offset="0.19" stop-color="white" stop-opacity="0.65"/>
<stop offset="0.25" stop-color="white" stop-opacity="0.77"/>
<stop offset="0.31" stop-color="white" stop-opacity="0.87"/>
<stop offset="0.37" stop-color="white" stop-opacity="0.94"/>
<stop offset="0.43" stop-color="white" stop-opacity="0.99"/>
<stop offset="0.51" stop-color="white"/>
<stop offset="0.56" stop-color="white" stop-opacity="0.98"/>
<stop offset="0.63" stop-color="white" stop-opacity="0.93"/>
<stop offset="0.69" stop-color="white" stop-opacity="0.85"/>
<stop offset="0.75" stop-color="white" stop-opacity="0.74"/>
<stop offset="0.82" stop-color="white" stop-opacity="0.59"/>
<stop offset="0.88" stop-color="white" stop-opacity="0.41"/>
<stop offset="0.95" stop-color="white" stop-opacity="0.2"/>
<stop offset="1" stop-color="white" stop-opacity="0"/>
</radialGradient>
<clipPath id="clip0_2546_3193">
<rect width="93" height="74" fill="white"/>
</clipPath>
</defs>
</svg>
